<svg xmlns="http://www.w3.org/2000/svg" fill="none" viewBox="0 0 514 505">
  <path fill="#F06" d="M21.201 386.622c-15.854-53.508 28.71-122.856 99.839-180.217 71.13-56.933 168.398-102.309 247.67-59.502 79.271 42.807 140.974 173.368 108.409 249.137-32.566 76.196-158.972 97.172-260.953 89.466-101.982-8.133-178.682-45.803-194.965-98.884Z"/>
  <path stroke="#EBCFFB" stroke-width="2" d="M311.54 157c2.907 5.58 5.46 11.31 7.66 17.19 16.88 45.24 35.15 90.08 52.64 135.12.079.214.086.447.019.663a.992.992 0 0 1-.389.527c-34.65 23.58-22.96 77.16 19.4 81.33 20.37 2.01 38.25-10.46 45.65-29.08a.979.979 0 0 1 .93-.63l24.52.11a.978.978 0 0 0 .823-.43 1.003 1.003 0 0 0 .107-.93 3892.295 3892.295 0 0 0-9.49-24.3c-.813-2.073-1.117-4.05-.91-5.93.39-3.56-.44-7.13-5.01-4.59a.978.978 0 0 0-.44.5c-1.273 3.233-.307 5.307 2.9 6.22a1.033 1.033 0 0 1 .66.6l10.32 26.14a1.001 1.001 0 0 1-.94 1.37l-21.34-.32a1.004 1.004 0 0 1-.951-.742.998.998 0 0 1-.019-.428c2.967-16.86-.613-30.693-10.74-41.5-10.48-11.18-24.95-15.79-40.14-13.51a1.007 1.007 0 0 1-.651-.125 1.006 1.006 0 0 1-.429-.505l-37.3-95.65a1.006 1.006 0 0 1 .014-.764.988.988 0 0 1 .546-.526l32.49-12.79c1.74-.687 2.557-1.937 2.45-3.75-.22-3.713-1.813-6.793-4.78-9.24a1.006 1.006 0 0 0-.482-.219.963.963 0 0 0-.518.059l-33.95 13.26a.991.991 0 0 1-1.28-.54l-3.99-9.54a1.022 1.022 0 0 1 0-.778 1.01 1.01 0 0 1 .55-.542c8.973-3.587 14.407-5.73 16.3-6.43 5.64-2.07 4.45-7.41 1.77-11.17-2.39-3.37-4.99-1.93-8.15-.78-4.873 1.767-9.72 3.7-14.54 5.8a1 1 0 0 1-1.33-.54l-3.96-9.68a.983.983 0 0 1 .23-1.087c.095-.092.207-.164.33-.213a2144.686 2144.686 0 0 1 31.64-12.27c6.46-2.44 2.14-11.51-1.82-13.57a.974.974 0 0 0-.84-.04 988.625 988.625 0 0 1-47.29 17.73"/>
  <path stroke="#8F8E93" stroke-width="2" d="M311.81 150.48c-.053-22.28-.08-44.403-.08-66.37 0-17.07-5.8-23.41-23.09-23.38-34.413.067-68.96.04-103.64-.08a.997.997 0 0 1-.952-.703.999.999 0 0 1-.038-.417l2.31-18.94a.994.994 0 0 0-.226-.764 1.002 1.002 0 0 0-.714-.356 144.226 144.226 0 0 1-9.63-.85c-20.767-2.5-37.843-11.613-51.23-27.34a1.016 1.016 0 0 0-.665-.346.994.994 0 0 0-.715.206 14.77 14.77 0 0 0-2.25 2.18c-8.63 10.34-21.06 17.93-33.67 21.87-7.807 2.44-16.143 3.907-25.01 4.4a1.008 1.008 0 0 0-.697.34.99.99 0 0 0-.243.73c1.273 17.973 5.217 35.32 11.83 52.04 8.73 22.07 22.95 41.38 45 51.33a1.02 1.02 0 0 1 .56.65c.55 2.05.12 4.63.11 6.25-.107 30.587-.043 61.803.19 93.65a1.003 1.003 0 0 1-.615.933.998.998 0 0 1-.385.077 8179.4 8179.4 0 0 0-68.94-.07c-7.4.027-12.473.58-15.22 1.66-12.57 4.95-10.66 19.23-10.55 31.47.11 10.88.86 18.1 10.32 22.99 1.447.753 3.193 1.117 5.24 1.09 15.747-.173 31.487-.243 47.22-.21 6.16.01 17.28.48 25.97.01a24.078 24.078 0 0 1 6.29.5 1.011 1.011 0 0 1 .8 1 2332.566 2332.566 0 0 0-.08 66.92c.073 5.38.537 9.193 1.39 11.44 2.92 7.61 9.27 10.55 17.41 10.93 8.31.38 16.66.14 24.95.16 42.227.087 84.457.027 126.69-.18 5.127-.027 8.933-.517 11.42-1.47 7.153-2.727 10.76-8.423 10.82-17.09.293-40.667.243-113.247-.15-217.74"/>
  <path stroke="#826697" stroke-width="2" d="M311.81 150.48c-.666 1.98-.756 4.153-.27 6.52"/>
  <path stroke="#EBCFFB" stroke-width="2" d="m394.1 265.82 11.94-.09a1.013 1.013 0 0 1 .94.64l12.3 31.41a1.011 1.011 0 0 1-.17 1.02c-1.573 1.84-1.53 3.633.13 5.38.155.162.359.268.58.3 3.36.48 4.957-.85 4.79-3.99a.993.993 0 0 0-.156-.483.998.998 0 0 0-.374-.347c-2.307-1.227-3.893-2.887-4.76-4.98-1.48-3.58-5.28-13.287-11.4-29.12a1 1 0 0 0-.82-.63 64.984 64.984 0 0 0-12.83-.19 1 1 0 0 1-.8-.29l-2.62-2.65a.983.983 0 0 0-.369-.233c-.14-.05-.291-.07-.441-.057-6.3.61-3.53 11.86 3.34 4.62.186-.193.445-.304.72-.31ZM461 309.28c-5.46-.46-11.07-.03-16.64-.36a.995.995 0 0 1-.525-.192 1.025 1.025 0 0 1-.345-.448c-3.433-8.72-6.98-17.507-10.64-26.36-.8-1.947-.81-3.917-.03-5.91a.948.948 0 0 0 .04-.6c-1.94-7.95-12.49 1.19-2.64 3.82a1.002 1.002 0 0 1 .73.82c.16 1.02.337 1.757.53 2.21 3.56 8.553 7.09 17.127 10.59 25.72 1.34 3.27 3.39 2.41 6.2 2.49 3.873.1 7.747.06 11.62-.12a1.012 1.012 0 0 1 .98.63l11.49 28.65a1.015 1.015 0 0 1-.07.88c-2.22 3.807-1.073 5.947 3.44 6.42a.98.98 0 0 0 .489-.073 1.03 1.03 0 0 0 .401-.307l2.31-2.92a.993.993 0 0 0 .206-.765 1 1 0 0 0-.416-.675l-4.98-3.51a1.074 1.074 0 0 1-.36-.44l-11.54-28.34a1 1 0 0 0-.84-.62ZM51.94 308.39c21.187-.113 42.38-.07 63.58.13 1.253.013 1.343-.303.27-.95a2.153 2.153 0 0 0-1.05-.3c-16.68-.48-34.5.39-51.89.11-8.21-.13-17.28.91-25.09-2.43a1.025 1.025 0 0 0-.453-.084.98.98 0 0 0-.437.124c-3.34 1.89 14.44 3.41 15.07 3.4Z"/>
  <path stroke="#8F8E93" stroke-width="2" d="M64.04 53.49c4.63 35.05 22.96 79.26 59.66 90.82a.998.998 0 0 0 .63-.01c25.37-9 41.56-31.84 50.39-56.36a173.82 173.82 0 0 0 9.85-46.24.994.994 0 0 0-.249-.738 1.006 1.006 0 0 0-.711-.332c-17.193-.68-32.747-5.963-46.66-15.85-4.72-3.36-8.85-7.227-12.39-11.6a1.017 1.017 0 0 0-.769-.37.995.995 0 0 0-.771.35c-9.133 10.647-20.387 18.197-33.76 22.65a99.885 99.885 0 0 1-25.95 4.94 1 1 0 0 0-.94 1.15 474.05 474.05 0 0 1 1.67 11.59Z"/>
  <path stroke="#8F8E93" stroke-width="2" d="M183.06 302.52c-18.79.22-37.43-.17-56.16.15a.993.993 0 0 0-.77.381 1.005 1.005 0 0 0-.19.839c.65 2.9.13 6.26.36 8.94.56 6.69-.26 14.37-.2 19.9.133 12.433.18 24.88.14 37.34-.03 9.24 3.3 15.41 13.58 15.42 50.04.053 100.077.04 150.11-.04 13.98-.02 14.58-8.12 14.58-20.06-.013-93.607-.017-187.21-.01-280.81 0-12.53-4.51-15.82-17.06-15.82-35-.013-69.903-.017-104.71-.01a1.002 1.002 0 0 0-.97.76c-7.86 31.24-23.35 62.54-54.96 75.46a1.006 1.006 0 0 0-.62.86c-.45 6.27.06 14.66.06 18.77.013 26.387.013 53.01 0 79.87a1.002 1.002 0 0 0 .97 1c10.6.3 21.283.383 32.05.25 35.4-.45 70.84-.14 106.24.05 10.53.06 13.74 3.06 19.5 11.52a.984.984 0 0 1 .17.61c-.293 5.413-.34 14.607-.14 27.58.12 7.973-3.037 13.207-9.47 15.7-2.367.92-6.13 1.367-11.29 1.34-18.58-.1-37 .31-55.71.04-8.5-.127-17-.14-25.5-.04Z"/>
  <path stroke="#826697" stroke-width="2" d="m25.93 292.83 4.45 4.7"/>
  <path stroke="#8F8E93" stroke-width="2" d="M30.38 297.53c.814 1.173 1.987 2.123 3.52 2.85 1.1.52 2.544.8 4.33.84 22.19.47 44.34.02 66.52.16 54.17.35 108.33-.14 162.5.18 11.32.07 16.49-6.71 16.5-17.12 0-8.053-.013-16.097-.04-24.13-.007-3.22-1.41-5.92-4.21-8.1"/>
  <path stroke="#826697" stroke-width="2" d="m279.5 252.21-1.71-1.71"/>
  <path stroke="#8F8E93" stroke-width="2" d="M277.79 250.5c-3.593-2.507-7.213-3.757-10.86-3.75-73.15.12-142.93-.58-219.62.04-16.43.14-22.67 4.66-22.79 21.97a185.05 185.05 0 0 0 1.41 24.07"/>
  <path stroke="#EBCFFB" stroke-width="2" d="M277.79 250.5a.823.823 0 0 1-.03.46.648.648 0 0 1-.56.42c-4.02.27-8.36-.4-11.89-.34-25.26.38-50.71.26-80.39.04-11.49-.09-26.27.64-39.43.29-33.2-.86-66.55-.13-99.77-.1-22.36.02-17.71 26.13-17.43 40.08a1.012 1.012 0 0 1-.71.98l-1.65.5"/>
  <path stroke="#EBCFFB" stroke-width="2" d="M279.5 252.21c-1.95-.07-3.66.77-5.44.73-31.02-.7-62.16.15-93.2.05-8.6-.03-20.77-.68-31.18-.43-34.61.82-69.25.44-103.86.15-6.58-.06-11.5 1.83-14.32 7.65-.967 1.98-1.45 5.033-1.45 9.16-.007 9.313.103 18.65.33 28.01M154.13 44.98c-11.787-3.493-21.657-9.887-29.61-19.18a.995.995 0 0 0-1.168-.262 1 1 0 0 0-.342.252C110.31 40.163 94.16 47.567 74.56 48a.99.99 0 0 0-.97 1.06c2 31.05 15.37 71.25 47.45 83.58 1.8.687 3.593.69 5.38.01 31.55-12.05 45.38-52.22 47.12-83.62a1 1 0 0 0-.97-1.05c-6.167-.187-12.313-1.187-18.44-3Z"/>
  <path stroke="#EBCFFB" stroke-width="2" d="M121.75 93.13a585.74 585.74 0 0 0-17.32-16.49c-3.06-2.8-4.95-.71-6.23 2.51a1.008 1.008 0 0 0 .24 1.09l23.3 22.48a1.009 1.009 0 0 0 .74.28c1.533-.06 3.25-1.357 5.15-3.89 7.933-10.553 15.887-21.1 23.86-31.64 2.09-2.76 4.94-5.96.78-8.08-1.6-.82-2.973-.48-4.12 1.02l-24.9 32.62a.996.996 0 0 1-1.145.328 1.004 1.004 0 0 1-.355-.228Z"/>
  <path stroke="#8F8E93" stroke-width="2" d="M237.211 82.309a6.756 6.756 0 0 0-1.966-4.77 6.744 6.744 0 0 0-4.763-1.982l-31.18-.054a6.74 6.74 0 0 0-6.751 6.728l-.001.48a6.736 6.736 0 0 0 6.728 6.752l31.18.054a6.738 6.738 0 0 0 6.752-6.728l.001-.48ZM252.2 195.53a36.03 36.03 0 1 0-72.059 0 36.03 36.03 0 0 0 72.059 0Z"/>
  <path stroke="#EBCFFB" stroke-width="2" d="M158.94 308.51c32.92.153 65.84.083 98.76-.21 13.03-.11 29.27 1.54 32.19-15.63 1.29-7.56 1.5-24.33-2.07-33.63a.776.776 0 0 0-.36-.41c-.453-.253-.58-.097-.38.47 3.15 9.08 2 21.06 2.1 30.83.12 11.25-9 17.6-19.43 17.52-53.107-.38-89.503-.42-109.19-.12-14.227.22-24.59.29-31.09.21a.21.21 0 0 0-.21.19c-.09.57 27.03.77 29.68.78ZM425.07 347.9a30.168 30.168 0 0 0-30.17-30.17 30.17 30.17 0 1 0 30.17 30.17ZM449.24 330.75a1 1 0 0 0 1.39-.39c1.087-2.047.663-3.163-1.27-3.35a1 1 0 0 0-1.04.64c-.52 1.4-.213 2.433.92 3.1Z"/>
  <path stroke="#8F8E93" stroke-width="2" d="M209.68 200.96c12.79-2.35 25.39 1.99 34.29 11.47a1 1 0 0 0 1.63-.25c6.28-13.187 5.637-25.19-1.93-36.01-14.43-20.62-44.49-18.72-56.85 2.86-5.133 8.96-5.687 18.953-1.66 29.98.413 1.127 1.107 2.323 2.08 3.59a1.011 1.011 0 0 0 .749.392 1.002 1.002 0 0 0 .781-.322c5.88-6.333 12.85-10.237 20.91-11.71Z"/>
  <path stroke="#8F8E93" stroke-width="2" d="M228.52 182.27a12.351 12.351 0 0 0-23.76-4.726 12.36 12.36 0 0 0 0 9.452 12.35 12.35 0 0 0 23.76-4.726Z"/>
  <path stroke="#EBCFFB" stroke-width="2" d="M123.13 279.8c.127-1.433.693-1.637 1.7-.61 1.88 1.9 3.553 3.577 5.02 5.03.58.57 2.34 1.54 2.32.05a.963.963 0 0 0-.27-.67l-5.16-5.44c-1.007-1.067-.777-1.63.69-1.69 2.44-.1 5.07-.383 7.89-.85 1.96-.33 1.07-1.57-.36-1.65-2.467-.14-4.963-.37-7.49-.69-1.36-.173-1.553-.74-.58-1.7l5.44-5.37a.997.997 0 0 0 .27-.51c.84-4.14-7.71 4.98-8.04 5.34-1.14 1.267-1.72 1.047-1.74-.66l-.1-8.62a.806.806 0 0 0-.119-.405.839.839 0 0 0-.311-.295c-2.21-1.17-1.12 8.49-1.03 9.36.18 1.753-.377 2.033-1.67.84l-6.19-5.73a.975.975 0 0 0-.69-.26c-1.267.02-1.337.527-.21 1.52a54.285 54.285 0 0 1 4.95 4.95 1.023 1.023 0 0 1 .25.754.994.994 0 0 1-.37.696c-.473.367-.92.55-1.34.55-.23 0-10.74-.69-7.46 1.78.169.13.373.2.58.2 1.87.04 7.41-.63 8.39 1.07.104.189.147.404.122.616a.999.999 0 0 1-.262.564l-5.62 5.98a.626.626 0 0 0-.173.419.644.644 0 0 0 .153.431c1.13 1.35 6.41-4.81 7.64-6.12 1.113-1.173 1.69-.953 1.73.66l.22 9.02a.824.824 0 0 0 .47.7c1.03.48 1.29-.96 1.25-1.73a50.366 50.366 0 0 1 .1-7.53ZM253.13 280c.127-1.413.693-1.62 1.7-.62l5.31 5.26a1.032 1.032 0 0 0 .76.29c2.72-.15-4.46-6.41-4.85-6.81a.977.977 0 0 1-.253-.955 1.01 1.01 0 0 1 .703-.705c2.433-.667 4.903-.9 7.41-.7.82.07 2.49-.43 1.47-1.48a.982.982 0 0 0-.77-.31 28.688 28.688 0 0 1-7.85-.68c-1.173-.267-1.337-.827-.49-1.68l5.16-5.23a.999.999 0 0 0 .256-.438.96.96 0 0 0 .004-.502c-.16-.66-.627-.617-1.4.13a393.098 393.098 0 0 1-5.85 5.5c-1.113 1.027-1.67.783-1.67-.73l-.03-8.49a.804.804 0 0 0-.181-.504.804.804 0 0 0-.459-.276c-.647-.127-.977.27-.99 1.19-.053 3.08-.093 5.847-.12 8.3-.02 1.54-.583 1.78-1.69.72-.68-.65-7.11-7.33-7.64-5.91a.796.796 0 0 0 .17.83l5.49 5.76c.92.967.717 1.527-.61 1.68-1.07.13-10.15-.65-8.58 1.69a.987.987 0 0 0 .79.44c.65.02 9.51-.58 9.7-.04a.63.63 0 0 1 .018.339.631.631 0 0 1-.158.301l-7.04 7.69a.52.52 0 0 0-.07.59c.41.74 1.4.3 1.92-.18a151.68 151.68 0 0 0 6.15-6.05c1.127-1.173 1.7-.947 1.72.68l.1 8.96a.822.822 0 0 0 .42.69c.95.52 1.37-.91 1.33-1.64a50.52 50.52 0 0 1 .12-7.11ZM55.23 271.62c-.4-.047-.75-.23-1.05-.55-.47-.47-6.51-7.52-6.94-5.7a.821.821 0 0 0 .19.72l7.55 8.32c.173.189.267.437.263.692a.985.985 0 0 1-.283.678l-7.77 7.93a.654.654 0 0 0-.1.767c.044.08.106.149.18.203l.29.21c.079.055.175.08.272.071a.425.425 0 0 0 .258-.121l7.77-7.63a.986.986 0 0 1 .93-.26c1.893.44 1.927 1.073.1 1.9a.986.986 0 0 0-.427.376 1.016 1.016 0 0 0-.153.554l.09 8.3a.65.65 0 0 0 .57.63c1.92.22 1.33-7.76 1.37-9.07.04-1.473.6-1.707 1.68-.7a95.909 95.909 0 0 1 5.42 5.5c1.21 1.33 2.13.07 1-1.09a323.225 323.225 0 0 0-7.57-7.54 1.005 1.005 0 0 1-.306-.706.993.993 0 0 1 .286-.714l8.18-8.34a.4.4 0 0 0 0-.57l-.21-.21a.806.806 0 0 0-.56-.236.787.787 0 0 0-.56.226l-5.4 5.3c-1.627 1.593-2.367 1.223-2.22-1.11.05-.73 1.09-9.76-1.4-7.95a.998.998 0 0 0-.42.82l.1 8.3a1.007 1.007 0 0 1-.338.762.985.985 0 0 1-.792.238ZM389.406 267.176c.465.085.95-.051 1.348-.377.399-.326.678-.815.777-1.361a2.29 2.29 0 0 0-.248-1.547c-.259-.445-.665-.743-1.129-.827-.465-.085-.95.051-1.348.377a2.283 2.283 0 0 0-.777 1.361 2.29 2.29 0 0 0 .248 1.547c.259.445.665.743 1.129.827ZM423.23 301.38a1.98 1.98 0 1 0-3.962.001 1.98 1.98 0 0 0 3.962-.001ZM427.76 276.69c2.053 1.553 3.337 1.133 3.85-1.26a1.008 1.008 0 0 0-.31-.97c-1.687-1.487-2.977-1.137-3.87 1.05a1.011 1.011 0 0 0 .33 1.18ZM473.96 341.3c-4.21 5.71 6.63 5.36 1.54-.09a.999.999 0 0 0-1.208-.196c-.13.07-.243.168-.332.286Z"/>
  <path fill="#26252E" d="M311.81 150.48c-.667 1.98-.757 4.153-.27 6.52.393 104.493.443 177.073.15 217.74-.06 8.667-3.667 14.363-10.82 17.09-2.487.953-6.293 1.443-11.42 1.47-42.233.207-84.463.267-126.69.18-8.29-.02-16.64.22-24.95-.16-8.14-.38-14.49-3.32-17.41-10.93-.853-2.247-1.317-6.06-1.39-11.44-.293-22.307-.267-44.613.08-66.92a1.008 1.008 0 0 0-.8-1 24.078 24.078 0 0 0-6.29-.5c-8.69.47-19.81 0-25.97-.01-15.733-.033-31.473.037-47.22.21-2.047.027-3.793-.337-5.24-1.09-9.46-4.89-10.21-12.11-10.32-22.99-.11-12.24-2.02-26.52 10.55-31.47 2.747-1.08 7.82-1.633 15.22-1.66a8179.4 8179.4 0 0 1 68.94.07.998.998 0 0 0 1-1.01 8662.726 8662.726 0 0 1-.19-93.65c.01-1.62.44-4.2-.11-6.25a1.02 1.02 0 0 0-.56-.65c-22.05-9.95-36.27-29.26-45-51.33-6.613-16.72-10.556-34.067-11.83-52.04a.983.983 0 0 1 .243-.73 1.002 1.002 0 0 1 .697-.34c8.867-.493 17.203-1.96 25.01-4.4 12.61-3.94 25.04-11.53 33.67-21.87a14.77 14.77 0 0 1 2.25-2.18.994.994 0 0 1 .715-.207c.257.027.495.15.665.347 13.387 15.727 30.463 24.84 51.23 27.34 3.227.393 6.437.677 9.63.85a1.002 1.002 0 0 1 .94 1.12l-2.31 18.94a.999.999 0 0 0 .99 1.12c34.68.12 69.227.147 103.64.08 17.29-.03 23.09 6.31 23.09 23.38 0 21.967.027 44.09.08 66.37ZM64.04 53.49c4.63 35.05 22.96 79.26 59.66 90.82a.998.998 0 0 0 .63-.01c25.37-9 41.56-31.84 50.39-56.36a173.82 173.82 0 0 0 9.85-46.24.993.993 0 0 0-.249-.738 1.005 1.005 0 0 0-.711-.332c-17.193-.68-32.747-5.963-46.66-15.85-4.72-3.36-8.85-7.227-12.39-11.6a1.016 1.016 0 0 0-1.194-.28.997.997 0 0 0-.346.26c-9.133 10.647-20.387 18.197-33.76 22.65a99.89 99.89 0 0 1-25.95 4.94 1 1 0 0 0-.94 1.15c.593 3.78 1.15 7.643 1.67 11.59Zm119.02 249.03c-18.79.22-37.43-.17-56.16.15a.993.993 0 0 0-.77.381 1.005 1.005 0 0 0-.19.839c.65 2.9.13 6.26.36 8.94.56 6.69-.26 14.37-.2 19.9.133 12.433.18 24.88.14 37.34-.03 9.24 3.3 15.41 13.58 15.42 50.04.053 100.077.04 150.11-.04 13.98-.02 14.58-8.12 14.58-20.06-.013-93.607-.017-187.21-.01-280.81 0-12.53-4.51-15.82-17.06-15.82-35-.013-69.903-.017-104.71-.01a1.001 1.001 0 0 0-.97.76c-7.86 31.24-23.35 62.54-54.96 75.46a1.006 1.006 0 0 0-.62.86c-.45 6.27.06 14.66.06 18.77.013 26.387.013 53.01 0 79.87a1.002 1.002 0 0 0 .97 1c10.6.3 21.283.383 32.05.25 35.4-.45 70.84-.14 106.24.05 10.53.06 13.74 3.06 19.5 11.52a.984.984 0 0 1 .17.61c-.293 5.413-.34 14.607-.14 27.58.12 7.973-3.037 13.207-9.47 15.7-2.367.92-6.13 1.367-11.29 1.34-18.58-.1-37 .31-55.71.04-8.5-.127-17-.14-25.5-.04Zm-157.13-9.69 4.45 4.7c.814 1.173 1.987 2.123 3.52 2.85 1.1.52 2.543.8 4.33.84 22.19.47 44.34.02 66.52.16 54.17.35 108.33-.14 162.5.18 11.32.07 16.49-6.71 16.5-17.12 0-8.053-.013-16.097-.04-24.13-.007-3.22-1.41-5.92-4.21-8.1l-1.71-1.71c-3.593-2.507-7.213-3.757-10.86-3.75-73.15.12-142.93-.58-219.62.04-16.43.14-22.67 4.66-22.79 21.97a185.05 185.05 0 0 0 1.41 24.07Z"/>
  <path fill="#F7F7F7" d="M123.7 144.31C87 132.75 68.67 88.54 64.04 53.49c-.52-3.947-1.077-7.81-1.67-11.59a1 1 0 0 1 .94-1.15c8.88-.5 17.53-2.147 25.95-4.94 13.373-4.453 24.627-12.003 33.76-22.65a.996.996 0 0 1 1.196-.25c.132.064.25.156.344.27 3.54 4.373 7.67 8.24 12.39 11.6 13.913 9.887 29.467 15.17 46.66 15.85a1.005 1.005 0 0 1 .911.676c.043.127.06.26.049.394a173.82 173.82 0 0 1-9.85 46.24c-8.83 24.52-25.02 47.36-50.39 56.36a.998.998 0 0 1-.63.01Zm30.43-99.33c-11.787-3.493-21.657-9.887-29.61-19.18a1 1 0 0 0-1.51-.01C110.31 40.163 94.16 47.567 74.56 48a.99.99 0 0 0-.97 1.06c2 31.05 15.37 71.25 47.45 83.58 1.8.687 3.593.69 5.38.01 31.55-12.05 45.38-52.22 47.12-83.62a.998.998 0 0 0-.97-1.05c-6.167-.187-12.313-1.187-18.44-3Z"/>
  <path fill="#DEA6FF" d="M154.13 44.98c6.127 1.813 12.273 2.813 18.44 3a.998.998 0 0 1 .97 1.05c-1.74 31.4-15.57 71.57-47.12 83.62-1.787.68-3.58.677-5.38-.01-32.08-12.33-45.45-52.53-47.45-83.58a.99.99 0 0 1 .97-1.06c19.6-.433 35.75-7.837 48.45-22.21a.991.991 0 0 1 .757-.34.996.996 0 0 1 .753.35c7.953 9.293 17.823 15.687 29.61 19.18Zm-32.38 48.15a585.74 585.74 0 0 0-17.32-16.49c-3.06-2.8-4.95-.71-6.23 2.51a1.023 1.023 0 0 0 .24 1.09l23.3 22.48a.994.994 0 0 0 .74.28c1.533-.06 3.25-1.357 5.15-3.89 7.933-10.553 15.887-21.1 23.86-31.64 2.09-2.76 4.94-5.96.78-8.08-1.6-.82-2.973-.48-4.12 1.02l-24.9 32.62a1 1 0 0 1-1.5.1Z"/>
  <path fill="#F7F7F7" d="M121.75 93.13a1.004 1.004 0 0 0 1.179.173.996.996 0 0 0 .321-.273l24.9-32.62c1.147-1.5 2.52-1.84 4.12-1.02 4.16 2.12 1.31 5.32-.78 8.08a13104.668 13104.668 0 0 0-23.86 31.64c-1.9 2.533-3.617 3.83-5.15 3.89a1.005 1.005 0 0 1-.74-.28l-23.3-22.48a1.024 1.024 0 0 1-.284-.51 1.007 1.007 0 0 1 .044-.58c1.28-3.22 3.17-5.31 6.23-2.51a585.74 585.74 0 0 1 17.32 16.49ZM183.06 302.52c8.5-.1 17-.087 25.5.04 18.71.27 37.13-.14 55.71-.04 5.16.027 8.923-.42 11.29-1.34 6.433-2.493 9.59-7.727 9.47-15.7-.2-12.973-.153-22.167.14-27.58a.984.984 0 0 0-.17-.61c-5.76-8.46-8.97-11.46-19.5-11.52-35.4-.19-70.84-.5-106.24-.05-10.767.133-21.45.05-32.05-.25a1.002 1.002 0 0 1-.97-1c.013-26.86.013-53.483 0-79.87 0-4.11-.51-12.5-.06-18.77a1.006 1.006 0 0 1 .62-.86c31.61-12.92 47.1-44.22 54.96-75.46a1.001 1.001 0 0 1 .97-.76c34.807-.007 69.71-.003 104.71.01 12.55 0 17.06 3.29 17.06 15.82-.007 93.6-.003 187.203.01 280.81 0 11.94-.6 20.04-14.58 20.06-50.033.08-100.07.093-150.11.04-10.28-.01-13.61-6.18-13.58-15.42.04-12.46-.007-24.907-.14-37.34-.06-5.53.76-13.21.2-19.9-.23-2.68.29-6.04-.36-8.94a.995.995 0 0 1 .532-1.116.993.993 0 0 1 .428-.104c18.73-.32 37.37.07 56.16-.15Zm54.15-220.211a6.736 6.736 0 0 0-6.728-6.752l-31.18-.054a6.74 6.74 0 0 0-6.751 6.728l-.001.48a6.737 6.737 0 0 0 6.728 6.752l31.18.054a6.74 6.74 0 0 0 6.752-6.728v-.48ZM252.2 195.53a36.03 36.03 0 1 0-72.059 0 36.03 36.03 0 0 0 72.059 0Zm-93.26 112.98c32.92.153 65.84.083 98.76-.21 13.03-.11 29.27 1.54 32.19-15.63 1.29-7.56 1.5-24.33-2.07-33.63a.776.776 0 0 0-.36-.41c-.453-.253-.58-.097-.38.47 3.15 9.08 2 21.06 2.1 30.83.12 11.25-9 17.6-19.43 17.52-53.107-.38-89.503-.42-109.19-.12-14.227.22-24.59.29-31.09.21a.21.21 0 0 0-.21.19c-.09.57 27.03.77 29.68.78Z"/>
  <path fill="#26252E" d="m230.482 75.557-31.18-.054a6.74 6.74 0 0 0-6.752 6.728v.48a6.74 6.74 0 0 0 6.728 6.752l31.18.054a6.74 6.74 0 0 0 6.752-6.728v-.48a6.74 6.74 0 0 0-6.728-6.752Z"/>
  <path fill="#DEA6FF" d="M311.54 157c-.487-2.367-.397-4.54.27-6.52a988.625 988.625 0 0 0 47.29-17.73.978.978 0 0 1 .84.04c3.96 2.06 8.28 11.13 1.82 13.57a2144.686 2144.686 0 0 0-31.64 12.27 1.012 1.012 0 0 0-.553.536.98.98 0 0 0-.007.764l3.96 9.68c.05.124.125.237.219.332a1.01 1.01 0 0 0 1.111.208c4.82-2.1 9.667-4.033 14.54-5.8 3.16-1.15 5.76-2.59 8.15.78 2.68 3.76 3.87 9.1-1.77 11.17-1.893.7-7.327 2.843-16.3 6.43a.987.987 0 0 0-.55.542 1.015 1.015 0 0 0 0 .778l3.99 9.54a.991.991 0 0 0 1.28.54l33.95-13.26a.963.963 0 0 1 .518-.059c.176.028.343.104.482.219 2.967 2.447 4.56 5.527 4.78 9.24.107 1.813-.71 3.063-2.45 3.75l-32.49 12.79a.988.988 0 0 0-.546.526c-.105.242-.11.517-.014.764l37.3 95.65c.082.212.233.39.429.505.197.114.426.158.651.125 15.19-2.28 29.66 2.33 40.14 13.51 10.127 10.807 13.707 24.64 10.74 41.5a.998.998 0 0 0 .97 1.17l21.34.32a.996.996 0 0 0 .836-.434 1.001 1.001 0 0 0 .104-.936l-10.32-26.14a1.033 1.033 0 0 0-.66-.6c-3.207-.913-4.173-2.987-2.9-6.22a.978.978 0 0 1 .44-.5c4.57-2.54 5.4 1.03 5.01 4.59-.207 1.88.097 3.857.91 5.93 3.26 8.267 6.423 16.367 9.49 24.3a1.003 1.003 0 0 1-.465 1.249.978.978 0 0 1-.465.111l-24.52-.11a.979.979 0 0 0-.93.63c-7.4 18.62-25.28 31.09-45.65 29.08-42.36-4.17-54.05-57.75-19.4-81.33a.992.992 0 0 0 .389-.527c.067-.216.06-.449-.019-.663-17.49-45.04-35.76-89.88-52.64-135.12-2.2-5.88-4.753-11.61-7.66-17.19Zm113.53 190.9a30.169 30.169 0 0 0-51.503-21.333 30.169 30.169 0 1 0 42.666 42.666 30.169 30.169 0 0 0 8.837-21.333Zm24.17-17.15a.983.983 0 0 0 .379.13.979.979 0 0 0 .399-.029 1.002 1.002 0 0 0 .612-.491c1.087-2.047.663-3.163-1.27-3.35a1 1 0 0 0-1.04.64c-.52 1.4-.213 2.433.92 3.1Z"/>
  <path fill="#26252E" d="M252.2 195.53a36.02 36.02 0 0 1-10.553 25.477 36.02 36.02 0 0 1-39.265 7.81 36.02 36.02 0 0 1-19.499-19.499A36.03 36.03 0 1 1 252.2 195.53Zm-42.52 5.43c12.79-2.35 25.39 1.99 34.29 11.47a1 1 0 0 0 1.63-.25c6.28-13.187 5.637-25.19-1.93-36.01-14.43-20.62-44.49-18.72-56.85 2.86-5.133 8.96-5.687 18.953-1.66 29.98.413 1.127 1.107 2.323 2.08 3.59a1.011 1.011 0 0 0 .749.392 1.002 1.002 0 0 0 .781-.322c5.88-6.333 12.85-10.237 20.91-11.71Z"/>
  <path fill="#F7F7F7" d="M209.68 200.96c-8.06 1.473-15.03 5.377-20.91 11.71a.998.998 0 0 1-1.199.209 1.011 1.011 0 0 1-.331-.279c-.973-1.267-1.667-2.463-2.08-3.59-4.027-11.027-3.473-21.02 1.66-29.98 12.36-21.58 42.42-23.48 56.85-2.86 7.567 10.82 8.21 22.823 1.93 36.01a1.007 1.007 0 0 1-.749.554.994.994 0 0 1-.881-.304c-8.9-9.48-21.5-13.82-34.29-11.47Zm18.84-18.69a12.351 12.351 0 1 0-24.702 0 12.351 12.351 0 0 0 24.702 0Z"/>
  <path fill="#26252E" d="M216.17 194.62c6.821 0 12.35-5.529 12.35-12.35s-5.529-12.35-12.35-12.35-12.35 5.529-12.35 12.35 5.529 12.35 12.35 12.35Z"/>
  <path fill="#F7F7F7" d="M277.79 250.5a.841.841 0 0 1-.03.46.651.651 0 0 1-.56.42c-4.02.27-8.36-.4-11.89-.34-25.26.38-50.71.26-80.39.04-11.49-.09-26.27.64-39.43.29-33.2-.86-66.55-.13-99.77-.1-22.36.02-17.71 26.13-17.43 40.08a1.011 1.011 0 0 1-.71.98l-1.65.5a185.05 185.05 0 0 1-1.41-24.07c.12-17.31 6.36-21.83 22.79-21.97 76.69-.62 146.47.08 219.62-.04 3.647-.007 7.267 1.243 10.86 3.75Z"/>
  <path fill="#DEA6FF" d="m277.79 250.5 1.71 1.71c-1.95-.07-3.66.77-5.44.73-31.02-.7-62.16.15-93.2.05-8.6-.03-20.77-.68-31.18-.43-34.61.82-69.25.44-103.86.15-6.58-.06-11.5 1.83-14.32 7.65-.967 1.98-1.45 5.033-1.45 9.16-.007 9.313.103 18.65.33 28.01l-4.45-4.7 1.65-.5a1.011 1.011 0 0 0 .71-.98c-.28-13.95-4.93-40.06 17.43-40.08 33.22-.03 66.57-.76 99.77.1 13.16.35 27.94-.38 39.43-.29 29.68.22 55.13.34 80.39-.04 3.53-.06 7.87.61 11.89.34a.659.659 0 0 0 .56-.42.841.841 0 0 0 .03-.46Z"/>
  <path fill="#F7F7F7" d="M279.5 252.21c2.8 2.18 4.203 4.88 4.21 8.1.027 8.033.04 16.077.04 24.13-.01 10.41-5.18 17.19-16.5 17.12-54.17-.32-108.33.17-162.5-.18-22.18-.14-44.33.31-66.52-.16-1.787-.04-3.23-.32-4.33-.84-1.533-.727-2.707-1.677-3.52-2.85a1123.42 1123.42 0 0 1-.33-28.01c0-4.127.483-7.18 1.45-9.16 2.82-5.82 7.74-7.71 14.32-7.65 34.61.29 69.25.67 103.86-.15 10.41-.25 22.58.4 31.18.43 31.04.1 62.18-.75 93.2-.05 1.78.04 3.49-.8 5.44-.73ZM123.13 279.8c.127-1.433.693-1.637 1.7-.61 1.88 1.9 3.553 3.577 5.02 5.03.58.57 2.34 1.54 2.32.05a.963.963 0 0 0-.27-.67l-5.16-5.44c-1.007-1.067-.777-1.63.69-1.69 2.44-.1 5.07-.383 7.89-.85 1.96-.33 1.07-1.57-.36-1.65-2.467-.14-4.963-.37-7.49-.69-1.36-.173-1.553-.74-.58-1.7l5.44-5.37a.997.997 0 0 0 .27-.51c.84-4.14-7.71 4.98-8.04 5.34-1.14 1.267-1.72 1.047-1.74-.66l-.1-8.62a.829.829 0 0 0-.43-.7c-2.21-1.17-1.12 8.49-1.03 9.36.18 1.753-.377 2.033-1.67.84l-6.19-5.73a.975.975 0 0 0-.69-.26c-1.267.02-1.337.527-.21 1.52a54.285 54.285 0 0 1 4.95 4.95 1.023 1.023 0 0 1 .25.754.994.994 0 0 1-.37.696c-.473.367-.92.55-1.34.55-.23 0-10.74-.69-7.46 1.78.169.13.373.2.58.2 1.87.04 7.41-.63 8.39 1.07.104.189.147.405.121.617a.988.988 0 0 1-.261.563l-5.62 5.98a.626.626 0 0 0-.173.419.644.644 0 0 0 .153.431c1.13 1.35 6.41-4.81 7.64-6.12 1.113-1.173 1.69-.953 1.73.66l.22 9.02a.824.824 0 0 0 .47.7c1.03.48 1.29-.96 1.25-1.73a50.366 50.366 0 0 1 .1-7.53Zm130 .2c.127-1.413.693-1.62 1.7-.62l5.31 5.26a1.032 1.032 0 0 0 .76.29c2.72-.15-4.46-6.41-4.85-6.81a.977.977 0 0 1-.253-.955 1 1 0 0 1 .703-.705c2.433-.667 4.903-.9 7.41-.7.82.07 2.49-.43 1.47-1.48a1.003 1.003 0 0 0-.77-.31 28.688 28.688 0 0 1-7.85-.68c-1.173-.267-1.337-.827-.49-1.68l5.16-5.23a.999.999 0 0 0 .256-.438.96.96 0 0 0 .004-.502c-.16-.66-.627-.617-1.4.13a393.098 393.098 0 0 1-5.85 5.5c-1.113 1.027-1.67.783-1.67-.73l-.03-8.49a.804.804 0 0 0-.181-.504.804.804 0 0 0-.459-.276c-.647-.127-.977.27-.99 1.19-.053 3.08-.093 5.847-.12 8.3-.02 1.54-.583 1.78-1.69.72-.68-.65-7.11-7.33-7.64-5.91a.796.796 0 0 0 .17.83l5.49 5.76c.92.967.717 1.527-.61 1.68-1.07.13-10.15-.65-8.58 1.69a.987.987 0 0 0 .79.44c.65.02 9.51-.58 9.7-.04a.63.63 0 0 1 .018.339.631.631 0 0 1-.158.301l-7.04 7.69a.52.52 0 0 0-.07.59c.41.74 1.4.3 1.92-.18a151.68 151.68 0 0 0 6.15-6.05c1.127-1.173 1.7-.947 1.72.68l.1 8.96a.822.822 0 0 0 .42.69c.95.52 1.37-.91 1.33-1.64a50.52 50.52 0 0 1 .12-7.11Zm-197.9-8.38c-.4-.047-.75-.23-1.05-.55-.47-.47-6.51-7.52-6.94-5.7a.822.822 0 0 0 .19.72l7.55 8.32c.173.189.267.437.263.692a.985.985 0 0 1-.283.678l-7.77 7.93a.659.659 0 0 0-.18.507.637.637 0 0 0 .26.463l.29.21c.079.055.175.08.272.071a.425.425 0 0 0 .258-.121l7.77-7.63a.986.986 0 0 1 .93-.26c1.893.44 1.927 1.073.1 1.9a.98.98 0 0 0-.427.376 1.016 1.016 0 0 0-.153.554l.09 8.3a.65.65 0 0 0 .57.63c1.92.22 1.33-7.76 1.37-9.07.04-1.473.6-1.707 1.68-.7a95.909 95.909 0 0 1 5.42 5.5c1.21 1.33 2.13.07 1-1.09a323.225 323.225 0 0 0-7.57-7.54 1.003 1.003 0 0 1-.234-1.092 1 1 0 0 1 .214-.328l8.18-8.34a.4.4 0 0 0 0-.57l-.21-.21a.807.807 0 0 0-.56-.236.782.782 0 0 0-.56.226l-5.4 5.3c-1.627 1.593-2.367 1.223-2.22-1.11.05-.73 1.09-9.76-1.4-7.95a.998.998 0 0 0-.42.82l.1 8.3a1.009 1.009 0 0 1-.338.762.985.985 0 0 1-.792.238Z"/>
  <path fill="#DEA6FF" d="M158.94 308.51c-2.65-.01-29.77-.21-29.68-.78a.21.21 0 0 1 .21-.19c6.5.08 16.863.01 31.09-.21 19.687-.3 56.083-.26 109.19.12 10.43.08 19.55-6.27 19.43-17.52-.1-9.77 1.05-21.75-2.1-30.83-.2-.567-.073-.723.38-.47.167.09.295.236.36.41 3.57 9.3 3.36 26.07 2.07 33.63-2.92 17.17-19.16 15.52-32.19 15.63-32.92.293-65.84.363-98.76.21ZM123.13 279.8a50.366 50.366 0 0 0-.1 7.53c.04.77-.22 2.21-1.25 1.73a.817.817 0 0 1-.47-.7l-.22-9.02c-.04-1.613-.617-1.833-1.73-.66-1.23 1.31-6.51 7.47-7.64 6.12a.644.644 0 0 1-.153-.431.621.621 0 0 1 .173-.419l5.62-5.98a.988.988 0 0 0 .261-.563 1.03 1.03 0 0 0-.121-.617c-.98-1.7-6.52-1.03-8.39-1.07a.95.95 0 0 1-.58-.2c-3.28-2.47 7.23-1.78 7.46-1.78.42 0 .867-.183 1.34-.55a.995.995 0 0 0 .322-1.098 1.023 1.023 0 0 0-.202-.352 54.285 54.285 0 0 0-4.95-4.95c-1.127-.993-1.057-1.5.21-1.52a.975.975 0 0 1 .69.26l6.19 5.73c1.293 1.193 1.85.913 1.67-.84-.09-.87-1.18-10.53 1.03-9.36a.829.829 0 0 1 .43.7l.1 8.62c.02 1.707.6 1.927 1.74.66.33-.36 8.88-9.48 8.04-5.34a.997.997 0 0 1-.27.51l-5.44 5.37c-.973.96-.78 1.527.58 1.7 2.527.32 5.023.55 7.49.69 1.43.08 2.32 1.32.36 1.65-2.82.467-5.45.75-7.89.85-1.467.06-1.697.623-.69 1.69l5.16 5.44c.173.179.27.419.27.67.02 1.49-1.74.52-2.32-.05a715.316 715.316 0 0 1-5.02-5.03c-1.007-1.027-1.573-.823-1.7.61Z"/>
  <path fill="#DEA6FF" d="M253.13 280a50.52 50.52 0 0 0-.12 7.11c.04.73-.38 2.16-1.33 1.64a.822.822 0 0 1-.42-.69l-.1-8.96c-.02-1.627-.593-1.853-1.72-.68a151.68 151.68 0 0 1-6.15 6.05c-.52.48-1.51.92-1.92.18a.517.517 0 0 1 .07-.59l7.04-7.69a.631.631 0 0 0 .158-.301.63.63 0 0 0-.018-.339c-.19-.54-9.05.06-9.7.04a.997.997 0 0 1-.79-.44c-1.57-2.34 7.51-1.56 8.58-1.69 1.327-.153 1.53-.713.61-1.68l-5.49-5.76a.796.796 0 0 1-.17-.83c.53-1.42 6.96 5.26 7.64 5.91 1.107 1.06 1.67.82 1.69-.72.027-2.453.067-5.22.12-8.3.013-.92.343-1.317.99-1.19.18.037.342.134.459.276.116.142.18.32.181.504l.03 8.49c0 1.513.557 1.757 1.67.73a393.098 393.098 0 0 0 5.85-5.5c.773-.747 1.24-.79 1.4-.13a.96.96 0 0 1-.004.502.999.999 0 0 1-.256.438l-5.16 5.23c-.847.853-.683 1.413.49 1.68 2.573.587 5.19.813 7.85.68a.982.982 0 0 1 .77.31c1.02 1.05-.65 1.55-1.47 1.48-2.507-.2-4.977.033-7.41.7a1.01 1.01 0 0 0-.703.705.977.977 0 0 0 .253.955c.39.4 7.57 6.66 4.85 6.81a1.022 1.022 0 0 1-.76-.29l-5.31-5.26c-1.007-1-1.573-.793-1.7.62ZM191.182 280a50.52 50.52 0 0 0-.12 7.11c.04.73-.38 2.16-1.33 1.64a.807.807 0 0 1-.42-.69l-.1-8.96c-.02-1.627-.593-1.853-1.72-.68a151.68 151.68 0 0 1-6.15 6.05c-.52.48-1.51.92-1.92.18a.52.52 0 0 1 .07-.59l7.04-7.69a.64.64 0 0 0 .14-.64c-.19-.54-9.05.06-9.7.04a.993.993 0 0 1-.79-.44c-1.57-2.34 7.51-1.56 8.58-1.69 1.327-.153 1.53-.713.61-1.68l-5.49-5.76a.79.79 0 0 1-.17-.83c.53-1.42 6.96 5.26 7.64 5.91 1.107 1.06 1.67.82 1.69-.72.027-2.453.067-5.22.12-8.3.013-.92.343-1.317.99-1.19a.798.798 0 0 1 .64.78l.03 8.49c0 1.513.557 1.757 1.67.73a393.098 393.098 0 0 0 5.85-5.5c.773-.747 1.24-.79 1.4-.13a.971.971 0 0 1-.26.94l-5.16 5.23c-.847.853-.683 1.413.49 1.68 2.573.587 5.19.813 7.85.68a1.006 1.006 0 0 1 .77.31c1.02 1.05-.65 1.55-1.47 1.48-2.507-.2-4.977.033-7.41.7a1.013 1.013 0 0 0-.704.705.988.988 0 0 0 .254.955c.39.4 7.57 6.66 4.85 6.81a1.02 1.02 0 0 1-.76-.29l-5.31-5.26c-1.007-1-1.573-.793-1.7.62ZM56.36 270.62l-.1-8.3a1.014 1.014 0 0 1 .42-.82c2.49-1.81 1.45 7.22 1.4 7.95-.147 2.333.593 2.703 2.22 1.11l5.4-5.3a.787.787 0 0 1 .56-.226c.21.002.41.087.56.236l.21.21a.4.4 0 0 1 0 .57l-8.18 8.34a.994.994 0 0 0-.286.714 1 1 0 0 0 .306.706c2.54 2.447 5.063 4.96 7.57 7.54 1.13 1.16.21 2.42-1 1.09a95.909 95.909 0 0 0-5.42-5.5c-1.08-1.007-1.64-.773-1.68.7-.04 1.31.55 9.29-1.37 9.07a.648.648 0 0 1-.57-.63l-.09-8.3c-.003-.196.05-.389.153-.554a.986.986 0 0 1 .427-.376c1.827-.827 1.793-1.46-.1-1.9a.986.986 0 0 0-.93.26l-7.77 7.63a.425.425 0 0 1-.258.121.408.408 0 0 1-.272-.071l-.29-.21a.638.638 0 0 1-.225-.735.654.654 0 0 1 .145-.235l7.77-7.93a.985.985 0 0 0 .283-.678 1.005 1.005 0 0 0-.263-.692l-7.55-8.32a.812.812 0 0 1-.19-.72c.43-1.82 6.47 5.23 6.94 5.7.3.32.65.503 1.05.55a.986.986 0 0 0 1.043-.582c.059-.131.088-.274.087-.418ZM393.38 266.13c-6.87 7.24-9.64-4.01-3.34-4.62.15-.013.301.007.44.057.14.05.266.129.37.233l2.62 2.65a1 1 0 0 0 .8.29 64.984 64.984 0 0 1 12.83.19 1.004 1.004 0 0 1 .82.63c6.12 15.833 9.92 25.54 11.4 29.12.867 2.093 2.453 3.753 4.76 4.98a1.013 1.013 0 0 1 .53.83c.167 3.14-1.43 4.47-4.79 3.99a1.002 1.002 0 0 1-.58-.3c-1.66-1.747-1.703-3.54-.13-5.38a1.006 1.006 0 0 0 .17-1.02l-12.3-31.41a1.01 1.01 0 0 0-.94-.64l-11.94.09a1.029 1.029 0 0 0-.72.31Zm-3.974 1.046c.465.085.949-.051 1.348-.377.399-.326.678-.815.777-1.361a2.284 2.284 0 0 0-.249-1.547c-.258-.445-.664-.743-1.128-.827-.465-.085-.95.051-1.348.377a2.283 2.283 0 0 0-.777 1.361c-.1.545-.01 1.102.248 1.547.259.445.665.743 1.129.827Zm33.824 34.204a1.98 1.98 0 1 0-3.962.001 1.98 1.98 0 0 0 3.962-.001Z"/>
  <path fill="#F7F7F7" d="M388.029 264.802c-.207 1.135.41 2.199 1.377 2.374.968.176 1.919-.602 2.125-1.738.207-1.135-.41-2.199-1.377-2.374-.968-.176-1.919.602-2.125 1.738Z"/>
  <path fill="#DEA6FF" d="M444.36 308.92c5.57.33 11.18-.1 16.64.36a.996.996 0 0 1 .84.62l11.54 28.34c.079.177.203.329.36.44l4.98 3.51a1 1 0 0 1 .21 1.44l-2.31 2.92a1.03 1.03 0 0 1-.401.307.98.98 0 0 1-.489.073c-4.513-.473-5.66-2.613-3.44-6.42a.993.993 0 0 0 .07-.88l-11.49-28.65a1.012 1.012 0 0 0-.98-.63c-3.873.18-7.747.22-11.62.12-2.81-.08-4.86.78-6.2-2.49-3.5-8.593-7.03-17.167-10.59-25.72-.193-.453-.37-1.19-.53-2.21a1.002 1.002 0 0 0-.73-.82c-9.85-2.63.7-11.77 2.64-3.82a.948.948 0 0 1-.04.6c-.78 1.993-.77 3.963.03 5.91 3.66 8.853 7.207 17.64 10.64 26.36.071.179.191.335.345.448.154.113.336.18.525.192Zm-16.6-32.23c2.053 1.553 3.337 1.133 3.85-1.26a1.005 1.005 0 0 0-.31-.97c-1.687-1.487-2.977-1.137-3.87 1.05a1.015 1.015 0 0 0 .33 1.18Zm46.2 64.61c-4.21 5.71 6.63 5.36 1.54-.09a.996.996 0 0 0-.787-.315 1.004 1.004 0 0 0-.753.405Z"/>
  <path fill="#F7F7F7" d="M427.76 276.69a1.012 1.012 0 0 1-.33-1.18c.893-2.187 2.183-2.537 3.87-1.05a1.005 1.005 0 0 1 .31.97c-.513 2.393-1.797 2.813-3.85 1.26ZM421.25 303.36a1.98 1.98 0 1 0 .001-3.959 1.98 1.98 0 0 0-.001 3.959Z"/>
  <path fill="#DEA6FF" d="M51.94 308.39c-.63.01-18.41-1.51-15.07-3.4a.98.98 0 0 1 .437-.124c.155-.007.31.022.453.084 7.81 3.34 16.88 2.3 25.09 2.43 17.39.28 35.21-.59 51.89-.11.387.013.737.113 1.05.3 1.073.647.983.963-.27.95-21.2-.2-42.393-.243-63.58-.13Z"/>
  <path fill="#F7F7F7" d="M394.9 378.07c16.662 0 30.17-13.508 30.17-30.17 0-16.662-13.508-30.17-30.17-30.17-16.662 0-30.17 13.508-30.17 30.17 0 16.662 13.508 30.17 30.17 30.17ZM449.24 330.75c-1.133-.667-1.44-1.7-.92-3.1a.998.998 0 0 1 1.04-.64c1.933.187 2.357 1.303 1.27 3.35a1.002 1.002 0 0 1-1.39.39ZM475.5 341.21c5.09 5.45-5.75 5.8-1.54.09a1.026 1.026 0 0 1 .753-.405.999.999 0 0 1 .787.315Z"/>
</svg>