<svg xmlns="http://www.w3.org/2000/svg" xml:space="preserve" id="Layer_1" x="0" y="0" style="enable-background:new 0 0 595.28 841.89" version="1.1" viewBox="0 0 595.28 841.89">
  <style>
    .st0{fill:#64c4a7}.st2,.st3,.st4,.st5{fill:none;stroke:#3c6559;stroke-width:0;stroke-miterlimit:10}.st3,.st4,.st5{stroke:#4b6b5c}.st4,.st5{stroke:#456957}.st5{stroke:#356355}.st10,.st11,.st12,.st14,.st16,.st6,.st7,.st8,.st9{fill:none;stroke:#366651;stroke-width:0;stroke-miterlimit:10}.st10,.st11,.st12,.st14,.st16,.st7,.st8,.st9{stroke:#160805}.st10,.st11,.st12,.st14,.st16,.st8,.st9{stroke:#26604f}.st10,.st11,.st12,.st14,.st16,.st9{stroke:#8b2f27}.st10,.st11,.st12,.st14,.st16{stroke:#928683}.st11,.st12,.st14,.st16{stroke:#7f6b69}.st12,.st14,.st16{stroke:#838181}.st14,.st16{stroke:#ece4e5}.st16{stroke:#587071}.st17,.st18,.st19,.st20,.st21,.st22,.st23,.st24{fill:none;stroke:#65757a;stroke-width:0;stroke-miterlimit:10}.st18,.st19,.st20,.st21,.st22,.st23,.st24{stroke:#97d8e4}.st19,.st20,.st21,.st22,.st23,.st24{stroke:#557078}.st20,.st21,.st22,.st23,.st24{stroke:#486b6e}.st21,.st22,.st23,.st24{stroke:#905c21}.st22,.st23,.st24{stroke:#81561f}.st23,.st24{stroke:#8e5020}.st24{stroke:#f99e3a}.st26{fill:#060202}.st27{fill:#71c8b0}.st28{fill:#250d07}.st29{fill:#fff}.st30{fill:#a4dded}.st31{fill:#d8c9cb}.st32{fill:#8ad3da}.st33{fill:#f05046}.st34{fill:#fbaa3b}.st35{fill:#f79239}
  </style>
  <circle cx="306.88" cy="315.72" r="184.62" class="st0"/>
  <circle cx="305.72" cy="315.24" r="139.15" style="fill:#46be9b"/>
  <path d="M112.93 345.51c-1.91-2.78-5.25-3.62-8.12-1.8-5.69 3.6-1.22 12.52 5.15 10.16 1.61-.6 2.78-1.8 3.51-3.6" class="st2"/>
  <path d="m121.08 381.15-12.36 40.75c-.06.18-.18.28-.35.32-.99.21-1.66.3-1.99.24-4.6-.67-7.07 2.73-7.21 6.98" class="st3"/>
  <path d="M99.16 429.44c-.38 2.24-.39 4.55-.02 6.91.03.21-.06.31-.27.31-6.58-.09-13.16.12-19.72.63-1.28.1-1.67.48-1.16 1.16.07.1.19.16.31.18 7.82.89 15.48 1.42 22.99 1.59" class="st2"/>
  <path d="M101.27 440.22c17.3.57 34.61.75 51.96.52M446.49 454.05c9.88-2.28 21.76-6.9 28.95-14.45.13-.14.28-.22.47-.24l.3-.05" class="st3"/>
  <path d="M476.21 439.32c7.86-.07 15.7-.43 23.53-1.05 1.13-.09 2.17-.28 3.11-.57.41-.13.38-.73-.06-.8-7.95-1.16-15.89-1.05-23.89-1.19" class="st2"/>
  <path d="m478.91 435.72-.72-.06c-.19-.02-.25-.12-.18-.3 2.58-5.92.39-9.89-2.64-15.65" class="st3"/>
  <path d="M475.37 419.72c-5.12-7.6-11.04-14.48-15.67-22.3-.1-.16-.14-.34-.14-.53.09-2.57.49-5.38.47-7.67-.06-6.53-1.01-12.9-2.86-19.13" class="st4"/>
  <path d="M457.16 370.08c-1.56-6.08-3.97-11.74-7.2-16.97-.65-1.04-1.68-1.68-2.31-2.86" class="st5"/>
  <path d="M447.64 350.25c-2.27-3.81-4.72-7.27-7.35-10.38M435.45 280.86c0-11.2-.09-22.39-.27-33.59-.02-1.11-.18-2.47-.47-4.06-1.29-6.92 3-16.5-8.21-16.42-7.73.06-15.54-.68-23.3-.91M211.18 225.99c-5.73.13-11.46.15-17.18.05-8.83-.15-15.23 1.52-14.83 12.07.29 7.59-.47 15.26-.36 22.87.01.22-.23.36-.41.24-5.93-3.58-12.42-2.83-17.42 1.81-2.06 1.9-3.5 4.07-4.33 6.49-12.7 36.9-23.92 74.38-35.56 111.63" class="st4"/>
  <path d="M113.46 350.27c.39-1.8.22-3.39-.53-4.76" class="st5"/>
  <path d="m435.45 280.86.01 53.78c0 .19.07.35.2.49l4.64 4.74" class="st6"/>
  <path d="M447.64 350.25c-.89.64-1.02 1.42-.37 2.35.12.18.29.26.5.24 1.24-.06 1.87.53 1.89 1.8.01.19.1.33.28.41.73.31 1.06.88.98 1.71-.02.19.05.34.19.46.42.35.69.64.8.89 1.87 4.02 3.39 8.09 4.56 12.23.09.3.45.4.68.2.07-.06.08-.22.02-.45m21.74 65.63c-.14.13-.19.28-.15.45.03.19.2.32.39.32 3.1.02 6.21.09 9.32.21.15.01.29.11.34.26.14.51.01.96-.4 1.36-.13.13-.31.2-.49.2l-11.39.03c-.32 0-.59.21-.64.49-.02.07.09.16.32.26" class="st7"/>
  <path d="M446.49 454.05c-6.28 1.43-12.66 2.01-19.16 1.75-1.05-.04-2.06.4-3.36.27-15.63-1.62-33.75-7.92-48.94-14.73-2.51-1.12-6.99-.52-9.75-.43" class="st4"/>
  <path d="m365.29 440.9-40.06-.5" class="st6"/>
  <path d="m325.23 440.4 1.58-.19c.16-.02.27-.16.26-.32-.01-.15-.14-.28-.3-.28-17.45.06-34.77.1-51.96.12-1.33 0-1.76.21-1.3.63" class="st7"/>
  <path d="M273.52 440.37c-.65.19-1.36.2-2.12.05" class="st6"/>
  <path d="M271.4 440.42c.31-.02.52-.08.62-.18.19-.18.07-.5-.19-.5l-29.43-.02c-.32 0-.52.36-.34.63l.09.14" class="st7"/>
  <path d="M242.15 440.49c-1.99.37-3.94.39-5.84.08-1.41-.23-2.56-.34-3.42-.3-26.42 1.23-53.2.55-79.66.46" class="st4"/>
  <path d="M101.27 440.22c-.81-1.11-2.08-.19-2.87-1.18-.12-.16-.29-.24-.49-.23l-7.85.17c-.24.01-.44-.18-.46-.41-.09-1.09 8.44-1.23 9.36-1.26.51-.02.9-.46.85-.97-.2-2.11-.21-4.32-.01-6.64.02-.28-.19-.36-.65-.25" class="st7"/>
  <path d="M403.19 225.88c-16.48-.34-32.98-.35-49.49-.05-.18.01-.37-.02-.55-.07-.26-.07-.66-.11-1.23-.11-65.09-.01-112.01.11-140.75.33" class="st6"/>
  <path d="m271.4 440.42-24.45.11" class="st8"/>
  <path d="m246.95 440.53-4.8-.04" class="st5"/>
  <path d="m325.23 440.4-51.71-.03" class="st8"/>
  <path d="M171.26 165.89c0-3.18-2.57-5.75-5.75-5.75s-5.75 2.57-5.75 5.75 2.57 5.75 5.75 5.75 5.75-2.57 5.75-5.75" class="st2"/>
  <path d="M119.16 219.21c-2.47.03-4.93.03-7.39.01-.5-.01-.8.24-.7.76.03.21.22.36.43.36l7.67.03c.17 0 .31.14.3.3-.01 1.22-.34 7.46.34 8.04.3.26.76.05.76-.35l.02-7.75c0-.22.11-.33.34-.32 2.56.09 5.11.11 7.67.05.27-.01.39-.14.37-.4l-.02-.43c-.01-.16-.14-.28-.3-.28h-7.78c-.19 0-.28-.1-.28-.28v-7.76c0-.22-.11-.34-.34-.34h-.44c-.2 0-.36.16-.36.36v7.73c-.01.17-.1.26-.29.27" class="st3"/>
  <path d="M65.88 438.36c2.51 1.47 5.6.7 8.25.21.55-.1.94-.59.92-1.15-.02-.61-.34-.92-.97-.93-2.49-.05-5.2-.05-8.11-.01-.19 0-.38.09-.51.24-.51.63-.37 1.18.42 1.64m439.67-.23c1.8.71 3.64.7 5.52-.05.65-.26.45-1.22-.24-1.2l-5.07.08c-.66.01-.82.92-.21 1.17" class="st2"/>
  <path d="M383.44 167c-.11-.01-.21-.1-.22-.22l-.38-8.02c-.01-.12-.11-.22-.23-.22s-.22.1-.23.22l-.38 8.02c-.01.11-.1.21-.22.22l-8.02.38c-.12.01-.22.11-.22.23 0 .12.1.22.22.23l8.02.38c.11.01.21.1.22.22l.38 8.02c.01.12.11.22.23.22s.22-.1.23-.22l.38-8.02c.01-.11.1-.21.22-.22l8.02-.38c.12-.01.22-.11.22-.23 0-.12-.1-.22-.22-.23l-8.02-.38m-134.06-1.65c0-.22-.18-.4-.4-.4l-4.25-.01c-.22 0-.4.18-.4.4v.07c0 .22.18.4.4.4l4.25.01c.22 0 .4-.18.4-.4v-.07m7.14.24c13.38.73 27.09.23 40.5.24.17 0 .28-.08.35-.24.2-.57-.03-.73-.59-.74-13.09-.09-26.18-.04-39.28.14-.35.01-1.04-.24-1.16.36-.03.12.06.23.18.24m-36.53 30.49c-.01-2.65 0-5.29.01-7.94 0-.26-.26-.43-.49-.32l-.27.12c-.16.07-.24.2-.24.37v7.75c0 .19-.1.28-.28.28h-7.81c-.19 0-.28.1-.28.28v.35c0 .24.12.36.36.36h7.74c.19 0 .28.1.28.28v7.76c0 .22.11.34.34.34h.3c.24 0 .36-.12.36-.36v-7.82c0-.15.07-.22.22-.22l7.8.03c.2 0 .36-.16.36-.36v-.45c0-.11-.09-.2-.2-.2l-7.89.02c-.21.02-.31-.08-.31-.27m216.16 8.86c0-3.16-2.56-5.72-5.72-5.72-3.16 0-5.72 2.56-5.72 5.72 0 3.16 2.56 5.72 5.72 5.72 3.16 0 5.72-2.56 5.72-5.72m39.91 46.08c-.09.08-.23.08-.31 0l-5.99-5.43c-.09-.08-.23-.08-.32.01s-.09.23-.01.32l5.4 6c.08.09.08.23 0 .31l-5.43 5.99c-.08.09-.08.23.01.32s.23.09.32.01l6-5.4c.09-.08.23-.08.31 0l5.99 5.43c.09.08.23.08.32-.01s.09-.23.01-.32l-5.4-6c-.08-.09-.08-.23 0-.31l5.43-5.99c.08-.09.08-.23-.01-.32s-.23-.09-.32-.01l-6 5.4" class="st5"/>
  <path d="M150.29 262.82c0-3.47-2.82-6.29-6.29-6.29s-6.29 2.82-6.29 6.29 2.82 6.29 6.29 6.29 6.29-2.82 6.29-6.29" class="st4"/>
  <path d="M485.83 318.79c0-3.16-2.57-5.73-5.73-5.73-3.16 0-5.73 2.57-5.73 5.73s2.57 5.73 5.73 5.73c3.16 0 5.73-2.57 5.73-5.73" class="st5"/>
  <path d="m477.11 371.93 7.47.03c.27.01.44-.12.53-.37.07-.2.05-.34-.07-.43-.26-.18-.41-.27-.46-.27l-7.49.03c-.21.01-.32-.1-.32-.31v-7.64c0-.24-.12-.37-.35-.41l-.4-.05c-.2-.03-.39.13-.39.34v7.77c0 .19-.1.28-.28.28h-7.64c-.55 0-.7.76-.19.97 1.49.61 6.03.15 7.89.2.2.01.3.11.29.31-.09 3.38-.1 5.92-.04 7.62.02.4.31.53.87.39.14-.03.24-.16.24-.31v-7.81c0-.23.11-.34.34-.34" class="st4"/>
  <path d="M170.2 165.9c0-2.58-2.09-4.68-4.68-4.68-2.58 0-4.68 2.09-4.68 4.68 0 2.58 2.09 4.68 4.68 4.68 2.59-.01 4.68-2.1 4.68-4.68" class="st2"/>
  <path d="M319.77 205.36c0-.22-.18-.4-.4-.41l-4.23-.03c-.22 0-.41.18-.41.4v.16c0 .22.18.4.4.41l4.23.03c.22 0 .41-.18.41-.4v-.16m24.6.05c0-.21-.18-.39-.39-.39l-16.57-.03c-.22 0-.39.17-.39.39v.1c0 .21.18.39.39.39l16.57.03c.22 0 .39-.17.39-.39v-.1" class="st8"/>
  <path d="M435.12 204.9c0-2.58-2.09-4.68-4.68-4.68s-4.68 2.09-4.68 4.68c0 2.58 2.09 4.68 4.68 4.68s4.68-2.09 4.68-4.68" class="st5"/>
  <path d="M181.98 381.45c-1.07-.12-1.59-.56-1.52-1.31.01-.15-.11-.28-.27-.28h-.36c-.2 0-.32.1-.37.29l-.18.7" class="st7"/>
  <path d="M179.27 380.84c.02-1.77.09-3.54.2-5.31.27-4.23-.21-8.41-.16-12.72 0-.18-.2-.29-.35-.19l-14.16 9.07" class="st9"/>
  <path d="m164.8 371.69-.07-.52c-.03-.27-.18-.36-.43-.28l-.3.1c-.24.07-.28.02-.1-.16.54-.56.43-.93-.32-1.11" class="st7"/>
  <path d="m163.59 369.7 15.19-9.49c.23-.14.37-.4.36-.67l-.38-38.63c0-.23-.09-.27-.27-.14-11.9 8.97-24.31 17.16-37.24 24.56-1.41.81-2.56 1.85-4.04.73" class="st10"/>
  <path d="M137.19 346.07c.07-.8.47-1.47 1.22-1.87 13.83-7.49 27.12-16.05 39.86-25.68.26-.2.41-.51.41-.83l-.03-33.56c0-.21-.25-.33-.41-.19-9.02 7.87-18.71 14.82-29.08 20.82-.18.1-.3.25-.35.44-4.16 13.4-8.33 26.78-12.5 40.13-.09.28-.02.57.19.88" class="st9"/>
  <path d="m136.5 346.2-.49.53c-.14.14-.23.31-.3.5l-13.43 43.02c-.05.15.1.3.25.24l.44-.17" class="st10"/>
  <path d="M122.98 390.31c2.03.09 4.11-.56 6.24-1.95.14-.09.31-.06.42.05.11.12.11.3.02.42-.74.95-2.01 1.39-3 2.09-.15.11-.22.26-.19.45.03.24.16.36.38.34" class="st7"/>
  <path d="m126.84 391.72-5.49 2.42c-.2.09-.33.23-.39.44l-8.74 27.19c-.06.2.01.3.22.3 10.9-.11 21.81-.16 32.73-.18 1.87-.01 3.21-1.06 4.85-1.76" class="st9"/>
  <path d="M150.02 420.12c1.21 1.19 2.56-1.18 4.38-.83.19.04.23.14.12.3-.31.46-.49.96-.53 1.49" class="st7"/>
  <path d="m153.99 421.08-.69.53c-.18.14-.16.21.07.2l31.46-.23" class="st10"/>
  <path d="m184.84 421.58 43.44.01c.19 0 .25-.09.19-.26l-7.12-21.46c-.06-.19-.19-.28-.39-.28h-2.39c-.2 0-.37.06-.52.19-.85.74-5.02 5.02-5.97 3.35-.19-.33-.12-.74.17-.99l2.71-2.34c.14-.12.11-.18-.07-.18-7.89-.03-15.83.19-23.7-.34-.18-.01-.35.03-.5.14l-5.47 3.72" class="st11"/>
  <path d="m185.22 403.14-3.84 2.41" class="st10"/>
  <path d="M181.38 405.55c.2-.73-1.21-.28-1.53-.1-3.02 1.76-6.02 3.54-9 5.36-.15.1-.2.06-.13-.11.34-.84 7.18-4.63 8.55-5.52.34-.22.2-.74-.2-.76l-.4-.01" class="st7"/>
  <path d="m178.66 404.4 7.91-5.07c.17-.11.07-.37-.12-.35-2.9.36-5.17-.49-6.95-3.02" class="st9"/>
  <path d="M179.5 395.97c.7.26.99-.06.89-.95-.07-.61.69-.94 1.08-.47.14.16.48.19 1.02.07" class="st7"/>
  <path d="M182.48 394.61c.37.74 1.05 1.07 2.01 1.01 4.38-.29 8.79-.55 13.21-.8.31-.02.34-.11.09-.3l-1.53-1.12" class="st10"/>
  <path d="M196.25 393.41c.36-.14.58-.41.65-.81.08-.48.68-.64.99-.26.66.82 1.49 1.1 2.48.84" class="st7"/>
  <path d="m200.37 393.17.15 1.41c.02.15.1.25.25.29.86.22 1.48.48 2.39.47 40.67-.06 81.45-.07 122.01.03.68 0 1.2-.61 1.09-1.29-1.16-7-.31-14.36 4.57-19.8.12-.14.1-.2-.09-.2-39.82-.16-79.65-.23-119.47-.19-5.04.01-10.32-.33-15.47-.5-1.49-.05-2.55-.26-3.16-.62-2.15-1.28-1.12-4.01-1.24-5.98-.03-.55-.05-.84-.05-.85-.09-37.48-.03-74.95.15-112.43.02-3.82.24-7.61.41-11.43.1-2.15 1.27-3.27 3.51-3.37 4.99-.23 9.99-.26 14.98-.09.97.03 2.02.51 3.04.5 45.88-.19 91.75-.31 137.63-.26 23.01.02 46.02.48 69.05.43 1.92-.01 2.71 1.23 2.73 3.07.3 28.12.37 56.23.22 84.35 0 .14.06.24.18.32l7.71 4.37c.14.07.2.03.2-.12.04-24.5.06-49 .05-73.51 0-2.54.12-6.32.36-11.36.13-2.7.95-13.32-.53-15.11-.61-.74-1.47-1.11-2.58-1.11-6.18 0-12.45.2-18.61-.31-3.12-.26-7.69.15-9.52.15-23.7-.01-47.4.03-71.1.11-.11 0-.2-.02-.3-.05-.11-.04-.22-.06-.34-.06-40.53-.06-81.07.01-121.61-.15-6.29-.02-13.28 0-18.32.45-4.88.44-6.65 4.42-6.4 8.92.36 6.5.67 12.88.69 19.51.06 18.25-.02 44.57-.27 78.95-.11 15.4-.4 28.24-.89 38.53-.09 1.74.12 3.44.2 5.21" class="st10"/>
  <path d="m200.37 393.17-15.18-9.41c-.22-.14-.4-.09-.52.14l-.33.62c-.1.19-.06.35.11.48l11.81 8.41m-13.78 1.2-.5-13.16" class="st12"/>
  <path d="m179.27 380.84.23 15.12m-.84 8.44c-9.17 5.72-18.72 10.96-28.64 15.72m-23.18-28.4c13.05-5.94 25.71-12.61 37.96-20.03" style="fill:none;stroke:#7b2924;stroke-width:0;stroke-miterlimit:10"/>
  <path d="M153.99 421.08c9.37-4.74 18.5-9.92 27.39-15.53m-17.79-35.85c-12.96 7.67-26.5 14.54-40.61 20.61" class="st12"/>
  <path d="M184.84 421.58c-.63-.55-1.62-.73-2.95-.55-.27.04-.37-.07-.3-.34 1.47-5.66 2.68-11.52 3.64-17.57" class="st14"/>
  <path d="m137.19 346.07-.69.13" style="fill:none;stroke:#f8a8a3;stroke-width:0;stroke-miterlimit:10"/>
  <path d="M193.57 371.24c.43.19.71.28.85.28 3.73-.12 7.46-.18 11.19-.15 40.15.3 80.32.24 120.49.23 1.52 0 3.17-.19 4.81-.13.23.01.36-.1.4-.33 1.89-11.71 6.81-21.93 14.75-30.65.12-.13.1-.23-.06-.31-2.76-1.35-8.31-3.51-10.37-5.66-.22-.23-.61-.07-.61.24-.03 3.29.41 6.5 1.34 9.62.39 1.33.26 2.56-1.23 2.9-2.05.47-4.56.84-7.54 1.11" class="st16"/>
  <path d="M327.59 348.39c.45-.18.77-.36.94-.54.13-.14.01-.36-.18-.32-1.26.25-2.46.13-3.6-.36-.19-.08-.3-.28-.25-.48l.32-1.56" class="st7"/>
  <path d="m324.84 345.13 7.65-.8c.19-.02.27-.13.22-.32-.87-3.52-1.21-7.08-1.02-10.7.12-2.39 4.49-2.85 5.81-1.65.71.64 1.22 1.03 1.51 1.19 2.23 1.14 4.48 2.3 6.75 3.47.18.09.32.05.41-.14l5.82-11.5c.1-.2.09-.39-.06-.56l-2.18-2.75" class="st10"/>
  <path d="M349.75 321.36c-1.43-1.78-2.26-3.2-2.5-4.26-.11-.5.19-.99.68-1.12.5-.12 1.01.16 1.15.65.39 1.35.98 1.79 1.77 1.34" class="st7"/>
  <path d="m350.85 317.97 3.11 3.31" class="st17"/>
  <path d="M353.96 321.28c1.49 1.44 2.01 2.69 1.56 3.75-.95 2.25-2.78 5.99-5.5 11.21-.04.07.05.14.11.09 14.16-11.55 30.48-16.74 48.99-15.58 7.2.45 14.17 2.12 20.89 5 .16.07.35-.05.35-.23l.02-44.52" class="st16"/>
  <path d="m420.39 281.01.18-38.81c.01-.86-.43-1.28-1.29-1.24-9.27.41-19.05.06-27.58.17-52.15.65-104.92.76-177.37.26-5.85-.04-13.16-.51-19.85-.49-.43 0-.78.33-.81.76-.19 3.15-.6 6.28-.58 9.43.25 39.83.59 79.68.08 119.5-.01.19.06.34.2.47l.2.19" class="st17"/>
  <path d="M420.39 281.01c-.4-.43-.74-.53-1.02-.32-20.24 15.84-42.04 29.36-65.41 40.58" class="st18"/>
  <path d="M350.85 317.97c-1.64-1.22-1.09-2.72.39-3.76 3.27-2.29 6.74-4.2 10.43-5.73.89-.37 1.55-1.06 1.27-2.02-.56-1.96-5.35-13.88-7.89-13.82-2.59.07-6.59.43-11.99 1.06" class="st19"/>
  <path d="m343.07 293.72-4.3-5.38c-.11-.14-.13-.29-.07-.45l.14-.35" class="st17"/>
  <path d="M338.84 287.53c1.57-3.52 2.48-6.22 2.73-8.09.51-3.83-2.92-5.79-5.83-7.29-2.36-1.21-4.61-2.53-6.74-3.95-.62-.41-1.45-.33-1.97.2l-6.5 6.64" class="st19"/>
  <path d="M320.53 275.04c-.32.24-4.51-1.75-5.13-1.96" class="st17"/>
  <path d="M315.4 273.08c-2.13-.82.09-9.17-4.95-9.33-3.22-.1-6.44-.12-9.66-.07-2.33.04-3.1.66-3.66 2.84-.37 1.4-2.28 10.9-2.67 11.25-.7.61-1.6 1.19-2.71 1.73-.17.09-.35.11-.53.1-2.51-.29-4.98-.78-7.41-1.48-1.65-.47-2.92-.01-3.8 1.39-1.34 2.12-2.7 4.23-4.07 6.33-.11.16-.25.28-.43.35-6.31 2.56-10.21 4.35-11.73 5.37-2.53 1.71-1.22 4.62-.04 6.64" class="st19"/>
  <path d="m263.73 298.19.54 1.41c.07.18.06.36-.03.54l-1.55 3.2c-.09.18-.23.3-.42.35l-2.08.57" class="st17"/>
  <path d="M260.19 304.26c-2.34.8-4.68 1.6-7 2.4-3.23 1.11-1.63 4.1-.91 6.3.9 2.77 2.08 5.41 3.54 7.93 1.54 2.66 4.76 1.7 7.25 1.44.19-.02.35.05.46.21l2.11 2.99c.1.14.1.29.01.43l-2.63 4.29c-.38.62-.27 1.42.27 1.91 2.67 2.48 5.33 5.17 7.97 8.07 3.88 4.27 5.64-.22 7.27-2.85.53-.87 1.87-.59 2 .43.21 1.63 1.26 6.05 3.69 5.98 4.04-.11 8.09-.15 12.13-.1 1.07.01 1.11-.05 1.78.71" class="st19"/>
  <path d="M298.11 344.41c-1.97.18-3.27.93-4.74 1.41-30.34 9.88-61.2 17.68-92.59 23.39-1.45.27-4.06.99-6.22 1.11-.15.01-.28.07-.39.19l-.6.73" class="st18"/>
  <path d="M338.84 287.53c-.22.04-.44-.01-.69-.14-.15-.09-.21-.28-.13-.44.2-.38.26-.78.2-1.2-.03-.22-.32-.27-.43-.09-.29.5-.48 1.03-.57 1.6-.03.17-.12.29-.28.36-.29.13-.61.19-.95.18m-16.56-9.92-.1-.26c-.11-.28-.02-.39.28-.32l1.4.32c.18.04.34 0 .47-.12.87-.79 3.25-2.61 2.6-3.83-.2-.36-.69-.43-.98-.14l-1.99 2.07c-.2.22-.57.07-.59-.23l-.01-.33m-5.11-1.96c-.84.52-1.37.22-1.6-.88-.05-.22-.19-.32-.41-.31l-.81.06c-.26.02-.43.27-.36.52l.53 1.85c.04.14.12.24.26.3l4.12 1.76c.19.09.24.22.14.4l-.15.27" class="st7"/>
  <path d="m317.11 277.04-4.7-1.76c-.21-.08-.35-.23-.4-.45l-1.73-7.46c-.04-.18-.15-.27-.34-.27l-9.17-.02c-.2 0-.33.1-.38.3-.95 3.52-1.75 7.07-2.4 10.66-.18.97-1.6 1.7-2.22 2.36-1.3 1.37-2.92 2.64-4.97 2.35-2.54-.36-5.09-.79-7.65-1.28-.19-.03-.34.03-.44.19l-6.43 9.92" class="st12"/>
  <path d="M276.28 291.55c-.49-.01-.81-.18-.47-.68.72-1.06.85-2.07.4-3.03-.28-.61-1.02-.86-1.61-.56-3.58 1.81-7.2 3.58-10.86 5.31-.18.09-.31.23-.38.41-.27.7-.29 1.39-.05 2.06.44 1.24.58 2.28.41 3.12m20.98 42.03c-.86-.35-1.33-.8-1.41-1.36-.1-.69-.92-.99-1.45-.54-.4.35-.5.74-.28 1.18.07.15.12.32.15.49.17 1.16.7 2.14 1.58 2.92.15.13.35.2.55.2l13.16-.08c.13 0 .25.03.36.1.77.45 1.61.72 2.51.81.23.02.45-.13.5-.36l.22-.93c.03-.13.1-.2.23-.2.85-.05 5.52-5.03 6.41-5.91.13-.12.28-.2.46-.24.76-.13 1.47-.02 2.11.33.16.09.35.11.52.08.56-.11 1.03.05 1.43.47.12.13.28.21.46.22 1.39.09 1.11 1.36 1.43 2.21 1.04 2.78 2.33 5.46 3.86 8.05.11.19.28.31.5.35 1.65.3 3.28.28 4.91-.05.39-.08.66-.41.68-.8.05-1.28-2.96-.77-3.91-.73-.24.01-.41-.24-.3-.46.09-.16.24-.31.47-.44" class="st7"/>
  <path d="M327.59 348.39c-2.6.24-5.23.41-7.9.49-1.53.05-2.6-.48-3.21-1.6" class="st20"/>
  <path d="M316.48 347.29c-1.64-2.75-3.01-5.64-4.11-8.66-.08-.22-.23-.37-.44-.46l-2.91-1.22c-.18-.07-.35-.06-.51.06-2.23 1.62-4.3 3.53-6.23 5.73" class="st19"/>
  <path d="m302.29 342.74-1.89 1.8c-.13.12-.3.2-.48.22-.8.07-1.4-.05-1.81-.36" class="st20"/>
  <path d="M343.07 293.72c-.2.05-.32.24-.36.59-.02.18.07.28.24.29 1.81.11 4.59-.86 5.45-.37.82.47.48 1.72-.46 1.7-.59-.01-6.15-.39-5.81.6.05.16.16.24.34.25l1.81.05m-65.93 24.32c-.05.29.02.55.18.78.06.07.13.11.23.12.06 0 .12 0 .18-.01.14-.01.22.14.15.26-.52.8-1.22 1.19-2.12 1.2-.2 0-.31-.1-.31-.31v-.99c0-.19-.09-.32-.25-.41-.28-.15-.46-.37-.53-.68-.04-.18-.13-.32-.26-.44-.67-.59-.93-1.34-.77-2.24.04-.22-.05-.39-.25-.48l-.29-.14c-.18-.09-.35-.06-.49.09l-.22.21" class="st7"/>
  <path d="M273.6 318.11c-.56-3.13-1.38-6.1-2.45-8.9-.26-.68.02-1.45.65-1.8 2.76-1.52 5.62-2.81 8.6-3.87.18-.06.26-.19.24-.38l-.19-2.3c-.01-.14-.07-.28-.16-.39-2.11-2.45-4.33-4.64-6.67-6.57" class="st17"/>
  <path d="M273.61 293.89c-.48-1.13-.52-2.08-.14-2.86.09-.18.11-.38.06-.57-.15-.6-.51-.87-1.05-.8-.18.02-.35.11-.47.24-.56.61-1.27.98-2.14 1.12-.19.03-.34.12-.44.27-.26.37-.62.48-1.1.35-.21-.06-.37.01-.49.19-.49.76-1.2 1.07-2.12.94-.79-.11-1.39.7-1.04 1.42 1.02 2.1 2.97 4.97 1.65 7.45-.74 1.4-1.46 2.9-2.16 4.48" class="st7"/>
  <path d="M264.16 306.12c-.72.8-1.76 1.32-3.14 1.57" class="st17"/>
  <path d="M261.02 307.69c.54-.62.11-.73-1.28-.33-1.31.37-2.62 0-4.08.43-.76.22-1.51 1.17-2.33.84-.41-.16-.41-.76.01-.91l6.69-2.55c.22-.09.32-.24.32-.47-.01-.24-.06-.39-.15-.44" class="st7"/>
  <path d="m302.29 342.74 9.21-3.46c.22-.08.47.03.55.25 1.02 2.75 2.28 5.39 3.78 7.91.1.16.24.22.43.16.13-.04.2-.14.22-.31" class="st18"/>
  <path d="m317.11 277.04 2.32.84" class="st10"/>
  <path d="m319.43 277.88 1.6.68c.19.09.41.04.57-.11l6.23-6.23c.25-.25.64-.3.95-.12 3.04 1.74 7.06 3.26 9.52 5.88.13.14.2.3.23.49.3 2.26-1.7 7.1-2.55 9.35" class="st12"/>
  <path d="M335.99 287.81c-.24.68-.23 1.2.05 1.56 1.73 2.28 3.29 4.68 4.69 7.21.1.18.25.27.45.26l3.1-.02" class="st10"/>
  <path d="m344.27 296.82 9.61-.73c.2-.02.36.06.48.22 1.99 2.91 3.6 6.02 4.8 9.34.06.15-.02.32-.17.38-3.15 1.32-6.1 3.01-8.86 5.04-.18.13-.37.18-.59.15-1.89-.25-2.78 4.31-3.17 5.62-.46 1.56 2.48 3.88 3.37 4.53m-24.9 23.76-5 .37" class="st12"/>
  <path d="M319.84 345.5c-.45.08-.76-.16-.93-.74" class="st10"/>
  <path d="m318.91 344.76-1.9-3.49c-.2-.37.22-.77.58-.55 2.3 1.41 4.7 2.42 7.19 3.04.11.03.23-.03.27-.14.05-.11 0-.23-.1-.28-1.52-.86-7.09-3.96-8.58-3.81-.18.02-.34-.09-.4-.26-1.45-4.12-3.64-4.74-7.46-6.03-.19-.06-.38-.05-.56.06-2.85 1.66-6.11 5.29-8.61 7.58-.12.11-.24.12-.38.03l-6.9-4.69c-.16-.12-.23-.27-.18-.47l3.12-12.43c.12-.47-.08-.97-.49-1.22-2.3-1.43-4.69-3.29-7.59-2.72-2.73.53-5.58 1.12-8.57 1.77" class="st12"/>
  <path d="M278.35 321.15c-1.9-3.11-2.5-8.41-3.35-11.42-.06-.22.01-.37.22-.47l8.11-3.4c.65-.27 1.02-.96.89-1.65-.21-1.15-.74-5.08-1.48-6-2-2.52-4.18-4.63-6.54-6.34-.1-.07-.11-.15-.04-.24.03-.04.08-.07.13-.09" class="st10"/>
  <path d="M273.6 318.11c.55 2.23 1.33 4.21 2.35 5.95.31.52.92.79 1.51.66l11.41-2.52c.2-.05.4.01.56.13l1.65 1.32c.13.11.18.24.14.4-.89 3.66-1.52 7.69-2.83 11.21-.71 1.9 2.55 3.83 4.01 4.9" class="st19"/>
  <path d="m292.39 340.15-7.69.06" class="st17"/>
  <path d="M284.7 340.21c-1.11-3.89-1.27-7.46-6.79-6.7-1.89.26-2.97 2.87-3.74 4.36-.06.11-.2.12-.28.04l-6.85-7.14c-.11-.12-.13-.26-.05-.4l2.43-4.16c.31-.53.23-1.21-.2-1.65l-4.03-4.1c-.15-.16-.36-.26-.58-.29l-5.32-.69c-.2-.03-.35-.12-.44-.3-1.62-2.92-2.91-5.98-3.85-9.19-.06-.2.02-.34.22-.4l5.81-1.91m12.58-13.79c-.97-.37-1.41-1.14-1.32-2.28.02-.26-.09-.34-.32-.22l-5.85 2.85c-.18.09-.26.3-.18.48.65 1.58 2.24 4.39 1.54 6.08-.74 1.79-1.86 3.57-3.33 5.33" class="st19"/>
  <path d="M318.91 344.76c-.15.24-.37.37-.66.39-.19.01-.32-.07-.39-.23l-1.76-3.79c-.07-.15-.16-.27-.28-.38-.27-.24-.41-.56-.43-.94-.01-.19-.08-.35-.2-.49-.52-.59-.87-1.28-1.07-2.07-.05-.19-.14-.35-.28-.49-1.7-1.62-3.72-2.35-6.05-2.18-.2.01-.4.09-.56.23l-7.89 6.95c-.18.15-.35.16-.54.03l-6.46-4.51c-.55-.39-1.27.2-.99.82.31.69.81 1.14 1.51 1.36.14.05.23.19.21.34-.02.15-.15.26-.3.26-.15.01-.28.03-.37.1" class="st7"/>
  <path d="M165.49 264.81c-4.86 3.37-5.82 8.46-8.03 14.09-.35.89-1.11 1.31-1.38 2.26-1.96 6.83-4.02 13.61-6.16 20.32-.06.19.14.35.31.25 7.94-4.71 15.47-9.96 22.62-15.76" class="st10"/>
  <path d="m172.85 285.97 5.54-4.65c.14-.12.2-.27.2-.44l.02-2.16c0-.18-.09-.27-.26-.27h-.78c-.95 0-1.32-1.24-.52-1.77l1.3-.85c.16-.1.25-.25.26-.44l.06-1.82c.01-.2-.19-.35-.38-.28l-3.07 1.12c-.53.2-1.12-.13-1.23-.69-.39-2.05 2.9-2.66 4.33-3.1.18-.06.3-.22.31-.4.05-1.25.4-3.81-.7-4.65-3.85-2.95-7.99-3.2-12.45-.76" class="st11"/>
  <path d="m172.85 285.97-.02-.3c-.01-.06-.04-.1-.1-.1-.07-.01-.12-.02-.17-.04-.04-.02-.07-.05-.09-.09l-6.98-20.63" class="st14"/>
  <path d="M410.29 335.81c.05.28.02.37-.11.25" class="st7"/>
  <path d="m410.17 336.06-.78.68c-.15.13-.36.14-.53.03-8.24-5.39-16.12-9-25.95-10-6.65-.67-17.49 4.72-23.08 8.18-.11.07-.07.25.07.26 3.42.13 6.79.56 10.15 1.53 18.74 5.44 33.9 17.16 43.87 34.09" class="st10"/>
  <path d="M413.92 370.83c-.47.33-.55.79-.23 1.37 4.36 8.09 7.79 18.03 8.08 27.17.03.9.38 1.71.43 2.66.01.19.11.3.3.32l.7.09" class="st7"/>
  <path d="M423.2 402.45c.49 8-.32 15.9-2.45 23.69-.06.2.02.29.23.26 8.32-1.16 17.59-4.65 23.79-10.53 1.77-1.68 2.6-6.66 3.16-9.04" class="st10"/>
  <path d="M447.92 406.83c.31.14.57.16.79.06.19-.09.28-.23.28-.44.01-.95.36-1.7 1.06-2.26.36-.28.87.05.77.49-.18.74.02 1.14.58 1.19" class="st7"/>
  <path d="M451.4 405.88c-.28.57-.39 1.12-.33 1.65.03.27.1.28.22.03l1.26-2.7" class="st21"/>
  <path d="M452.55 404.85c1.65 1.41 3.34-10.57 3.62-11.1.07-.15.11-.3.11-.47l.1-7.87c.01-.18-.03-.35-.11-.51-.24-.48-.67-4.29-1.43-3.65" class="st7"/>
  <path d="M454.84 381.26c-1.31-8.88-3.98-17.26-8.65-25.09-6.3-10.56-12.95-18.82-24.19-24.43-9.37-4.68-19.42-6.86-30.16-6.56-.48.02-.49.1-.03.24 7.07 2.27 13.03 5.33 18.48 10.38" class="st21"/>
  <path d="M454.84 381.26c1.18 8.27.56 15.82-2.3 23.59m-1.14 1.03c2.19-11.38 1.28-22.47-2.74-33.27" class="st22"/>
  <path d="m448.67 372.6-1.42-3.31" class="st21"/>
  <path d="M447.25 369.29c-4.34-9.46-12.68-20.77-22.22-25.47-.35-.16-.8-.13-1.36.11" class="st22"/>
  <path d="m423.68 343.93-3.25-2.33" class="st21"/>
  <path d="M420.43 341.6c-1.87-.97-3.31-2.55-5.22-3.31-1.68-.66-2.82-1.6-4.92-2.48" class="st22"/>
  <path d="M447.25 369.29c-.18.05-.3.31-.36.78-.05.37-.15.38-.29.04-.95-2.27-3.32-8.35-5.51-7.79-.19.05-.27.16-.26.36.03.43.16.82.4 1.16.12.17.18.36.19.56.01.44-.09.62-.27.52m-11.46-13.88c2.18.95 3.94 2.37 5.31 4.27.81 1.12 1.49 1.97 2.06 2.53.17.17.45.11.55-.1l.57-1.25c.05-.12.03-.23-.06-.32-.73-.69-1.35-1.48-1.85-2.39-.09-.16-.2-.3-.34-.41-1.47-1.22-2.74-2.89-4.04-3.94-.99-.79-6.19-5.16-7.59-4.48-.24.12-.26.26-.05.44 1.48 1.19 2.77 2.59 3.86 4.21m-4.43-5.67c-.06.09-.15.15-.3.19m-2.95-2.52-.07.35m28.31 30.65c-.29-.07-.51-.05-.65.06s-.19.3-.11.47c.36.78.56 1.6.62 2.45.01.16.07.32.17.45.77 1.04 1.05 2.16.85 3.36-.09.51-.74.68-1.06.27-.79-1-.93-3.54-1.55-4.04-.16-.14-.27-.31-.31-.52-.34-1.85-1.05-3.52-2.14-5.02-.12-.17-.19-.36-.19-.56-.02-.76-.38-1.29-1.07-1.61-.16-.07-.26-.23-.24-.41.09-1.25-.31-1.78-1.2-1.6" class="st7"/>
  <path d="m410.17 336.06 4.96 2.65c.17.1.3.23.4.4.63 1.12 1.53 1.95 2.69 2.51.16.08.35.07.51-.03.59-.37 1.13-.25 1.62.37" class="st12"/>
  <path d="m420.35 341.95 3.03 2.17" class="st10"/>
  <path d="M423.38 344.12c-.28.75-.31 1.29.32 1.89 1.3 1.26 2.77 2.45 4.41 3.59" class="st12"/>
  <path d="M428.11 349.61c.37.64.9 1.12 1.58 1.43" class="st10"/>
  <path d="M429.69 351.04c4.58 4.24 8.4 8.86 11.47 13.88" class="st12"/>
  <path d="m441.16 364.92.62 1" class="st10"/>
  <path d="M441.78 365.92c7.05 12.82 9.1 26.46 6.14 40.91m-24.72-4.38c-.7-11.29-3.8-21.83-9.28-31.61" class="st12"/>
  <path d="M353.24 340.04c-9.58 8.73-15.57 19.2-17.98 31.4-1.36 6.9-1.11 15.65 1.22 22.35.06.19.19.3.38.34 1.12.22 1.97.84 2.55 1.85.35.6-.38 1.23-.93.82l-.7-.53c-.12-.09-.28.05-.21.18 4.74 8.97 12.24 15.5 21.12 20.14" class="st23"/>
  <path d="M358.69 416.58c18.44 9.78 37.8 12.88 58.28 10.44.17-.02.28-.12.33-.28 8.04-29.12-2.23-59.06-26.88-76.57-9.14-6.49-24.05-13.35-35.78-11.1-.61.12-1.07.44-1.39.98" class="st21"/>
  <path d="M358.69 416.58c.06-.41-.05-.75-.32-1-17.74-16.03-15.22-43.27-8.6-63.81 1.2-3.73 2.36-7.64 3.48-11.73" class="st24"/>
  <path d="M474.54 428.99c-3.72-9.83-10.75-17.15-16.37-25.51-.06-.1-.21-.07-.24.03-6.49 20.68-27.96 28.51-47.71 28.42-1.97-.01-3.89.41-5.87.66" class="st21"/>
  <path d="M404.34 432.6c-16.57.08-32.27-3.74-47.1-11.45-12.23-6.36-23.95-17.05-25.5-31.57-.23-2.08-.61-3.9-.73-5.9-.03-.45-.11-.45-.23-.03-1.06 3.6-.57 13.45 1.54 16.64 18.73 28.34 51 41.42 82.24 50.31.23.06.26.02.07-.12-2.06-1.64-4.18-3.21-6.35-4.7-.43-.3-.48-.62-.16-.98.12-.14.32-.18.49-.11 1.3.56 8.44 4.07 7.33 6.04-.11.2-.05.31.17.34 17.66 2.15 34.93-1.06 49.98-9.79 4.44-2.58 8.75-6.81 8.45-12.25" class="st23"/>
  <path d="M404.34 432.6c.78.32 1.43.7 1.94 1.13.93.77 1.51 1.21 1.74 1.33 21.93 12.02 46.23 5.82 66.51-6.07" class="st24"/>
  <path d="m233.12 421.7 1.06.21c.2.04.4-.05.51-.22 2.93-4.66 8.5-2.93 13.02-3.1.18-.01.34-.11.41-.27l8.38-18.37c.08-.16-.05-.36-.23-.36h-30.19c-.2 0-.28.1-.22.3l6.93 21.5c.04.16.17.27.33.31" class="st6"/>
  <path d="M331.01 406.27c-23.97.03-48.38.82-72.27-.89-.15-.01-.27.05-.34.19l-6.02 12.59c-.06.12-.02.18.11.18l88.38-.19c.15 0 .23-.18.12-.29-3.49-3.51-6.66-7.28-9.5-11.34-.11-.16-.29-.25-.48-.25" class="st10"/>
  <path d="M268.74 436.21c-.09.11-.24.16-.45.18-.19.01-.24.1-.18.27.42 1.08 16.36.48 19.8.33.23-.01.28-.12.18-.32-.07-.13-.24-.27-.51-.41" class="st7"/>
  <path d="m287.59 436.26 77.55.08c.1 0 .14-.14.05-.19-6.86-3.85-13.26-8.34-19.22-13.48-.13-.11-.28-.17-.46-.17-27.51-.01-55.01-.07-82.52-.18-7.19-.03-14.37-.18-21.55-.43-3.45-.12-4.69 3.12-4.72 6.07-.02 2.45-.09 4.92-.2 7.42-.01.19.08.29.27.28 7.15-.05 15.57.03 25.28.22 2.7.05 4.93.16 6.68.32" class="st10"/>
  <path d="m287.59 436.26-18.85-.05" class="st12"/>
  <path d="M227.07 434.54c-.03-2.18 4.32-5.11 5.66-6.14.14-.11.22-.25.24-.43l.18-1.61c.03-.26-.08-.34-.31-.22l-1.04.48c-.18.09-.35.08-.52-.01l-.17-.09c-.17-.09-.35-.14-.55-.14l-120.33-.51c-.16 0-.31.06-.42.19-1.47 1.59-5.78-1.05-6.7 2.07-.69 2.36-.9 4.88-.65 7.56.06.59.56 1.03 1.16 1.02 9.38-.32 18.76-.62 28.31-.61 33.52.05 67.04-.11 100.56-.48.15 0 .23-.08.24-.24l.11-4.28c.01-.16-.19-.24-.31-.12-.96 1.03-3.67 4.16-5.13 3.94-.18-.03-.33-.19-.33-.38" class="st9"/>
  <path d="M296.01 380.65c-4.35 9.82 11.62 14.49 16.04 4.35.9-2.06.87-4.93-.9-6.39-3.58-2.95-7.76-3.49-12.53-1.62-1.74.67-1.99 2.25-2.61 3.66m-90.97 1.18c3.81 2.92 7.62 5.85 11.41 8.79.99.77 2.02 1.27 3.08 1.5.38.08.68-.34.47-.67-2.77-4.46-10.01-8.64-14.42-11.31-.48-.29-1.11-.01-1.2.55-.12.73.21.81.66 1.14m10.04-.83c.41 1.35 9.69 8.26 11.03 9.22.61.44 1.23.47 1.87.07.17-.11.23-.34.12-.51-.55-.89-1.43-1.81-2.65-2.76-2.99-2.32-6.07-4.6-9.23-6.85-.59-.4-1.35.16-1.14.83m-19.82 1.55c5.62 4.77 9.99 8.25 13.11 10.48.48.35 1.09.39 1.82.12.16-.06.25-.17.26-.35.06-.81-.19-1.43-.73-1.84-4.79-3.66-9.6-7.17-14.41-10.5-.7-.49-1.61.26-1.26 1.05.2.42.93.81 1.21 1.04m33.12 3.54c-.49 1.32 5.36 6.57 6.06 4.41.12-.37.01-.77-.28-1.03l-4.25-3.76c-.5-.45-1.3-.25-1.53.38m8.11 1.2c-.82 1.7 3.02 3.25 4.14 3.59.57.18 1.03.12 1.39-.18.53-.45.45-1.29-.15-1.62l-3.98-2.23c-.51-.28-1.15-.09-1.4.44" class="st10"/>
  <path d="M183.4 389.32c-.87 1.81 4.19 4.09 5.39 4.46.7.22 1.39-.35 1.32-1.08-.05-.52-4.43-3.08-5.14-3.7-.49-.45-1.28-.28-1.57.32" class="st12"/>
  <path d="M149.18 262.81c0-2.86-2.32-5.19-5.19-5.19s-5.19 2.32-5.19 5.19c0 2.86 2.32 5.19 5.19 5.19s5.19-2.33 5.19-5.19" class="st4"/>
  <path d="M175.72 265.51c-.44-.58-1.41-.59-2.18-.01-.77.58-1.03 1.51-.59 2.09.44.58 1.41.59 2.18.01.76-.57 1.03-1.51.59-2.09" class="st11"/>
  <path d="M277.66 286.96c1.48-1.54 2.64-3.12 3.72-4.95.62-1.06 1.49-1.73 2.67-.97.14.09.3.14.47.12l2.12-.19c.16-.02.34.02.48.09 1.09.52 2.15.48 3.18-.11.3-.16.28-.31-.04-.41-1.38-.45-2.79-.64-4.22-.54-.19.01-.37-.03-.54-.13-4.47-2.69-5.27.7-7.12 3.74-.45.76-1.35 1.84-1.57 2.9-.12.49.49.81.85.45" class="st7"/>
  <path d="M309.78 297.51c-9.34 5.5-5.19 15.44 3.71 17.8 5.92 1.57 12.34-2.7 11.59-9.17-.09-.7-.13-1.27-.14-1.71-.09-3.09-2.47-5.2-5-6.5-3.47-1.79-6.59-2.52-10.16-.42m34.16 7.81c.97.78 7.36-.98 8.74-1.41.19-.06.27-.19.24-.39l-.02-.14c-.01-.1-.07-.14-.16-.12l-8.81 1.47c-.2.03-.31.26-.22.44.06.1.14.15.23.15m-50.49 1.01c0-.38-.8-.68-1.78-.67-.98.01-1.77.32-1.77.7 0 .38.8.68 1.78.67.98-.01 1.77-.32 1.77-.7m46.92 2.42c-.12.22.03.48.28.48 1.24.01 8.67-.39 9.17-1.49.08-.19-.08-.39-.28-.35-2.76.52-5.52.82-8.3.89-.4.02-.69.17-.87.47m-53.26 1.56c1.21.62 2.51.94 3.9.97.21.01.39-.15.41-.36.02-.21-.11-.4-.32-.44l-3.52-.72c-.15-.03-.29.01-.4.12l-.12.13c-.09.09-.06.24.05.3m50.91 4.14c2.41.01 4.78-.35 7.09-1.09.17-.06.29-.21.29-.39v-.26c0-.22-.11-.3-.32-.25-1.06.26-7.16.95-7.37 1.28-.2.31-.02.71.31.71m-52.85-.66 4.94.85c.27.04.45-.06.56-.3.21-.47-.06-.66-.51-.69-1.6-.09-3.17-.35-4.71-.8-.66-.2-.87.02-.63.65.06.16.19.26.35.29m-6.47 3.27c4.24.96 8.47 1.26 12.69.9.36-.03.78.09.89-.39.05-.24-.13-.46-.37-.47-4.28-.06-8.52-.46-12.72-1.2-.29-.05-.49-.05-.61 0-.54.25-.45 1.03.12 1.16m65.48-.05c-.03-.24-.24-.41-.48-.38l-6.42.74c-.24.03-.41.24-.38.48l.03.26c.03.24.24.41.48.38l6.42-.74c.24-.03.41-.24.38-.48l-.03-.26m-2.39 3.11c-.03-.21-.22-.34-.43-.31l-2.13.33c-.2.03-.34.23-.31.43l.01.03c.03.21.22.34.43.31l2.13-.33c.2-.03.34-.23.31-.43l-.01-.03m-12.04 19.53c.07-.21-.03-.43-.24-.5l-2.88-1.02c-.21-.07-.43.04-.5.24l-.01.03c-.07.21.03.43.24.5l2.88 1.02c.21.07.43-.04.5-.24l.01-.03m-2.42 1.69c.08-.19-.02-.4-.21-.48l-4.5-1.78c-.19-.07-.4.02-.48.21l-.01.03c-.08.19.02.4.21.48l4.5 1.78c.19.07.4-.02.48-.21l.01-.03" class="st12"/>
  <path d="M357.57 300.01c.9 1.69 1.63 3.35 2.19 5 .24.71-.1 1.49-.8 1.79-2.83 1.22-5.48 2.76-7.93 4.61-.19.15-.18.44.04.56 1.89 1.03 2.55-.47 3.79-1.09 1.86-.93 4.82-3.11 6.81-3.2.41-.02.62-.51.34-.81-1.11-1.22-.72-2.52-1.2-3.74-.47-1.19-3.23-8.1-4.93-7.23-.48.24-.57.9-.17 1.26.95.84 1.28 1.77 1.86 2.85" class="st7"/>
  <path d="M307.69 302.04c-3.79 6.02 2.81 11.81 8.16 12.07 4.84.23 9-4.75 7.87-9.61-.95-4.08-4.95-6.53-8.99-6.69-3.1-.13-5.48 1.75-7.04 4.23" class="st19"/>
  <path d="M271.13 339.28c.99 1.19 2.17 1.69 3.53 1.51.7-.1 1.32-.53 1.64-1.16l1.66-3.24c.09-.17.29-.26.48-.2 1.32.38 2.06-.06 2.23-1.32.02-.2-.06-.33-.25-.39-3.49-1.14-4.95 1.85-6.03 4.43-.18.43-.77.45-.99.05-.89-1.6-2.08-2.94-3.59-4.03-.73-.53-1.68.28-1.27 1.09.54 1.07 1.75 2.25 2.59 3.26" class="st7"/>
  <path d="M484.79 318.79c0-2.58-2.09-4.67-4.67-4.67s-4.67 2.09-4.67 4.67 2.09 4.67 4.67 4.67c2.57 0 4.67-2.1 4.67-4.67" class="st5"/>
  <path d="M287.62 321.5c1.57-.38 2.79.05 3.67 1.28.35.49 1.03.86.57 1.66-.09.15-.13.32-.13.5 0 1.19-.14 2.37-.43 3.56-.05.19.02.32.2.39 1.26.48 2.36-4.4 2.59-5.19.13-.45-.06-.93-.47-1.17l-3.65-2.11c-.2-.11-.41-.17-.64-.17-2.78.04-5.49.49-8.14 1.34-.17.05-.18.11-.01.19.64.28 1.28.46 1.93.52.19.02.37-.01.55-.09.96-.44 3.11-.11 3.5-.48.13-.1.28-.18.46-.23" class="st7"/>
  <path d="M341.69 362.12c.33-.4.11-1.13-.5-1.64s-1.37-.61-1.7-.22c-.33.4-.11 1.13.5 1.64.61.52 1.37.62 1.7.22m-.53 5.41c.25-.36-.19-1.09-.97-1.62-.78-.54-1.62-.69-1.86-.33-.25.36.19 1.09.97 1.62.77.54 1.61.69 1.86.33m-1.05 6.24c.27-.34.22-.83-.12-1.1l-2.75-2.2c-.34-.27-.83-.22-1.1.12l-.04.05c-.27.34-.22.83.12 1.1l2.75 2.2c.34.27.83.22 1.1-.12l.04-.05m.58 5.19c.3-.36.25-.89-.11-1.19l-3.77-3.13c-.36-.3-.89-.25-1.19.11l-.17.21c-.3.36-.25.89.11 1.19l3.77 3.13c.36.3.89.25 1.19-.11l.17-.21m-5.31 1.34 3.49 3.57c.16.16.42.17.59.01l.23-.23c.49-.48.22-1.55-.6-2.39l-1.11-1.13c-.82-.84-1.88-1.14-2.37-.65l-.23.22c-.16.18-.16.44 0 .6m.25 5.21 3.43 3.37c.1.1.26.1.36 0l.19-.19c.5-.51.22-1.59-.62-2.42l-.73-.72c-.85-.84-1.94-1.1-2.43-.6l-.19.19c-.11.11-.11.28-.01.37m4.54 7.57c.3-.34.27-.85-.06-1.15l-2.47-2.22c-.34-.3-.85-.27-1.15.06l-.05.05c-.3.34-.27.85.06 1.15l2.47 2.22c.34.3.85.27 1.15-.06l.05-.05" class="st23"/>
  <path d="M112.61 348.47c0-2.58-2.09-4.68-4.68-4.68-2.58 0-4.68 2.09-4.68 4.68 0 2.58 2.09 4.68 4.68 4.68s4.68-2.09 4.68-4.68" class="st2"/>
  <path d="M451.09 401.82c.2-1.26 1.46-14.86-.49-14.71-.43.03-.75.41-.73.84.19 3.48.25 6.98.18 10.49-.02 1.09-.63 2.3-.37 3.43.18.77 1.29.73 1.41-.05" class="st7"/>
  <path d="M297.78 386.39c5.49 7.64 16.83-2.99 11.36-6.55-3.51-2.28-7.22-2.3-11.15-.03-.15.09-.27.22-.35.37-1.2 2.34-1.15 4.41.14 6.21" class="st9"/>
  <path d="M456.33 442.83c.2-.57-.57-1.36-1.72-1.77-1.15-.4-2.25-.27-2.45.3-.2.57.57 1.36 1.72 1.77 1.16.4 2.26.27 2.45-.3m-4.87 2.39c.25-.45-.54-1.35-1.75-2.01-1.21-.66-2.4-.83-2.64-.38-.25.45.54 1.35 1.75 2.01 1.22.66 2.4.83 2.64.38m-18.71-1.33-.54.96c-.11.2-.04.44.16.56l4.08 2.28c1.48.83 2.87 1.17 3.1.76l.11-.19c.23-.41-.79-1.41-2.27-2.24l-4.08-2.28c-.2-.13-.45-.05-.56.15m7.8 1.54c1.47.1 2.53.6 3.73 1.23.7.37 1.4-.5.89-1.1-1.15-1.36-2.66-1.94-4.52-1.75-.26.03-.38.17-.38.43v.89c0 .19.09.29.28.3" class="st23"/>
  <path d="M406.99 447.36c.15-.19.12-.45-.06-.61l-2.51-2.04c-.19-.15-.46-.12-.61.06l-.17.21c-.15.19-.12.45.06.61l2.51 2.04c.19.15.46.12.61-.06l.17-.21" style="fill:none;stroke:#7f4a1e;stroke-width:0;stroke-miterlimit:10"/>
  <path d="M415.48 446.3c3.05 1.37 5.91 2.95 8.57 4.76.53.36 1.26.05 1.35-.59.22-1.45-8.25-5.09-9.56-5.51-.34-.11-.7.03-.89.34-.24.4-.06.73.53 1m9.27-.12 6 3.32c.08.05.18.02.22-.06l.19-.34c.32-.59-.44-1.63-1.7-2.33l-1.7-.94c-1.27-.7-2.56-.8-2.88-.21l-.19.34c-.04.08-.02.18.06.22" class="st23"/>
  <path d="m213.96 411.48 5.68-4.08c.22-.16.27-.46.11-.68l-.29-.4c-.43-.59-1.99-.2-3.49.88l-1.03.74c-1.5 1.08-2.37 2.44-1.94 3.03l.28.4c.16.21.47.27.68.11m1.18 4.55c.26.4.78.51 1.18.26 2.1-1.35 4.08-2.78 5.96-4.27.8-.64.89-1.09.38-1.96-.16-.27-.51-.36-.77-.2-1.36.8-8 4.21-6.75 6.17m9.83-.1c-.21-.37-.69-.5-1.06-.29l-1.94 1.1c-.37.21-.51.69-.29 1.06l.04.08c.21.37.69.5 1.06.29l1.94-1.1c.37-.21.51-.69.29-1.06l-.04-.08" class="st11"/>
  <path d="M267.14 409.78c-.28.78 7.15 6.15 8.26 6.96.32.23.76.15.98-.16.47-.66.24-1.32-.68-1.98-2.53-1.79-5.04-3.51-7.54-5.16-.37-.24-.87-.07-1.02.34m-7.54.95c.02.74 6.77 6.45 8.66 6.34.2-.01.35-.2.31-.4-.37-2.04-6.18-5.36-7.98-6.5-.44-.28-1 .04-.99.56m19.32 2.59c-.11 1.19 2.6 2.4 3.47 2.53.32.05.54-.32.34-.59-.79-1.03-1.77-1.84-2.94-2.43-.38-.18-.83.07-.87.49m-18.88 2.85c.33-.5-.19-1.44-1.17-2.1-.98-.66-2.05-.8-2.39-.3-.33.5.19 1.44 1.17 2.1.99.66 2.06.79 2.39.3M244.58 428c2.26 1.6 9.49 7.37 11.86 7.23.41-.02.67-.47.48-.84-1.31-2.53-9.41-6.9-11.99-8.47-.69-.42-1.52.29-1.2 1.04.16.41.45.75.85 1.04m11.81 1.24c.65.46 9.88 7.09 9.65 3.91-.03-.49-.35-.93-.82-1.13-2.78-1.21-5.48-2.6-8.1-4.15-.24-.14-.44-.1-.59.14l-.29.47c-.16.25-.1.58.15.76m18.05 3.85c.17-.37.01-.8-.36-.97l-6.14-2.84c-.37-.17-.8-.01-.97.36l-.02.05c-.17.37-.01.8.36.97l6.14 2.84c.37.17.8.01.97-.36l.02-.05m-33.83-2.76c.5 1.44 5.54 5.48 5.64 2.62.01-.45-.28-.86-.71-.98-1.46-.43-2.68-1.22-3.68-2.36-.54-.62-1.52-.05-1.25.72m37.85-.19c-.61 1.9 3.53 2.73 4.79 3.02.51.11 1.03-.13 1.27-.58.47-.87-4.73-2.71-5.25-2.86-.33-.11-.7.08-.81.42" class="st10"/>
  <path d="M220.76 429.01c-.31-.42-.9-.51-1.32-.19l-5.22 3.87c-.42.31-.5.9-.19 1.32l.03.05c.31.42.9.51 1.32.19l5.22-3.87c.42-.31.5-.9.19-1.32l-.03-.05m-.25 6.26c1.88.3 5.39-3.63 6.8-4.89.55-.49.75-1.15.03-1.59-.24-.15-.55-.14-.77.03-2.17 1.6-4.93 3.23-6.48 5.48-.25.39-.03.9.42.97m-13.12-1.33c1.14.09 7.37-3.72 5.36-4.98-.26-.16-.6-.18-.87-.02-1.83 1.01-3.49 2.23-4.97 3.68-.48.46-.18 1.27.48 1.32m-21.43-2.46c-.21-.57-1.02-.78-1.8-.49-.78.29-1.25.99-1.04 1.55.21.57 1.02.78 1.8.49.78-.3 1.25-.99 1.04-1.55m18.95-.21c-.23-.45-.78-.62-1.23-.38l-5.17 2.7c-.44.23-.62.78-.38 1.23l.03.05c.23.45.78.62 1.23.38l5.17-2.7c.44-.23.62-.78.38-1.23l-.03-.05m-13.75 2.65c1.06-.11 4.48-.5 4.08-2.19-.12-.53-.72-.81-1.21-.57-.82.4-3.53 1.28-3.29 2.46.05.19.23.32.42.3" class="st9"/>
  <path d="m383.44 167 8.02.38c.12.01.22.11.22.23 0 .12-.1.22-.22.23l-8.02.38c-.11.01-.21.1-.22.22l-.38 8.02c-.01.12-.11.22-.23.22s-.22-.1-.23-.22l-.38-8.02c-.01-.11-.1-.21-.22-.22l-8.02-.38c-.12-.01-.22-.11-.22-.23 0-.12.1-.22.22-.23l8.02-.38c.11-.01.21-.1.22-.22l.38-8.02c.01-.12.11-.22.23-.22s.22.1.23.22l.38 8.02c.01.12.11.22.22.22zM171.26 165.89c0 3.18-2.57 5.75-5.75 5.75s-5.75-2.57-5.75-5.75 2.57-5.75 5.75-5.75 5.75 2.58 5.75 5.75m-1.06.01c0-2.58-2.09-4.68-4.68-4.68-2.58 0-4.68 2.09-4.68 4.68 0 2.58 2.09 4.68 4.68 4.68 2.59-.01 4.68-2.1 4.68-4.68z" class="st26"/>
  <path d="M170.2 165.9c0 2.58-2.09 4.68-4.68 4.68-2.58 0-4.68-2.09-4.68-4.68 0-2.58 2.09-4.68 4.68-4.68s4.68 2.09 4.68 4.68z" class="st27"/>
  <path d="M249.38 165.41c0 .22-.18.39-.4.4l-4.25-.01c-.22 0-.4-.18-.4-.4v-.07c0-.22.18-.39.4-.4l4.25.01c.22 0 .4.18.4.4v.07zM256.52 165.59c-.12-.01-.2-.12-.18-.24.12-.6.81-.36 1.16-.36 13.09-.18 26.18-.22 39.28-.14.56.01.79.16.59.74-.06.16-.18.24-.35.24-13.42-.01-27.12.49-40.5-.24zM220.28 196.36l7.89-.02c.11 0 .2.09.2.2v.46c0 .2-.16.36-.36.36l-7.8-.03c-.15 0-.22.07-.22.22v7.82c0 .24-.12.36-.36.36h-.3c-.22 0-.34-.11-.34-.34v-7.76c0-.19-.1-.28-.28-.28h-7.74c-.24 0-.36-.12-.36-.36v-.35c0-.19.1-.28.28-.28h7.81c.19 0 .28-.1.28-.28v-7.75c0-.18.08-.3.24-.37l.27-.12c.23-.11.49.06.49.32-.01 2.64-.01 5.29-.01 7.94.02.17.12.27.31.26zM436.15 204.94c0 3.16-2.56 5.72-5.72 5.72-3.16 0-5.72-2.56-5.72-5.72 0-3.16 2.56-5.72 5.72-5.72 3.16 0 5.72 2.56 5.72 5.72m-1.03-.04c0-2.58-2.09-4.68-4.68-4.68s-4.68 2.09-4.68 4.68c0 2.58 2.09 4.68 4.68 4.68s4.68-2.09 4.68-4.68z" class="st26"/>
  <path d="M435.12 204.9c0 2.58-2.09 4.68-4.68 4.68s-4.68-2.09-4.68-4.68c0-2.58 2.09-4.68 4.68-4.68s4.68 2.1 4.68 4.68z" class="st0"/>
  <path d="M319.77 205.52c0 .22-.18.4-.41.4l-4.23-.03c-.22 0-.4-.18-.4-.41v-.16c0-.22.18-.4.41-.4l4.23.03c.22 0 .4.18.4.41v.16zM344.37 205.52c0 .22-.18.39-.39.39l-16.57-.03c-.22 0-.39-.18-.39-.39v-.1c0-.22.18-.39.39-.39l16.57.03c.22 0 .39.18.39.39v.1z" class="st26"/>
  <path d="M119.44 218.93v-7.73c0-.2.16-.36.36-.36h.44c.22 0 .34.11.34.34v7.76c0 .19.1.28.28.28h7.78c.16 0 .3.12.3.28l.02.43c.02.26-.11.4-.37.4-2.56.06-5.11.05-7.67-.05-.22-.01-.34.1-.34.32l-.02 7.75c0 .39-.46.6-.76.35-.68-.57-.35-6.82-.34-8.04.01-.16-.13-.3-.3-.3l-7.67-.03c-.22 0-.4-.15-.43-.36-.09-.52.2-.76.7-.76 2.46.02 4.92.02 7.39-.01.2 0 .29-.09.29-.27zM403.19 225.88c7.76.23 15.57.97 23.3.91 11.21-.08 6.93 9.5 8.21 16.42.3 1.59.45 2.94.47 4.06.18 11.2.27 22.39.27 33.59l.01 53.78c0 .19.07.35.2.49l4.64 4.74c2.63 3.11 5.08 6.57 7.35 10.38-.89.64-1.02 1.42-.37 2.35.12.18.29.26.5.24 1.24-.06 1.87.53 1.89 1.8.01.19.1.33.28.41.73.31 1.06.88.98 1.71-.02.19.05.34.19.46.42.35.69.64.8.89 1.87 4.02 3.39 8.09 4.56 12.23.09.3.45.4.68.2.07-.06.08-.22.02-.45 1.85 6.23 2.81 12.61 2.86 19.13.02 2.29-.37 5.1-.47 7.67-.01.19.04.36.14.53 4.64 7.82 10.55 14.7 15.67 22.3 3.03 5.75 5.22 9.73 2.64 15.65-.07.18-.02.28.18.3l.72.06c-.14.13-.19.28-.15.45.03.19.2.32.39.32 3.1.02 6.21.09 9.32.21.15.01.29.11.34.26.14.51.01.96-.4 1.36-.13.13-.31.2-.49.2l-11.39.03c-.32 0-.59.21-.64.49-.02.07.09.16.32.26l-.3.05c-.18.02-.34.1-.47.24-7.19 7.55-19.07 12.17-28.95 14.45-6.28 1.43-12.66 2.01-19.16 1.75-1.05-.04-2.06.4-3.36.27-15.63-1.62-33.75-7.92-48.94-14.73-2.51-1.12-6.99-.52-9.75-.43l-40.06-.5 1.58-.19c.16-.02.27-.16.26-.32-.01-.15-.14-.28-.3-.28-17.45.06-34.77.1-51.96.12-1.33 0-1.76.21-1.3.63-.65.19-1.36.2-2.12.05.31-.02.52-.08.62-.18.19-.18.07-.5-.19-.5l-29.43-.02c-.32 0-.52.36-.34.63l.09.14c-1.99.37-3.94.39-5.84.08-1.41-.23-2.56-.34-3.42-.3-26.42 1.23-53.2.55-79.66.46-17.34.23-34.66.05-51.96-.52-.81-1.11-2.08-.19-2.87-1.18-.12-.16-.29-.24-.49-.23l-7.85.17c-.24.01-.44-.18-.46-.41-.09-1.09 8.44-1.23 9.36-1.26.51-.02.9-.46.85-.97-.2-2.11-.21-4.32-.01-6.64.02-.28-.19-.36-.65-.25.14-4.24 2.62-7.65 7.21-6.98.34.05 1-.03 1.99-.24.18-.03.3-.14.35-.32l12.36-40.75c11.65-37.26 22.86-74.73 35.56-111.63.84-2.43 2.28-4.59 4.33-6.49 5-4.64 11.5-5.39 17.42-1.81.19.11.42-.03.41-.24-.11-7.61.65-15.28.36-22.87-.4-10.55 5.99-12.23 14.83-12.07 5.72.1 11.45.08 17.18-.05 28.74-.22 75.66-.34 140.75-.33.56 0 .97.03 1.23.11.18.05.36.07.55.07 16.55-.31 33.05-.3 49.53.04M181.98 381.45c-1.07-.12-1.59-.56-1.52-1.31.01-.15-.11-.28-.27-.28h-.36c-.2 0-.32.1-.37.29l-.18.7c.02-1.77.09-3.54.2-5.31.27-4.23-.21-8.41-.16-12.72 0-.18-.2-.29-.35-.19l-14.16 9.07-.07-.52c-.03-.27-.18-.36-.43-.28l-.3.1c-.24.07-.28.02-.1-.16.54-.56.43-.93-.32-1.11l15.19-9.49c.23-.14.37-.4.36-.67l-.38-38.63c0-.23-.09-.27-.27-.14-11.9 8.97-24.31 17.16-37.24 24.56-1.41.81-2.56 1.85-4.04.73.07-.8.47-1.47 1.22-1.87 13.83-7.49 27.12-16.05 39.86-25.68.26-.2.41-.51.41-.83l-.03-33.56c0-.21-.25-.33-.41-.19-9.02 7.87-18.71 14.82-29.08 20.82-.18.1-.3.25-.35.44-4.16 13.4-8.33 26.78-12.5 40.13-.09.28-.02.57.19.88l-.49.53c-.14.14-.23.31-.3.5l-13.43 43.02c-.05.15.1.3.25.24l.44-.17c2.03.09 4.11-.56 6.24-1.95.14-.09.31-.06.42.05.11.12.11.3.02.42-.74.95-2.01 1.39-3 2.09-.15.11-.22.26-.19.45.03.24.16.36.38.34l-5.49 2.42c-.2.09-.33.23-.39.44l-8.74 27.19c-.06.2.01.3.22.3 10.9-.11 21.81-.16 32.73-.18 1.87-.01 3.21-1.06 4.85-1.76 1.21 1.19 2.56-1.18 4.38-.83.19.04.23.14.12.3-.31.46-.49.96-.53 1.49l-.69.53c-.18.14-.16.21.07.2l31.46-.23 43.44.01c.19 0 .25-.09.19-.26l-7.12-21.46c-.06-.19-.19-.28-.39-.28h-2.39c-.2 0-.37.06-.52.19-.85.74-5.02 5.02-5.97 3.35-.19-.33-.12-.74.17-.99l2.71-2.34c.14-.12.11-.18-.07-.18-7.89-.03-15.83.19-23.7-.34-.18-.01-.35.03-.5.14l-5.47 3.72-3.84 2.41c.2-.73-1.21-.28-1.53-.1-3.02 1.76-6.02 3.54-9 5.36-.15.1-.2.06-.13-.11.34-.84 7.18-4.63 8.55-5.52.34-.22.2-.74-.2-.76l-.4-.01 7.91-5.07c.17-.11.07-.37-.12-.35-2.9.36-5.17-.49-6.95-3.02.7.26.99-.06.89-.95-.07-.61.69-.94 1.08-.47.14.16.48.19 1.02.07.37.74 1.05 1.07 2.01 1.01 4.38-.29 8.79-.55 13.21-.8.31-.02.34-.11.09-.3l-1.53-1.12c.36-.14.58-.41.65-.81.08-.48.68-.64.99-.26.66.82 1.49 1.1 2.48.84l.15 1.41c.02.15.1.25.25.29.86.22 1.48.48 2.39.47 40.67-.06 81.45-.07 122.01.03.68 0 1.2-.61 1.09-1.29-1.16-7-.31-14.36 4.57-19.8.12-.14.1-.2-.09-.2-39.82-.16-79.65-.23-119.47-.19-5.04.01-10.32-.33-15.47-.5-1.49-.05-2.55-.26-3.16-.62-2.15-1.28-1.12-4.01-1.24-5.98-.03-.55-.05-.84-.05-.85-.09-37.48-.03-74.95.15-112.43.02-3.82.24-7.61.41-11.43.1-2.15 1.27-3.27 3.51-3.37 4.99-.23 9.99-.26 14.98-.09.97.03 2.02.51 3.04.5 45.88-.19 91.75-.31 137.63-.26 23.01.02 46.02.48 69.05.43 1.92-.01 2.71 1.23 2.73 3.07.3 28.12.37 56.23.22 84.35 0 .14.06.24.18.32l7.71 4.37c.14.07.2.03.2-.12.04-24.5.06-49 .05-73.51 0-2.54.12-6.32.36-11.36.13-2.7.95-13.32-.53-15.11-.61-.74-1.47-1.11-2.58-1.11-6.18 0-12.45.2-18.61-.31-3.12-.26-7.69.15-9.52.15-23.7-.01-47.4.03-71.1.11-.11 0-.2-.02-.3-.05-.11-.04-.22-.06-.34-.06-40.53-.06-81.07.01-121.61-.15-6.29-.02-13.28 0-18.32.45-4.88.44-6.65 4.42-6.4 8.92.36 6.5.67 12.88.69 19.51.06 18.25-.02 44.57-.27 78.95-.11 15.4-.4 28.24-.89 38.53-.14 1.69.06 3.38.15 5.16m11.59-10.21c.43.19.71.28.85.28 3.73-.12 7.46-.18 11.19-.15 40.15.3 80.32.24 120.49.23 1.52 0 3.17-.19 4.81-.13.23.01.36-.1.4-.33 1.89-11.71 6.81-21.93 14.75-30.65.12-.13.1-.23-.06-.31-2.76-1.35-8.31-3.51-10.37-5.66-.22-.23-.61-.07-.61.24-.03 3.29.41 6.5 1.34 9.62.39 1.33.26 2.56-1.23 2.9-2.05.47-4.56.84-7.54 1.11.45-.18.77-.36.94-.54.13-.14.01-.36-.18-.32-1.26.25-2.46.13-3.6-.36-.19-.08-.3-.28-.25-.48l.32-1.56 7.65-.8c.19-.02.27-.13.22-.32-.87-3.52-1.21-7.08-1.02-10.7.12-2.39 4.49-2.85 5.81-1.65.71.64 1.22 1.03 1.51 1.19 2.23 1.14 4.48 2.3 6.75 3.47.18.09.32.05.41-.14l5.82-11.5c.1-.2.09-.39-.06-.56l-2.18-2.75c-1.43-1.78-2.26-3.2-2.5-4.26-.11-.5.19-.99.68-1.12.5-.12 1.01.16 1.15.65.39 1.35.98 1.79 1.77 1.34l3.11 3.31c1.49 1.44 2.01 2.69 1.56 3.75-.95 2.25-2.78 5.99-5.5 11.21-.04.07.05.14.11.09 14.16-11.55 30.48-16.74 48.99-15.58 7.2.45 14.17 2.12 20.89 5 .16.07.35-.05.35-.23l.02-44.52.18-38.81c.01-.86-.43-1.28-1.29-1.24-9.27.41-19.05.06-27.58.17-52.15.65-104.92.76-177.37.26-5.85-.04-13.16-.51-19.85-.49-.43 0-.78.33-.81.76-.19 3.15-.6 6.28-.58 9.43.25 39.83.59 79.68.08 119.5-.01.19.06.34.2.47l.23.18m-28.08-106.43c-4.86 3.37-5.82 8.46-8.03 14.09-.35.89-1.11 1.31-1.38 2.26-1.96 6.83-4.02 13.61-6.16 20.32-.06.19.14.35.31.25 7.94-4.71 15.47-9.96 22.62-15.76l5.54-4.65c.14-.12.2-.27.2-.44l.02-2.16c0-.18-.09-.27-.26-.27h-.78c-.95 0-1.32-1.24-.52-1.77l1.3-.85c.16-.1.25-.25.26-.44l.06-1.82c.01-.2-.19-.35-.38-.28l-3.07 1.12c-.53.2-1.12-.13-1.23-.69-.39-2.05 2.9-2.66 4.33-3.1.18-.06.3-.22.31-.4.05-1.25.4-3.81-.7-4.65-3.84-2.95-7.98-3.2-12.44-.76m244.8 71c.05.28.02.37-.11.25l-.78.68c-.15.13-.36.14-.53.03-8.24-5.39-16.12-9-25.95-10-6.65-.67-17.49 4.72-23.08 8.18-.11.07-.07.25.07.26 3.42.13 6.79.56 10.15 1.53 18.74 5.44 33.9 17.16 43.87 34.09-.47.33-.55.79-.23 1.37 4.36 8.09 7.79 18.03 8.08 27.17.03.9.38 1.71.43 2.66.01.19.11.3.3.32l.7.09c.49 8-.32 15.9-2.45 23.69-.06.2.02.29.23.26 8.32-1.16 17.59-4.65 23.79-10.53 1.77-1.68 2.6-6.66 3.16-9.04.31.14.57.16.79.06.19-.09.28-.23.28-.44.01-.95.36-1.7 1.06-2.26.36-.28.87.05.77.49-.18.74.02 1.14.58 1.19-.28.57-.39 1.12-.33 1.65.03.27.1.28.22.03l1.26-2.7c1.65 1.41 3.34-10.57 3.62-11.1.07-.15.11-.3.11-.47l.1-7.87c.01-.18-.03-.35-.11-.51-.24-.48-.67-4.29-1.43-3.65-1.31-8.88-3.98-17.26-8.65-25.09-6.3-10.56-12.95-18.82-24.19-24.43-9.37-4.68-19.42-6.86-30.16-6.56-.48.02-.49.1-.03.24 7.04 2.3 13.01 5.36 18.46 10.41m-57.05 4.23c-9.58 8.73-15.57 19.2-17.98 31.4-1.36 6.9-1.11 15.65 1.22 22.35.06.19.19.3.38.34 1.12.22 1.97.84 2.55 1.85.35.6-.38 1.23-.93.82l-.7-.53c-.12-.09-.28.05-.21.18 4.74 8.97 12.24 15.5 21.12 20.14 18.44 9.78 37.8 12.88 58.28 10.44.17-.02.28-.12.33-.28 8.04-29.12-2.23-59.06-26.88-76.57-9.14-6.49-24.05-13.35-35.78-11.1-.62.1-1.08.42-1.4.96m121.3 88.95c-3.72-9.83-10.75-17.15-16.37-25.51-.06-.1-.21-.07-.24.03-6.49 20.68-27.96 28.51-47.71 28.42-1.97-.01-3.89.41-5.87.66-16.57.08-32.27-3.74-47.1-11.45-12.23-6.36-23.95-17.05-25.5-31.57-.23-2.08-.61-3.9-.73-5.9-.03-.45-.11-.45-.23-.03-1.06 3.6-.57 13.45 1.54 16.64 18.73 28.34 51 41.42 82.24 50.31.23.06.26.02.07-.12-2.06-1.64-4.18-3.21-6.35-4.7-.43-.3-.48-.62-.16-.98.12-.14.32-.18.49-.11 1.3.56 8.44 4.07 7.33 6.04-.11.2-.05.31.17.34 17.66 2.15 34.93-1.06 49.98-9.79 4.43-2.6 8.74-6.84 8.44-12.28m-241.42-7.29 1.06.21c.2.04.4-.05.51-.22 2.93-4.66 8.5-2.93 13.02-3.1.18-.01.34-.11.41-.27l8.38-18.37c.08-.16-.05-.36-.23-.36h-30.19c-.2 0-.28.1-.22.3l6.93 21.5c.04.16.17.27.33.31m97.89-15.43c-23.97.03-48.38.82-72.27-.89-.15-.01-.27.05-.34.19l-6.02 12.59c-.06.12-.02.18.11.18l88.38-.19c.15 0 .23-.18.12-.29-3.49-3.51-6.66-7.28-9.5-11.34-.11-.16-.29-.25-.48-.25m-62.27 29.94c-.09.11-.24.16-.45.18-.19.01-.24.1-.18.27.42 1.08 16.36.48 19.8.33.23-.01.28-.12.18-.32-.07-.13-.24-.27-.51-.41l77.55.08c.1 0 .14-.14.05-.19-6.86-3.85-13.26-8.34-19.22-13.48-.13-.11-.28-.17-.46-.17-27.51-.01-55.01-.07-82.52-.18-7.19-.03-14.37-.18-21.55-.43-3.45-.12-4.69 3.12-4.72 6.07-.02 2.45-.09 4.92-.2 7.42-.01.19.08.29.27.28 7.15-.05 15.57.03 25.28.22 2.7.06 4.93.17 6.68.33m-41.67-1.67c-.03-2.18 4.32-5.11 5.66-6.14.14-.11.22-.25.24-.43l.18-1.61c.03-.26-.08-.34-.31-.22l-1.04.48c-.18.09-.35.08-.52-.01l-.17-.09c-.17-.09-.35-.14-.55-.14l-120.33-.51c-.16 0-.31.06-.42.19-1.47 1.59-5.78-1.05-6.7 2.07-.69 2.36-.9 4.88-.65 7.56.06.59.56 1.03 1.16 1.02 9.38-.32 18.76-.62 28.31-.61 33.52.05 67.04-.11 100.56-.48.15 0 .23-.08.24-.24l.11-4.28c.01-.16-.19-.24-.31-.12-.96 1.03-3.67 4.16-5.13 3.94-.18-.03-.33-.19-.33-.38z" class="st28"/>
  <path d="m200.37 393.17-15.18-9.41c-.22-.14-.4-.09-.52.14l-.33.62c-.1.19-.06.35.11.48l11.81 8.41 1.53 1.12c.25.18.22.28-.09.3-4.43.24-8.83.51-13.21.8-.97.06-1.64-.27-2.01-1.01l-.5-13.16c-.09-1.77-.29-3.47-.2-5.21.49-10.29.78-23.14.89-38.53.24-34.38.33-60.7.27-78.95-.02-6.63-.33-13.01-.69-19.51-.25-4.5 1.52-8.48 6.4-8.92 5.04-.45 12.03-.47 18.32-.45 40.54.16 81.07.09 121.61.15.12 0 .23.02.34.06.09.03.19.05.3.05 23.7-.09 47.4-.12 71.1-.11 1.83 0 6.4-.41 9.52-.15 6.16.51 12.44.31 18.61.31 1.11 0 1.97.37 2.58 1.11 1.48 1.79.66 12.41.53 15.11-.24 5.03-.36 8.82-.36 11.36.01 24.5-.01 49-.05 73.51 0 .16-.07.2-.2.12l-7.71-4.37c-.12-.07-.18-.18-.18-.32.16-28.12.09-56.23-.22-84.35-.02-1.85-.81-3.08-2.73-3.07-23.02.05-46.03-.41-69.05-.43-45.88-.05-91.75.07-137.63.26-1.03.01-2.07-.47-3.04-.5-4.99-.16-9.99-.14-14.98.09-2.23.1-3.4 1.23-3.51 3.37-.18 3.82-.4 7.61-.41 11.43-.18 37.48-.23 74.95-.15 112.43 0 .02.02.3.05.85.12 1.97-.91 4.7 1.24 5.98.62.37 1.68.57 3.16.62 5.16.17 10.43.51 15.47.5 39.82-.04 79.65.02 119.47.19.19 0 .22.07.09.2-4.88 5.44-5.73 12.8-4.57 19.8.11.68-.41 1.29-1.09 1.29-40.56-.1-81.34-.09-122.01-.03-.91.01-1.53-.25-2.39-.47-.15-.04-.23-.14-.25-.29l-.14-1.42m95.64-12.52c-4.35 9.82 11.62 14.49 16.04 4.35.9-2.06.87-4.93-.9-6.39-3.58-2.95-7.76-3.49-12.53-1.62-1.74.67-1.99 2.25-2.61 3.66m-90.97 1.18c3.81 2.92 7.62 5.85 11.41 8.79.99.77 2.02 1.27 3.08 1.5.38.08.68-.34.47-.67-2.77-4.46-10.01-8.64-14.42-11.31-.48-.29-1.11-.01-1.2.55-.12.73.21.81.66 1.14m10.04-.83c.41 1.35 9.69 8.26 11.03 9.22.61.44 1.23.47 1.87.07.17-.11.23-.34.12-.51-.55-.89-1.43-1.81-2.65-2.76-2.99-2.32-6.07-4.6-9.23-6.85-.59-.4-1.35.16-1.14.83m-19.82 1.55c5.62 4.77 9.99 8.25 13.11 10.48.48.35 1.09.39 1.82.12.16-.06.25-.17.26-.35.06-.81-.19-1.43-.73-1.84-4.79-3.66-9.6-7.17-14.41-10.5-.7-.49-1.61.26-1.26 1.05.2.42.93.81 1.21 1.04m33.12 3.54c-.49 1.32 5.36 6.57 6.06 4.41.12-.37.01-.77-.28-1.03l-4.25-3.76c-.5-.45-1.3-.25-1.53.38m8.11 1.2c-.82 1.7 3.02 3.25 4.14 3.59.57.18 1.03.12 1.39-.18.53-.45.45-1.29-.15-1.62l-3.98-2.23c-.51-.28-1.15-.09-1.4.44m-53.09 2.03c-.87 1.81 4.19 4.09 5.39 4.46.7.22 1.39-.35 1.32-1.08-.05-.52-4.43-3.08-5.14-3.7-.49-.45-1.28-.28-1.57.32z" class="st29"/>
  <path d="M420.39 281.01c-.4-.43-.74-.53-1.02-.32-20.24 15.84-42.04 29.36-65.41 40.58l-3.11-3.31c-1.64-1.22-1.09-2.72.39-3.76 3.27-2.29 6.74-4.2 10.43-5.73.89-.37 1.55-1.06 1.27-2.02-.56-1.96-5.35-13.88-7.89-13.82-2.59.07-6.59.43-11.99 1.06l-4.3-5.38c-.11-.14-.13-.29-.07-.45l.14-.35c1.57-3.52 2.48-6.22 2.73-8.09.51-3.83-2.92-5.79-5.83-7.29-2.36-1.21-4.61-2.53-6.74-3.95-.62-.41-1.45-.33-1.97.2l-6.5 6.64c-.32.24-4.51-1.75-5.13-1.96-2.13-.82.09-9.17-4.95-9.33-3.22-.1-6.44-.12-9.66-.07-2.33.04-3.1.66-3.66 2.84-.37 1.4-2.28 10.9-2.67 11.25-.7.61-1.6 1.19-2.71 1.73-.17.09-.35.11-.53.1-2.51-.29-4.98-.78-7.41-1.48-1.65-.47-2.92-.01-3.8 1.39-1.34 2.12-2.7 4.23-4.07 6.33-.11.16-.25.28-.43.35-6.31 2.56-10.21 4.35-11.73 5.37-2.53 1.71-1.22 4.62-.04 6.64l.54 1.41c.07.18.06.36-.03.54l-1.55 3.2c-.09.18-.23.3-.42.35l-2.08.57c-2.34.8-4.68 1.6-7 2.4-3.23 1.11-1.63 4.1-.91 6.3.9 2.77 2.08 5.41 3.54 7.93 1.54 2.66 4.76 1.7 7.25 1.44.19-.02.35.05.46.21l2.11 2.99c.1.14.1.29.01.43l-2.63 4.29c-.38.62-.27 1.42.27 1.91 2.67 2.48 5.33 5.17 7.97 8.07 3.88 4.27 5.64-.22 7.27-2.85.53-.87 1.87-.59 2 .43.21 1.63 1.26 6.05 3.69 5.98 4.04-.11 8.09-.15 12.13-.1 1.07.01 1.11-.05 1.78.71-1.97.18-3.27.93-4.74 1.41-30.34 9.88-61.2 17.68-92.59 23.39-1.45.27-4.06.99-6.22 1.11-.15.01-.28.07-.39.19l-.6.73-.2-.19c-.14-.12-.2-.28-.2-.47.51-39.82.17-79.67-.08-119.5-.02-3.15.39-6.28.58-9.43.02-.43.38-.76.81-.76 6.69-.01 14 .45 19.85.49 72.44.5 125.21.39 177.37-.26 8.53-.11 18.31.24 27.58-.17.86-.04 1.3.37 1.29 1.24l-.2 38.84z" class="st30"/>
  <path d="m476.06 251.02 6-5.4c.09-.08.23-.08.32.01s.09.23.01.32l-5.43 5.99c-.08.09-.08.22 0 .31l5.4 6c.08.09.08.23-.01.32s-.23.09-.32.01l-5.99-5.43c-.09-.08-.22-.08-.31 0l-6 5.4c-.09.08-.23.08-.32-.01s-.09-.23-.01-.32l5.43-5.99c.08-.09.08-.22 0-.31l-5.4-6c-.08-.09-.08-.23.01-.32s.23-.09.32-.01l5.99 5.43c.08.08.22.08.31 0z" class="st26"/>
  <path d="M150.29 262.82c0 3.47-2.82 6.29-6.29 6.29s-6.29-2.82-6.29-6.29 2.82-6.29 6.29-6.29 6.29 2.82 6.29 6.29m-1.11-.01c0-2.86-2.32-5.19-5.19-5.19s-5.19 2.32-5.19 5.19c0 2.86 2.32 5.19 5.19 5.19s5.19-2.33 5.19-5.19z" class="st28"/>
  <path d="M149.18 262.81c0 2.86-2.32 5.19-5.19 5.19s-5.19-2.32-5.19-5.19c0-2.86 2.32-5.19 5.19-5.19s5.19 2.32 5.19 5.19z" class="st0"/>
  <path d="m172.85 285.97-.02-.3c-.01-.06-.04-.1-.1-.1-.07-.01-.12-.02-.17-.04-.04-.02-.07-.05-.09-.09l-6.98-20.63c4.45-2.44 8.6-2.19 12.45.76 1.1.84.75 3.4.7 4.65-.01.19-.13.35-.31.4-1.43.43-4.73 1.05-4.33 3.1.11.56.69.89 1.23.69l3.07-1.12c.19-.07.39.07.38.28l-.06 1.82c-.01.19-.09.34-.26.44l-1.3.85c-.8.52-.43 1.77.52 1.77h.78c.18 0 .26.09.26.27l-.02 2.16c0 .18-.07.32-.2.44l-5.55 4.65m2.87-20.46c-.44-.58-1.41-.59-2.18-.01-.77.58-1.03 1.51-.59 2.09.44.58 1.41.59 2.18.01.76-.57 1.03-1.51.59-2.09z" class="st31"/>
  <path d="M315.4 273.08c-.84.52-1.37.22-1.6-.88-.05-.22-.19-.32-.41-.31l-.81.06c-.26.02-.43.27-.36.52l.53 1.85c.04.14.12.24.26.3l4.12 1.76c.19.09.24.22.14.4l-.15.27-4.7-1.76c-.21-.08-.35-.23-.4-.45l-1.73-7.46c-.04-.18-.15-.27-.34-.27l-9.17-.02c-.2 0-.33.1-.38.3-.95 3.52-1.75 7.07-2.4 10.66-.18.97-1.6 1.7-2.22 2.36-1.3 1.37-2.92 2.64-4.97 2.35-2.54-.36-5.09-.79-7.65-1.28-.19-.03-.34.03-.44.19l-6.43 9.92c-.49-.01-.81-.18-.47-.68.72-1.06.85-2.07.4-3.03-.28-.61-1.02-.86-1.61-.56-3.58 1.81-7.2 3.58-10.86 5.31-.18.09-.31.23-.38.41-.27.7-.29 1.39-.05 2.06.44 1.24.58 2.28.41 3.12-1.18-2.02-2.49-4.93.04-6.64 1.51-1.02 5.42-2.81 11.73-5.37.18-.07.32-.19.43-.35 1.37-2.1 2.73-4.21 4.07-6.33.88-1.39 2.15-1.86 3.8-1.39 2.44.7 4.91 1.19 7.41 1.48.19.02.36-.01.53-.1 1.11-.55 2.01-1.12 2.71-1.73.39-.35 2.3-9.85 2.67-11.25.56-2.18 1.34-2.8 3.66-2.84 3.23-.05 6.45-.02 9.66.07 5.04.14 2.83 8.49 4.96 9.31m-37.74 13.88c1.48-1.54 2.64-3.12 3.72-4.95.62-1.06 1.49-1.73 2.67-.97.14.09.3.14.47.12l2.12-.19c.16-.02.34.02.48.09 1.09.52 2.15.48 3.18-.11.3-.16.28-.31-.04-.41-1.38-.45-2.79-.64-4.22-.54-.19.01-.37-.03-.54-.13-4.47-2.69-5.27.7-7.12 3.74-.45.76-1.35 1.84-1.57 2.9-.12.49.49.81.85.45z" class="st26"/>
  <path d="m165.49 264.81 6.98 20.63c.02.04.05.07.09.09.05.02.1.03.17.04.06.01.09.04.1.1l.02.3c-7.15 5.8-14.69 11.05-22.62 15.76-.17.1-.37-.06-.31-.25 2.15-6.71 4.2-13.49 6.16-20.32.27-.95 1.03-1.37 1.38-2.26 2.21-5.63 3.17-10.72 8.03-14.09z" class="st29"/>
  <path d="M175.72 265.51c.44.58.17 1.52-.59 2.09-.76.58-1.74.57-2.18-.01-.44-.58-.17-1.52.59-2.09.77-.58 1.75-.58 2.18.01z" class="st28"/>
  <path d="m317.11 277.04 2.33.84 1.6.68c.19.09.41.04.57-.11l6.23-6.23c.25-.25.64-.3.95-.12 3.04 1.74 7.06 3.26 9.52 5.88.13.14.2.3.23.49.3 2.26-1.7 7.1-2.55 9.35-.24.68-.23 1.2.05 1.56 1.73 2.28 3.29 4.68 4.69 7.21.1.18.25.27.45.26l3.1-.02 9.61-.73c.2-.02.36.06.48.22 1.99 2.91 3.6 6.02 4.8 9.34.06.15-.02.32-.17.38-3.15 1.32-6.1 3.01-8.86 5.04-.18.13-.37.18-.59.15-1.89-.25-2.78 4.31-3.17 5.62-.46 1.56 2.48 3.88 3.37 4.53l2.18 2.75c.14.18.16.36.06.56l-5.82 11.5c-.1.18-.23.23-.41.14-2.27-1.16-4.52-2.32-6.75-3.47-.3-.15-.8-.55-1.51-1.19-1.32-1.19-5.68-.73-5.81 1.65-.19 3.62.15 7.19 1.02 10.7.05.19-.03.3-.22.32l-7.65.8-5 .37c-.45.08-.76-.16-.93-.74l-1.9-3.49c-.2-.37.22-.77.58-.55 2.3 1.41 4.7 2.42 7.19 3.04.11.03.23-.03.27-.14.05-.11 0-.23-.1-.28-1.52-.86-7.09-3.96-8.58-3.81-.18.02-.34-.09-.4-.26-1.45-4.12-3.64-4.74-7.46-6.03-.19-.06-.38-.05-.56.06-2.85 1.66-6.11 5.29-8.61 7.58-.12.11-.24.12-.38.03l-6.9-4.69c-.16-.12-.23-.27-.18-.47l3.12-12.43c.12-.47-.08-.97-.49-1.22-2.3-1.43-4.69-3.29-7.59-2.72-2.73.53-5.58 1.12-8.57 1.77-1.9-3.11-2.5-8.41-3.35-11.42-.06-.22.01-.37.22-.47l8.11-3.4c.65-.27 1.02-.96.89-1.65-.21-1.15-.74-5.08-1.48-6-2-2.52-4.18-4.63-6.54-6.34-.1-.07-.11-.15-.04-.24.03-.04.08-.07.13-.09l6.43-9.92c.11-.16.26-.22.44-.19 2.56.49 5.11.93 7.65 1.28 2.05.29 3.67-.98 4.97-2.35.62-.66 2.05-1.39 2.22-2.36.65-3.6 1.45-7.15 2.4-10.66.05-.2.18-.3.38-.3l9.17.02c.19 0 .3.09.34.27l1.73 7.46c.05.22.19.37.4.45l4.69 1.79m-7.33 20.47c-9.34 5.5-5.19 15.44 3.71 17.8 5.92 1.57 12.34-2.7 11.59-9.17-.09-.7-.13-1.27-.14-1.71-.09-3.09-2.47-5.2-5-6.5-3.47-1.79-6.59-2.52-10.16-.42m34.16 7.81c.97.78 7.36-.98 8.74-1.41.19-.06.27-.19.24-.39l-.02-.14c-.01-.1-.07-.14-.16-.12l-8.81 1.47c-.2.03-.31.26-.22.44.06.1.14.15.23.15m-50.49 1.01c0-.38-.8-.68-1.78-.67-.98.01-1.77.32-1.77.7 0 .38.8.68 1.78.67.98-.01 1.77-.32 1.77-.7m46.92 2.42c-.12.22.03.48.28.48 1.24.01 8.67-.39 9.17-1.49.08-.19-.08-.39-.28-.35-2.76.52-5.52.82-8.3.89-.4.02-.69.17-.87.47m-53.26 1.56c1.21.62 2.51.94 3.9.97.21.01.39-.15.41-.36.02-.21-.11-.4-.32-.44l-3.52-.72c-.15-.03-.29.01-.4.12l-.12.13c-.09.09-.06.24.05.3m50.91 4.14c2.41.01 4.78-.35 7.09-1.09.17-.06.29-.21.29-.39v-.26c0-.22-.11-.3-.32-.25-1.06.26-7.16.95-7.37 1.28-.2.31-.02.71.31.71m-52.85-.66 4.94.85c.27.04.45-.06.56-.3.21-.47-.06-.66-.51-.69-1.6-.09-3.17-.35-4.71-.8-.66-.2-.87.02-.63.65.06.16.19.26.35.29m-6.47 3.27c4.24.96 8.47 1.26 12.69.9.36-.03.78.09.89-.39.05-.24-.13-.46-.37-.47-4.28-.06-8.52-.46-12.72-1.2-.29-.05-.49-.05-.61 0-.54.25-.45 1.03.12 1.16m65.48-.05c-.03-.24-.24-.41-.48-.38l-6.42.74c-.24.03-.41.24-.38.48l.03.26c.03.24.24.41.48.38l6.42-.74c.24-.03.41-.24.38-.48l-.03-.26m-2.39 3.11c-.03-.21-.22-.34-.43-.31l-2.13.33c-.2.03-.34.23-.31.43l.01.03c.03.21.22.34.43.31l2.13-.33c.2-.03.34-.23.31-.43l-.01-.03m-12.04 19.53c.07-.21-.03-.43-.24-.5l-2.88-1.02c-.21-.07-.43.04-.5.24l-.01.03c-.07.21.03.43.24.5l2.88 1.02c.21.07.43-.04.5-.24l.01-.03m-2.42 1.69c.08-.19-.02-.4-.21-.48l-4.5-1.78c-.19-.07-.4.02-.48.21l-.01.03c-.08.19.02.4.21.48l4.5 1.78c.19.07.4-.02.48-.21l.01-.03z" class="st29"/>
  <path d="M338.84 287.53c-.22.04-.44-.01-.69-.14-.15-.09-.21-.28-.13-.44.2-.38.26-.78.2-1.2-.03-.22-.32-.27-.43-.09-.29.5-.48 1.03-.57 1.6-.03.17-.12.29-.28.36-.29.13-.61.19-.95.18.85-2.24 2.84-7.08 2.55-9.35-.03-.19-.1-.35-.23-.49-2.45-2.62-6.48-4.14-9.52-5.88-.31-.18-.7-.12-.95.12l-6.23 6.23c-.15.15-.37.19-.57.11l-1.6-.68-.1-.26c-.11-.28-.02-.39.28-.32l1.4.32c.18.04.34 0 .47-.12.87-.79 3.25-2.61 2.6-3.83-.2-.36-.69-.43-.98-.14l-1.99 2.07c-.2.22-.57.07-.59-.23l-.01-.33 6.5-6.64c.52-.53 1.35-.62 1.97-.2 2.13 1.43 4.38 2.74 6.74 3.95 2.91 1.49 6.33 3.46 5.83 7.29-.24 1.89-1.15 4.59-2.72 8.11z" class="st26"/>
  <path d="M315.4 273.08c.62.21 4.81 2.2 5.13 1.96l.01.33c.01.3.38.44.59.23l1.99-2.07c.28-.3.78-.23.98.14.65 1.22-1.73 3.04-2.6 3.83-.13.12-.29.16-.47.12l-1.4-.32c-.3-.07-.39.04-.28.32l.1.26-2.33-.84.15-.27c.1-.18.06-.31-.14-.4l-4.12-1.76c-.13-.06-.22-.15-.26-.3l-.53-1.85c-.07-.24.1-.49.36-.52l.81-.06c.22-.02.36.09.41.31.22 1.11.75 1.41 1.6.89zM281.37 282.01c-1.07 1.83-2.24 3.41-3.72 4.95-.35.36-.97.04-.86-.45.23-1.06 1.12-2.15 1.57-2.9 1.85-3.04 2.65-6.43 7.12-3.74.16.1.35.14.54.13 1.43-.1 2.84.09 4.22.54.32.11.34.25.04.41-1.03.6-2.09.63-3.18.11-.15-.07-.32-.11-.48-.09l-2.12.19c-.16.02-.33-.03-.47-.12-1.16-.76-2.04-.09-2.66.97z" class="st28"/>
  <path d="m420.39 281.01-.02 44.52c0 .18-.19.3-.35.23-6.72-2.89-13.69-4.56-20.89-5-18.5-1.16-34.83 4.03-48.99 15.58-.06.05-.15-.02-.11-.09 2.72-5.23 4.55-8.96 5.5-11.21.45-1.06-.07-2.31-1.56-3.75 23.37-11.22 45.17-24.75 65.41-40.58.27-.23.6-.12 1.01.3z" class="st32"/>
  <path d="m137.19 346.07-.69.14c-.21-.31-.27-.6-.19-.88 4.18-13.35 8.34-26.73 12.5-40.13.06-.19.18-.34.35-.44 10.36-6 20.05-12.95 29.08-20.82.16-.14.41-.02.41.19l.03 33.56c0 .32-.15.63-.41.83-12.74 9.63-26.02 18.2-39.86 25.68-.74.39-1.14 1.07-1.22 1.87z" class="st33"/>
  <path d="m338.84 287.53-.14.35c-.06.16-.04.31.07.45l4.3 5.38c-.2.05-.32.24-.36.59-.02.18.07.28.24.29 1.81.11 4.59-.86 5.45-.37.82.47.48 1.72-.46 1.7-.59-.01-6.15-.39-5.81.6.05.16.16.24.34.25l1.81.05-3.1.02c-.2.01-.36-.09-.45-.26-1.39-2.53-2.95-4.93-4.69-7.21-.27-.36-.29-.88-.05-1.56.35.01.66-.05.95-.18.15-.07.25-.19.28-.36.09-.57.28-1.1.57-1.6.11-.19.39-.13.43.09.06.41 0 .82-.2 1.2-.08.15-.02.35.13.44.24.12.47.17.69.13zM276.28 291.55c-.05.02-.1.05-.13.09-.07.09-.06.17.04.24 2.36 1.71 4.54 3.82 6.54 6.34.73.92 1.27 4.85 1.48 6 .13.69-.24 1.37-.89 1.65l-8.11 3.4c-.21.09-.28.24-.22.47.85 3.01 1.45 8.31 3.35 11.42-.05.29.02.55.18.78.06.07.13.11.23.12.06 0 .12 0 .18-.01.14-.01.22.14.15.26-.52.8-1.22 1.19-2.12 1.2-.2 0-.31-.1-.31-.31v-.99c0-.19-.09-.32-.25-.41-.28-.15-.46-.37-.53-.68-.04-.18-.13-.32-.26-.44-.67-.59-.93-1.34-.77-2.24.04-.22-.05-.39-.25-.48l-.29-.14c-.18-.09-.35-.06-.49.09l-.22.21c-.56-3.13-1.38-6.1-2.45-8.9-.26-.68.02-1.45.65-1.8 2.76-1.52 5.62-2.81 8.6-3.87.18-.06.26-.19.24-.38l-.19-2.3c-.01-.14-.07-.28-.16-.39-2.11-2.45-4.33-4.64-6.67-6.57-.48-1.13-.52-2.08-.14-2.86.09-.18.11-.38.06-.57-.15-.6-.51-.87-1.05-.8-.18.02-.35.11-.47.24-.56.61-1.27.98-2.14 1.12-.19.03-.34.12-.44.27-.26.37-.62.48-1.1.35-.21-.06-.37.01-.49.19-.49.76-1.2 1.07-2.12.94-.79-.11-1.39.7-1.04 1.42 1.02 2.1 2.97 4.97 1.65 7.45-.74 1.4-1.46 2.9-2.16 4.48-.72.8-1.76 1.32-3.14 1.57.54-.62.11-.73-1.28-.33-1.31.37-2.62 0-4.08.43-.76.22-1.51 1.17-2.33.84-.41-.16-.41-.76.01-.91l6.69-2.55c.22-.09.32-.24.32-.47-.01-.24-.06-.39-.15-.44l2.08-.57c.19-.05.34-.17.42-.35l1.55-3.2c.09-.18.1-.36.03-.54l-.54-1.41c.16-.84.03-1.88-.41-3.12-.24-.67-.22-1.36.05-2.06.07-.19.2-.33.38-.41 3.66-1.73 7.28-3.49 10.86-5.31.6-.3 1.33-.05 1.61.56.45.96.31 1.97-.4 3.03-.36.48-.05.64.44.65z" class="st28"/>
  <path d="M273.61 293.89c-.97-.37-1.41-1.14-1.32-2.28.02-.26-.09-.34-.32-.22l-5.85 2.85c-.18.09-.26.3-.18.48.65 1.58 2.24 4.39 1.54 6.08-.74 1.79-1.86 3.57-3.33 5.33.7-1.58 1.43-3.07 2.16-4.48 1.31-2.49-.64-5.36-1.65-7.45-.35-.72.25-1.53 1.04-1.42.92.13 1.63-.18 2.12-.94.12-.18.28-.24.49-.19.48.13.85.02 1.1-.35.11-.15.26-.24.44-.27.86-.14 1.57-.52 2.14-1.12.12-.13.28-.22.47-.24.55-.07.9.19 1.05.8.05.19.03.39-.06.57-.36.76-.32 1.72.16 2.85z" class="st26"/>
  <path d="M273.61 293.89c2.33 1.93 4.56 4.12 6.67 6.57.1.11.15.25.16.39l.19 2.3c.02.19-.07.32-.24.38-2.97 1.06-5.84 2.35-8.6 3.87-.64.35-.91 1.12-.65 1.8 1.07 2.81 1.89 5.77 2.45 8.9.55 2.23 1.33 4.21 2.35 5.95.31.52.92.79 1.51.66l11.41-2.52c.2-.05.4.01.56.13l1.65 1.32c.13.11.18.24.14.4-.89 3.66-1.52 7.69-2.83 11.21-.71 1.9 2.55 3.83 4.01 4.9l-7.69.06c-1.11-3.89-1.27-7.46-6.79-6.7-1.89.26-2.97 2.87-3.74 4.36-.06.11-.2.12-.28.04l-6.85-7.14c-.11-.12-.13-.26-.05-.4l2.43-4.16c.31-.53.23-1.21-.2-1.65l-4.03-4.1c-.15-.16-.36-.26-.58-.29l-5.32-.69c-.2-.03-.35-.12-.44-.3-1.62-2.92-2.91-5.98-3.85-9.19-.06-.2.02-.34.22-.4l5.81-1.91c1.37-.24 2.42-.77 3.14-1.57 1.47-1.77 2.58-3.54 3.33-5.33.7-1.69-.89-4.49-1.54-6.08-.07-.18.01-.39.18-.48l5.85-2.85c.23-.11.34-.04.32.22-.11 1.16.33 1.92 1.3 2.3z" class="st30"/>
  <path d="M350.85 317.97c-.79.45-1.38.01-1.77-1.34-.14-.49-.65-.78-1.15-.65-.49.13-.8.62-.68 1.12.24 1.06 1.07 2.48 2.5 4.26-.89-.65-3.83-2.98-3.37-4.53.39-1.31 1.28-5.87 3.17-5.62.22.03.41-.02.59-.15 2.76-2.03 5.7-3.72 8.86-5.04.15-.06.23-.23.17-.38-1.2-3.32-2.81-6.43-4.8-9.34-.11-.16-.27-.24-.48-.22l-9.61.73-1.81-.05c-.17-.01-.28-.09-.34-.25-.34-.98 5.22-.6 5.81-.6.94.01 1.28-1.24.46-1.7-.86-.49-3.64.49-5.45.37-.18-.01-.26-.11-.24-.29.04-.34.16-.53.36-.59 5.4-.63 9.4-.99 11.99-1.06 2.53-.07 7.32 11.86 7.89 13.82.27.97-.38 1.65-1.27 2.02-3.69 1.53-7.16 3.44-10.43 5.73-1.49 1.05-2.04 2.54-.4 3.76m6.72-17.96c.9 1.69 1.63 3.35 2.19 5 .24.71-.1 1.49-.8 1.79-2.83 1.22-5.48 2.76-7.93 4.61-.19.15-.18.44.04.56 1.89 1.03 2.55-.47 3.79-1.09 1.86-.93 4.82-3.11 6.81-3.2.41-.02.62-.51.34-.81-1.11-1.22-.72-2.52-1.2-3.74-.47-1.19-3.23-8.1-4.93-7.23-.48.24-.57.9-.17 1.26.95.84 1.28 1.77 1.86 2.85z" class="st26"/>
  <path d="M357.57 300.01c-.57-1.08-.9-2.01-1.85-2.85-.4-.36-.31-1.01.17-1.26 1.7-.86 4.45 6.04 4.93 7.23.48 1.22.09 2.52 1.2 3.74.28.31.07.8-.34.81-1.98.09-4.94 2.28-6.81 3.2-1.25.62-1.91 2.11-3.79 1.09-.22-.12-.23-.41-.04-.56 2.45-1.85 5.1-3.39 7.93-4.61.69-.3 1.03-1.08.8-1.79-.57-1.65-1.3-3.31-2.2-5z" class="st28"/>
  <path d="M313.49 315.31c-8.9-2.37-13.05-12.3-3.71-17.8 3.57-2.1 6.69-1.37 10.16.42 2.53 1.3 4.91 3.41 5 6.5.01.44.06 1.01.14 1.71.76 6.47-5.67 10.75-11.59 9.17m-5.8-13.27c-3.79 6.02 2.81 11.81 8.16 12.07 4.84.23 9-4.75 7.87-9.61-.95-4.08-4.95-6.53-8.99-6.69-3.1-.13-5.48 1.75-7.04 4.23z" class="st26"/>
  <path d="M315.85 314.11c-5.35-.26-11.95-6.05-8.16-12.07 1.57-2.48 3.95-4.36 7.05-4.24 4.04.16 8.04 2.61 8.99 6.69 1.12 4.87-3.04 9.85-7.88 9.62z" class="st30"/>
  <path d="M343.94 305.32c-.1 0-.18-.05-.23-.15-.1-.18.01-.4.22-.44l8.81-1.47c.1-.02.15.03.16.12l.02.14c.03.2-.06.33-.24.39-1.37.43-7.77 2.19-8.74 1.41zM260.19 304.26c.1.05.15.2.15.44.01.23-.1.39-.32.47l-6.69 2.55c-.42.16-.43.75-.01.91.83.33 1.57-.62 2.33-.84 1.47-.43 2.77-.06 4.08-.43 1.39-.4 1.82-.29 1.28.33l-5.81 1.91c-.2.06-.27.2-.22.4.94 3.2 2.23 6.27 3.85 9.19.1.18.24.27.44.3l5.32.69c.22.03.43.13.58.29l4.03 4.1c.43.44.52 1.11.2 1.65l-2.43 4.16c-.09.14-.07.28.05.4l6.85 7.14c.09.09.23.07.28-.04.78-1.48 1.86-4.1 3.74-4.36 5.52-.77 5.68 2.81 6.79 6.7-.86-.35-1.33-.8-1.41-1.36-.1-.69-.92-.99-1.45-.54-.4.35-.5.74-.28 1.18.07.15.12.32.15.49.17 1.16.7 2.14 1.58 2.92.15.13.35.2.55.2l13.16-.08c.13 0 .25.03.36.1.77.45 1.61.72 2.51.81.23.02.45-.13.5-.36l.22-.93c.03-.13.1-.2.23-.2.85-.05 5.52-5.03 6.41-5.91.13-.12.28-.2.46-.24.76-.13 1.47-.02 2.11.33.16.09.35.11.52.08.56-.11 1.03.05 1.43.47.12.13.28.21.46.22 1.39.09 1.11 1.36 1.43 2.21 1.04 2.78 2.33 5.46 3.86 8.05.11.19.28.31.5.35 1.65.3 3.28.28 4.91-.05.39-.08.66-.41.68-.8.05-1.28-2.96-.77-3.91-.73-.24.01-.41-.24-.3-.46.09-.16.24-.31.47-.44l5-.37-.32 1.56c-.05.2.06.4.25.48 1.14.49 2.33.61 3.6.36.19-.03.31.19.18.32-.18.18-.49.36-.94.54-2.6.24-5.23.41-7.9.49-1.53.05-2.6-.48-3.21-1.6-1.64-2.75-3.01-5.64-4.11-8.66-.08-.22-.23-.37-.44-.46l-2.91-1.22c-.18-.07-.35-.06-.51.06-2.23 1.62-4.3 3.53-6.23 5.73l-1.89 1.8c-.13.12-.3.2-.48.22-.8.07-1.4-.05-1.81-.36-.67-.76-.71-.7-1.78-.71-4.04-.05-8.08-.01-12.13.1-2.43.07-3.48-4.35-3.69-5.98-.13-1.02-1.47-1.3-2-.43-1.62 2.63-3.39 7.12-7.27 2.85-2.64-2.9-5.3-5.6-7.97-8.07-.53-.49-.65-1.3-.27-1.91l2.63-4.29c.09-.14.09-.29-.01-.43l-2.11-2.99c-.11-.16-.27-.23-.46-.21-2.5.26-5.72 1.22-7.25-1.44-1.46-2.52-2.64-5.16-3.54-7.93-.72-2.2-2.32-5.19.91-6.3 2.34-.82 4.68-1.62 7.02-2.42m10.94 35.02c.99 1.19 2.17 1.69 3.53 1.51.7-.1 1.32-.53 1.64-1.16l1.66-3.24c.09-.17.29-.26.48-.2 1.32.38 2.06-.06 2.23-1.32.02-.2-.06-.33-.25-.39-3.49-1.14-4.95 1.85-6.03 4.43-.18.43-.77.45-.99.05-.89-1.6-2.08-2.94-3.59-4.03-.73-.53-1.68.28-1.27 1.09.54 1.07 1.75 2.25 2.59 3.26zM293.45 306.33c0 .38-.79.69-1.77.7-.98.01-1.78-.3-1.78-.67 0-.38.79-.69 1.77-.7.98-.01 1.78.29 1.78.67zM340.37 308.75c.18-.3.47-.45.87-.47 2.78-.07 5.54-.37 8.3-.89.2-.03.36.16.28.35-.49 1.1-7.93 1.49-9.17 1.49-.24.01-.39-.26-.28-.48zM287.11 310.31c-.11-.06-.14-.21-.05-.3l.12-.13c.11-.11.24-.15.4-.12l3.52.72c.2.04.34.23.32.44-.02.2-.2.36-.41.36-1.39-.03-2.69-.35-3.9-.97zM338.02 314.45c-.33 0-.51-.4-.31-.7.22-.33 6.32-1.02 7.37-1.28.21-.05.32.03.32.25v.26c0 .18-.12.34-.29.39-2.31.73-4.68 1.09-7.09 1.08zM285.17 313.79c-.15-.03-.28-.14-.35-.28-.24-.63-.03-.85.63-.65 1.54.45 3.11.71 4.71.8.45.02.72.22.51.69-.11.24-.3.34-.56.3l-4.94-.86zM485.83 318.79c0 3.16-2.57 5.73-5.73 5.73-3.16 0-5.73-2.57-5.73-5.73s2.57-5.73 5.73-5.73c3.16-.01 5.73 2.56 5.73 5.73m-1.04 0c0-2.58-2.09-4.67-4.67-4.67s-4.67 2.09-4.67 4.67 2.09 4.67 4.67 4.67c2.57 0 4.67-2.1 4.67-4.67z" class="st26"/>
  <path d="M484.79 318.79c0 2.58-2.09 4.67-4.67 4.67s-4.67-2.09-4.67-4.67 2.09-4.67 4.67-4.67c2.57 0 4.67 2.09 4.67 4.67z" class="st0"/>
  <path d="M278.7 317.06c-.57-.13-.66-.91-.12-1.16.11-.05.32-.05.61 0 4.2.74 8.44 1.14 12.72 1.2.24.01.43.23.37.47-.11.47-.53.36-.89.39-4.22.36-8.45.06-12.69-.9zM344.21 317.27c.03.23-.14.45-.38.48l-6.42.74c-.24.03-.45-.14-.48-.38l-.03-.26c-.03-.23.14-.45.38-.48l6.42-.74c.24-.03.45.14.48.38l.03.26zM278.35 321.15c2.98-.64 5.84-1.23 8.57-1.77 2.9-.57 5.29 1.29 7.59 2.72.41.26.61.75.49 1.22l-3.12 12.43c-.05.2.01.35.18.47l6.9 4.69c.14.1.26.09.38-.03 2.49-2.29 5.75-5.92 8.61-7.58.18-.1.36-.12.56-.06 3.82 1.3 6.01 1.91 7.46 6.03.06.17.23.28.4.26 1.49-.15 7.07 2.95 8.58 3.81.1.06.14.18.1.28-.04.11-.15.16-.27.14-2.49-.62-4.89-1.63-7.19-3.04-.36-.22-.78.18-.58.55l1.9 3.49c-.15.24-.37.37-.66.39-.19.01-.32-.07-.39-.23l-1.76-3.79c-.07-.15-.16-.27-.28-.38-.27-.24-.41-.56-.43-.94-.01-.19-.08-.35-.2-.49-.52-.59-.87-1.28-1.07-2.07-.05-.19-.14-.35-.28-.49-1.7-1.62-3.72-2.35-6.05-2.18-.2.01-.4.09-.56.23l-7.89 6.95c-.18.15-.35.16-.54.03l-6.46-4.51c-.55-.39-1.27.2-.99.82.31.69.81 1.14 1.51 1.36.14.05.23.19.21.34-.02.15-.15.26-.3.26-.15.01-.28.03-.37.1-1.45-1.06-4.72-2.99-4.01-4.9 1.31-3.52 1.94-7.55 2.83-11.21.04-.16-.01-.29-.14-.4l-1.65-1.32c-.16-.12-.36-.18-.56-.13l-11.41 2.52c-.59.13-1.2-.14-1.51-.66-1.02-1.74-1.81-3.73-2.35-5.95l.22-.21c.14-.14.31-.17.49-.09l.29.14c.2.1.29.26.25.48-.16.9.1 1.65.77 2.24.13.12.22.26.26.44.07.3.25.53.53.68.16.09.25.22.25.41v.99c0 .2.1.31.31.31.9-.01 1.61-.4 2.12-1.2.07-.11-.01-.26-.15-.26-.06.01-.12.01-.18.01-.1-.01-.17-.05-.23-.12-.16-.23-.23-.49-.18-.78m9.27.35c1.57-.38 2.79.05 3.67 1.28.35.49 1.03.86.57 1.66-.09.15-.13.32-.13.5 0 1.19-.14 2.37-.43 3.56-.05.19.02.32.2.39 1.26.48 2.36-4.4 2.59-5.19.13-.45-.06-.93-.47-1.17l-3.65-2.11c-.2-.11-.41-.17-.64-.17-2.78.04-5.49.49-8.14 1.34-.17.05-.18.11-.01.19.64.28 1.28.46 1.93.52.19.02.37-.01.55-.09.96-.44 3.11-.11 3.5-.48.13-.1.28-.18.46-.23zM341.8 320.16c.03.2-.11.4-.31.43l-2.13.33c-.2.03-.4-.11-.43-.31l-.01-.03c-.03-.2.11-.4.31-.43l2.13-.33c.2-.03.4.11.43.31l.01.03z" class="st26"/>
  <path d="M287.16 321.75c-.39.37-2.54.04-3.5.48-.17.07-.36.1-.55.09-.64-.06-1.28-.24-1.93-.52-.16-.07-.16-.14.01-.19 2.65-.85 5.36-1.3 8.14-1.34.23 0 .44.06.64.17l3.65 2.11c.41.24.6.72.47 1.17-.23.79-1.33 5.67-2.59 5.19-.18-.07-.25-.2-.2-.39.29-1.18.43-2.37.43-3.56 0-.18.05-.35.13-.5.46-.8-.23-1.18-.57-1.66-.88-1.23-2.1-1.66-3.67-1.28-.18.03-.33.11-.46.23z" class="st28"/>
  <path d="M163.59 369.7c-12.96 7.67-26.5 14.54-40.61 20.61l-.44.17c-.15.06-.3-.09-.25-.24l13.43-43.02c.06-.19.16-.36.3-.5l.49-.53.69-.14c1.48 1.12 2.64.08 4.04-.73 12.94-7.4 25.35-15.59 37.24-24.56.18-.14.27-.09.27.14l.38 38.63c.01.27-.14.53-.36.67l-15.18 9.5z" class="st29"/>
  <path d="M454.84 381.26c1.18 8.27.56 15.82-2.3 23.59l-1.26 2.7c-.11.24-.19.23-.22-.03-.06-.52.05-1.07.33-1.65 2.19-11.38 1.28-22.47-2.74-33.27l-1.41-3.31c-4.34-9.46-12.68-20.77-22.22-25.47-.35-.16-.8-.13-1.36.11l-3.25-2.33c-1.87-.97-3.31-2.55-5.22-3.31-1.68-.66-2.82-1.6-4.92-2.48-5.45-5.05-11.41-8.11-18.48-10.38-.46-.15-.45-.23.03-.24 10.74-.3 20.79 1.89 30.16 6.56 11.24 5.61 17.89 13.87 24.19 24.43 4.69 7.82 7.36 16.2 8.67 25.08z" class="st34"/>
  <path d="m410.17 336.06 4.96 2.65c.17.1.3.23.4.4.63 1.12 1.53 1.95 2.69 2.51.16.08.35.07.51-.03.59-.37 1.13-.25 1.62.37l3.03 2.17c-.28.75-.31 1.29.32 1.89 1.3 1.26 2.77 2.45 4.41 3.59.37.64.9 1.12 1.58 1.43 4.58 4.24 8.4 8.86 11.47 13.88l.62 1c7.05 12.82 9.1 26.46 6.14 40.91-.56 2.38-1.39 7.36-3.16 9.04-6.19 5.88-15.46 9.37-23.79 10.53-.21.03-.28-.06-.23-.26 2.13-7.79 2.95-15.69 2.45-23.69-.7-11.29-3.8-21.83-9.28-31.61-9.97-16.93-25.13-28.65-43.87-34.09-3.36-.98-6.73-1.4-10.15-1.53-.14-.01-.18-.18-.07-.26 5.58-3.47 16.43-8.85 23.08-8.18 9.83 1 17.7 4.61 25.95 10 .16.11.38.1.53-.03l.79-.69z" class="st29"/>
  <path d="M271.13 339.28c-.84-1.01-2.05-2.19-2.6-3.27-.41-.81.54-1.61 1.27-1.09 1.51 1.09 2.7 2.43 3.59 4.03.22.4.81.37.99-.05 1.08-2.58 2.55-5.57 6.03-4.43.19.06.27.19.25.39-.16 1.26-.91 1.7-2.23 1.32-.19-.05-.39.03-.48.2l-1.66 3.24c-.32.63-.94 1.06-1.64 1.16-1.35.19-2.53-.31-3.52-1.5z" class="st28"/>
  <path d="m193.57 371.24.6-.73c.1-.12.23-.18.39-.19 2.16-.12 4.77-.84 6.22-1.11 31.39-5.71 62.26-13.51 92.59-23.39 1.47-.48 2.77-1.23 4.74-1.41.41.31 1.01.43 1.81.36.18-.02.35-.1.48-.22l1.89-1.8 9.21-3.46c.22-.08.47.03.55.25 1.02 2.75 2.28 5.39 3.78 7.91.1.16.24.22.43.16.13-.04.2-.14.22-.31.61 1.11 1.68 1.65 3.21 1.6 2.68-.09 5.31-.25 7.9-.49 2.98-.28 5.49-.65 7.54-1.11 1.49-.34 1.62-1.57 1.23-2.9-.93-3.12-1.37-6.32-1.34-9.62 0-.32.39-.47.61-.24 2.06 2.16 7.62 4.31 10.37 5.66.16.08.18.18.06.31-7.94 8.72-12.86 18.94-14.75 30.65-.04.23-.17.34-.4.33-1.64-.06-3.29.13-4.81.13-40.17.01-80.33.06-120.49-.23-3.73-.03-7.45.02-11.19.15-.14-.01-.42-.11-.85-.3z" class="st32"/>
  <path d="M318.91 344.76c.16.57.47.82.93.74-.23.12-.38.27-.47.44-.11.22.05.47.3.46.95-.04 3.95-.55 3.91.73-.01.39-.29.72-.68.8-1.62.34-3.26.35-4.91.05-.22-.04-.39-.15-.5-.35-1.53-2.59-2.82-5.27-3.86-8.05-.32-.85-.04-2.12-1.43-2.21-.18-.01-.34-.09-.46-.22-.39-.43-.86-.59-1.43-.47-.18.03-.36.01-.52-.08-.65-.35-1.35-.46-2.11-.33-.18.03-.33.11-.46.24-.89.89-5.56 5.87-6.41 5.91-.13.01-.2.07-.23.2l-.22.93c-.05.23-.27.39-.5.36-.9-.09-1.73-.35-2.51-.81-.11-.06-.23-.1-.36-.1l-13.16.08c-.2 0-.4-.07-.55-.2-.88-.78-1.41-1.76-1.58-2.92-.03-.17-.08-.34-.15-.49-.22-.44-.12-.84.28-1.18.53-.45 1.35-.15 1.45.54.09.56.56 1.02 1.41 1.36l7.69-.06c.1-.06.22-.09.37-.1.15 0 .28-.11.3-.26.02-.15-.07-.29-.21-.34-.7-.22-1.2-.68-1.51-1.36-.28-.62.44-1.2.99-.82l6.46 4.51c.19.13.36.12.54-.03l7.89-6.95c.15-.14.35-.22.56-.23 2.33-.16 4.35.56 6.05 2.18.14.14.23.3.28.49.2.79.56 1.48 1.07 2.07.12.14.19.3.2.49.02.38.16.7.43.94.12.11.21.23.28.38l1.76 3.79c.07.16.2.24.39.23.31.02.53-.11.68-.36z" class="st28"/>
  <path d="M410.29 335.81c2.1.87 3.24 1.81 4.92 2.48 1.91.76 3.35 2.35 5.22 3.31l-.07.35c-.49-.62-1.03-.74-1.62-.37-.15.1-.34.11-.51.03-1.16-.55-2.06-1.39-2.69-2.51-.1-.17-.23-.3-.4-.4l-4.96-2.65c.12.13.16.05.11-.24z" class="st26"/>
  <path d="M316.48 347.29c-.02.17-.09.27-.22.31-.19.06-.33 0-.43-.16-1.51-2.52-2.77-5.16-3.78-7.91-.08-.22-.32-.33-.55-.25l-9.21 3.46c1.93-2.2 4-4.11 6.23-5.73.16-.11.33-.13.51-.06l2.91 1.22c.21.09.36.24.44.46 1.09 3.03 2.46 5.91 4.1 8.66z" class="st30"/>
  <path d="M329.74 339.69c-.07.2-.29.31-.5.24l-2.88-1.02c-.21-.07-.31-.29-.24-.5l.01-.03c.07-.2.29-.31.5-.24l2.88 1.02c.21.07.31.29.24.5l-.01.03z" class="st26"/>
  <path d="M358.69 416.58c.06-.41-.05-.75-.32-1-17.74-16.03-15.22-43.27-8.6-63.81 1.2-3.73 2.36-7.64 3.48-11.73.32-.53.78-.86 1.39-.98 11.73-2.25 26.64 4.61 35.78 11.1 24.65 17.51 34.93 47.45 26.88 76.57-.05.16-.16.26-.33.28-20.48 2.45-39.84-.65-58.28-10.43z" class="st34"/>
  <path d="M327.32 341.37c-.08.19-.29.28-.48.21l-4.5-1.78c-.19-.08-.28-.29-.21-.48l.01-.03c.08-.19.29-.28.48-.21l4.5 1.78c.19.08.28.29.21.48l-.01.03z" class="st26"/>
  <path d="M353.24 340.04c-1.12 4.09-2.28 8-3.48 11.73-6.62 20.55-9.14 47.78 8.6 63.81.28.25.39.59.32 1-8.88-4.64-16.38-11.17-21.12-20.14-.07-.13.09-.27.21-.18l.7.53c.55.41 1.27-.22.93-.82-.58-1.01-1.43-1.62-2.55-1.85-.19-.04-.32-.15-.38-.34-2.33-6.71-2.58-15.46-1.22-22.35 2.42-12.2 8.41-22.66 17.99-31.39m-11.55 22.08c.33-.4.11-1.13-.5-1.64s-1.37-.61-1.7-.22c-.33.4-.11 1.13.5 1.64.61.52 1.37.62 1.7.22m-.53 5.41c.25-.36-.19-1.09-.97-1.62-.78-.54-1.62-.69-1.86-.33-.25.36.19 1.09.97 1.62.77.54 1.61.69 1.86.33m-1.05 6.24c.27-.34.22-.83-.12-1.1l-2.75-2.2c-.34-.27-.83-.22-1.1.12l-.04.05c-.27.34-.22.83.12 1.1l2.75 2.2c.34.27.83.22 1.1-.12l.04-.05m.58 5.19c.3-.36.25-.89-.11-1.19l-3.77-3.13c-.36-.3-.89-.25-1.19.11l-.17.21c-.3.36-.25.89.11 1.19l3.77 3.13c.36.3.89.25 1.19-.11l.17-.21m-5.31 1.34 3.49 3.57c.16.16.42.17.59.01l.23-.23c.49-.48.22-1.55-.6-2.39l-1.11-1.13c-.82-.84-1.88-1.14-2.37-.65l-.23.22c-.16.18-.16.44 0 .6m.25 5.21 3.43 3.37c.1.1.26.1.36 0l.19-.19c.5-.51.22-1.59-.62-2.42l-.73-.72c-.85-.84-1.94-1.1-2.43-.6l-.19.19c-.11.11-.11.28-.01.37m4.54 7.57c.3-.34.27-.85-.06-1.15l-2.47-2.22c-.34-.3-.85-.27-1.15.06l-.05.05c-.3.34-.27.85.06 1.15l2.47 2.22c.34.3.85.27 1.15-.06l.05-.05z" class="st35"/>
  <path d="m420.43 341.6 3.25 2.33c-.06.09-.15.15-.3.19l-3.03-2.17.08-.35z" class="st28"/>
  <path d="M112.93 345.51c.75 1.37.93 2.96.53 4.76-.73 1.8-1.9 3-3.51 3.6-6.37 2.36-10.84-6.56-5.15-10.16 2.88-1.83 6.21-.98 8.13 1.8m-.32 2.96c0-2.58-2.09-4.68-4.68-4.68-2.58 0-4.68 2.09-4.68 4.68 0 2.58 2.09 4.68 4.68 4.68s4.68-2.09 4.68-4.68z" class="st26"/>
  <path d="M112.61 348.47c0 2.58-2.09 4.68-4.68 4.68-2.58 0-4.68-2.09-4.68-4.68 0-2.58 2.09-4.68 4.68-4.68 2.59.01 4.68 2.1 4.68 4.68z" class="st27"/>
  <path d="M447.25 369.29c-.18.05-.3.31-.36.78-.05.37-.15.38-.29.04-.95-2.27-3.32-8.35-5.51-7.79-.19.05-.27.16-.26.36.03.43.16.82.4 1.16.12.17.18.36.19.56.01.44-.09.62-.27.52-3.07-5.02-6.89-9.64-11.47-13.88 2.18.95 3.94 2.37 5.31 4.27.81 1.12 1.49 1.97 2.06 2.53.17.17.45.11.55-.1l.57-1.25c.05-.12.03-.23-.06-.32-.73-.69-1.35-1.48-1.85-2.39-.09-.16-.2-.3-.34-.41-1.47-1.22-2.74-2.89-4.04-3.94-.99-.79-6.19-5.16-7.59-4.48-.24.12-.26.26-.05.44 1.48 1.19 2.77 2.59 3.86 4.21-1.64-1.14-3.11-2.33-4.41-3.59-.63-.6-.6-1.14-.32-1.89.14-.04.24-.1.3-.19.56-.24 1.01-.27 1.36-.11 9.54 4.7 17.88 16.01 22.22 25.47z" class="st26"/>
  <path d="M429.69 351.04c-.68-.31-1.2-.79-1.58-1.43-1.1-1.62-2.39-3.02-3.86-4.21-.21-.18-.19-.32.05-.44 1.4-.69 6.6 3.69 7.59 4.48 1.3 1.05 2.57 2.72 4.04 3.94.14.11.26.25.34.41.5.9 1.12 1.7 1.85 2.39.1.09.11.2.06.32l-.57 1.25c-.1.22-.38.27-.55.1-.56-.56-1.24-1.41-2.06-2.53-1.37-1.91-3.14-3.33-5.31-4.28z" class="st28"/>
  <path d="M447.64 350.25c.64 1.18 1.66 1.82 2.31 2.86 3.24 5.23 5.64 10.89 7.2 16.97.06.23.05.39-.02.45-.23.2-.59.1-.68-.2-1.17-4.14-2.69-8.21-4.56-12.23-.11-.24-.38-.54-.8-.89-.14-.12-.2-.27-.19-.46.08-.83-.25-1.4-.98-1.71-.18-.08-.27-.22-.28-.41-.02-1.26-.65-1.86-1.89-1.8-.21.01-.38-.07-.5-.24-.62-.92-.5-1.7.39-2.34z" class="st26"/>
  <path d="M341.69 362.12c-.33.39-1.09.3-1.7-.22-.61-.51-.84-1.25-.5-1.64.33-.39 1.09-.3 1.7.22.61.52.84 1.25.5 1.64zM447.25 369.29l1.41 3.31c-.29-.07-.51-.05-.65.06s-.19.3-.11.47c.36.78.56 1.6.62 2.45.01.16.07.32.17.45.77 1.04 1.05 2.16.85 3.36-.09.51-.74.68-1.06.27-.79-1-.93-3.54-1.55-4.04-.16-.14-.27-.31-.31-.52-.34-1.85-1.05-3.52-2.14-5.02-.12-.17-.19-.36-.19-.56-.02-.76-.38-1.29-1.07-1.61-.16-.07-.26-.23-.24-.41.09-1.25-.31-1.78-1.2-1.6l-.62-1c.18.1.27-.08.27-.52-.01-.2-.07-.39-.19-.56-.24-.34-.37-.73-.4-1.16-.01-.19.07-.31.26-.36 2.19-.56 4.56 5.53 5.51 7.79.14.34.24.33.29-.04.06-.45.18-.71.35-.76zM476.77 372.27v7.81c0 .15-.1.28-.24.31-.57.14-.86.02-.87-.39-.06-1.7-.05-4.24.04-7.62.01-.2-.09-.3-.29-.31-1.85-.05-6.4.41-7.89-.2-.51-.21-.36-.97.19-.97h7.64c.19 0 .28-.1.28-.28v-7.77c0-.2.18-.36.39-.34l.4.05c.23.03.35.17.35.41v7.64c0 .21.11.32.32.31l7.49-.03c.05 0 .2.09.46.27.13.09.15.23.07.43-.09.25-.27.37-.53.37l-7.47-.03c-.23 0-.34.11-.34.34z" class="st28"/>
  <path d="m179.27 380.84.23 15.12c1.78 2.53 4.05 3.38 6.95 3.02.2-.02.3.24.12.35l-7.91 5.07c-9.17 5.72-18.72 10.96-28.64 15.72-1.64.7-2.97 1.75-4.85 1.76-10.92.02-21.83.07-32.73.18-.21.01-.28-.1-.22-.3l8.74-27.19c.06-.2.19-.35.39-.44l5.49-2.42c13.05-5.94 25.71-12.61 37.96-20.03l14.16-9.07c.15-.1.35.01.35.19-.05 4.31.43 8.49.16 12.72-.11 1.79-.18 3.56-.2 5.32z" class="st33"/>
  <path d="M341.16 367.53c-.25.36-1.08.21-1.86-.33s-1.22-1.26-.97-1.62c.25-.36 1.08-.21 1.86.33.78.53 1.21 1.26.97 1.62z" class="st28"/>
  <path d="M448.67 372.6c4.02 10.8 4.93 21.89 2.74 33.27-.56-.05-.76-.45-.58-1.19.1-.44-.41-.77-.77-.49-.7.56-1.06 1.31-1.06 2.26 0 .21-.1.36-.28.44-.22.1-.48.08-.79-.06 2.96-14.45.91-28.09-6.14-40.91.89-.19 1.29.35 1.2 1.6-.01.18.09.34.24.41.69.32 1.05.85 1.07 1.61.01.2.07.39.19.56 1.09 1.51 1.8 3.18 2.14 5.02.04.21.15.38.31.52.61.49.76 3.04 1.55 4.04.32.4.97.24 1.06-.27.2-1.2-.08-2.32-.85-3.36-.1-.14-.16-.29-.17-.45-.06-.86-.26-1.68-.62-2.45-.07-.16-.03-.36.11-.47s.36-.15.65-.08m2.42 29.22c.2-1.26 1.46-14.86-.49-14.71-.43.03-.75.41-.73.84.19 3.48.25 6.98.18 10.49-.02 1.09-.63 2.3-.37 3.43.18.77 1.29.73 1.41-.05zM163.59 369.7c.75.19.86.56.32 1.11-.18.19-.15.24.1.16l.3-.1c.26-.08.4.01.43.28l.07.52c-12.25 7.42-24.91 14.09-37.96 20.03-.22.02-.35-.1-.38-.34-.03-.19.03-.34.19-.45.99-.7 2.26-1.14 3-2.09.1-.12.09-.3-.02-.42-.11-.11-.28-.14-.42-.05-2.13 1.39-4.21 2.03-6.24 1.95 14.11-6.05 27.64-12.92 40.61-20.6z" class="st26"/>
  <path d="M340.07 373.82c-.27.34-.76.39-1.1.12l-2.75-2.2c-.34-.27-.39-.76-.12-1.1l.04-.05c.27-.34.76-.39 1.1-.12l2.75 2.2c.34.27.39.76.12 1.1l-.04.05z" class="st28"/>
  <path d="M413.92 370.83c5.48 9.79 8.58 20.33 9.28 31.61l-.7-.09c-.19-.02-.29-.13-.3-.32-.05-.95-.4-1.76-.43-2.66-.29-9.14-3.72-19.08-8.08-27.17-.31-.58-.24-1.04.23-1.37z" class="st26"/>
  <path d="M340.52 379.17c-.3.36-.83.41-1.19.11l-3.77-3.13c-.36-.3-.41-.83-.11-1.19l.17-.21c.3-.36.83-.41 1.19-.11l3.77 3.13c.36.3.41.83.11 1.19l-.17.21zM312.05 384.99c-4.43 10.14-20.39 5.47-16.04-4.35.62-1.4.87-2.99 2.61-3.67 4.77-1.87 8.95-1.33 12.53 1.62 1.77 1.48 1.8 4.35.9 6.4m-14.27 1.4c5.49 7.64 16.83-2.99 11.36-6.55-3.51-2.28-7.22-2.3-11.15-.03-.15.09-.27.22-.35.37-1.2 2.34-1.15 4.41.14 6.21z" class="st28"/>
  <path d="M297.78 386.39c-1.3-1.8-1.34-3.87-.13-6.21.08-.15.19-.28.35-.37 3.93-2.27 7.64-2.26 11.15.03 5.47 3.56-5.88 14.18-11.37 6.55z" class="st33"/>
  <path d="M335.38 380.3c-.16-.16-.15-.43.01-.59l.23-.22c.49-.48 1.55-.19 2.37.65l1.11 1.13c.82.84 1.09 1.91.6 2.39l-.23.23c-.16.16-.43.15-.59-.01l-3.5-3.58z" class="st28"/>
  <path d="m181.98 381.45.5 13.16c-.54.12-.88.1-1.02-.07-.39-.47-1.15-.14-1.08.47.11.89-.19 1.21-.89.95l-.23-15.12.18-.7c.05-.19.18-.29.37-.29h.36c.15 0 .28.13.27.28-.05.76.46 1.2 1.54 1.32z" class="st26"/>
  <path d="M205.04 381.83c-.44-.34-.78-.41-.66-1.14.09-.55.72-.84 1.2-.55 4.41 2.67 11.65 6.85 14.42 11.31.2.34-.09.75-.47.67-1.06-.23-2.08-.73-3.08-1.5-3.79-2.94-7.6-5.87-11.41-8.79zM226.1 390.22c-1.34-.96-10.61-7.87-11.03-9.22-.2-.67.56-1.23 1.13-.82 3.16 2.25 6.24 4.53 9.23 6.85 1.22.95 2.1 1.86 2.65 2.76.11.17.05.4-.12.51-.63.38-1.25.36-1.86-.08zM195.26 382.55c-.28-.23-1.01-.62-1.19-1.05-.35-.78.55-1.53 1.26-1.05 4.81 3.33 9.62 6.84 14.41 10.5.54.41.78 1.03.73 1.84-.01.18-.1.29-.26.35-.73.27-1.34.23-1.82-.12-3.14-2.21-7.51-5.7-13.13-10.47z" class="st28"/>
  <path d="M452.55 404.85c2.86-7.78 3.47-15.33 2.3-23.59.76-.64 1.19 3.17 1.43 3.65.08.16.12.33.11.51l-.1 7.87c0 .16-.04.32-.11.47-.29.52-1.99 12.5-3.63 11.09z" class="st26"/>
  <path d="M404.34 432.6c.78.32 1.43.7 1.94 1.13.93.77 1.51 1.21 1.74 1.33 21.93 12.02 46.23 5.82 66.51-6.07.31 5.44-4.01 9.67-8.45 12.25-15.04 8.74-32.32 11.94-49.98 9.79-.22-.03-.28-.14-.17-.34 1.1-1.97-6.03-5.48-7.33-6.04-.17-.07-.36-.03-.49.11-.32.36-.27.69.16.98 2.16 1.49 4.28 3.06 6.35 4.7.19.15.16.19-.07.12-31.25-8.89-63.51-21.97-82.24-50.31-2.11-3.19-2.6-13.04-1.54-16.64.12-.43.2-.42.23.03.12 2 .51 3.82.73 5.9 1.55 14.53 13.27 25.21 25.5 31.57 14.84 7.75 30.54 11.57 47.11 11.49m51.99 10.23c.2-.57-.57-1.36-1.72-1.77-1.15-.4-2.25-.27-2.45.3-.2.57.57 1.36 1.72 1.77 1.16.4 2.26.27 2.45-.3m-4.87 2.39c.25-.45-.54-1.35-1.75-2.01-1.21-.66-2.4-.83-2.64-.38-.25.45.54 1.35 1.75 2.01 1.22.66 2.4.83 2.64.38m-18.71-1.33-.54.96c-.11.2-.04.44.16.56l4.08 2.28c1.48.83 2.87 1.17 3.1.76l.11-.19c.23-.41-.79-1.41-2.27-2.24l-4.08-2.28c-.2-.13-.45-.05-.56.15m7.8 1.54c1.47.1 2.53.6 3.73 1.23.7.37 1.4-.5.89-1.1-1.15-1.36-2.66-1.94-4.52-1.75-.26.03-.38.17-.38.43v.89c0 .19.09.29.28.3m-33.56 1.93c.15-.19.12-.45-.06-.61l-2.51-2.04c-.19-.15-.46-.12-.61.06l-.17.21c-.15.19-.12.45.06.61l2.51 2.04c.19.15.46.12.61-.06l.17-.21m8.49-1.06c3.05 1.37 5.91 2.95 8.57 4.76.53.36 1.26.05 1.35-.59.22-1.45-8.25-5.09-9.56-5.51-.34-.11-.7.03-.89.34-.24.4-.06.73.53 1m9.27-.12 6 3.32c.08.05.18.02.22-.06l.19-.34c.32-.59-.44-1.63-1.7-2.33l-1.7-.94c-1.27-.7-2.56-.8-2.88-.21l-.19.34c-.04.08-.02.18.06.22z" class="st35"/>
  <path d="M200.37 393.17c-.98.27-1.81-.01-2.48-.84-.31-.37-.91-.22-.99.26-.07.4-.28.68-.65.81l-11.81-8.41c-.18-.13-.22-.29-.11-.48l.33-.62c.12-.23.3-.28.52-.14l15.19 9.42z" class="st26"/>
  <path d="M335.63 385.51c-.1-.1-.1-.26 0-.36l.19-.19c.49-.51 1.58-.24 2.43.6l.73.72c.84.84 1.12 1.91.62 2.42l-.19.19c-.1.1-.26.1-.36 0l-3.42-3.38zM234.44 390.5c-.7 2.16-6.55-3.08-6.06-4.41.23-.63 1.03-.83 1.53-.39l4.25 3.76c.29.27.4.67.28 1.04zM240.63 390.88c-1.11-.34-4.96-1.89-4.14-3.59.25-.52.89-.72 1.39-.44l3.98 2.23c.61.34.69 1.18.15 1.62-.35.3-.81.35-1.38.18zM450.6 387.12c1.95-.15.69 13.45.49 14.71-.12.78-1.23.82-1.4.05-.26-1.13.35-2.33.37-3.43.07-3.51.01-7.01-.18-10.49-.03-.43.29-.81.72-.84z" class="st28"/>
  <path d="M188.79 393.78c-1.2-.37-6.26-2.65-5.39-4.46.29-.6 1.08-.77 1.58-.32.7.62 5.09 3.19 5.14 3.7.06.73-.63 1.3-1.33 1.08z" class="st26"/>
  <path d="M340.13 393.13c-.3.34-.81.36-1.15.06l-2.47-2.22c-.34-.3-.36-.81-.06-1.15l.05-.05c.3-.34.81-.36 1.15-.06l2.47 2.22c.34.3.36.81.06 1.15l-.05.05z" class="st28"/>
  <path d="M184.84 421.58c-.63-.55-1.62-.73-2.95-.55-.27.04-.37-.07-.3-.34 1.47-5.66 2.68-11.52 3.64-17.57l5.47-3.72c.15-.1.32-.15.5-.14 7.87.53 15.81.31 23.7.34.18 0 .2.06.07.18l-2.71 2.34c-.29.25-.36.66-.17.99.95 1.66 5.11-2.61 5.97-3.35.15-.13.32-.19.52-.19h2.39c.19 0 .32.09.39.28l7.12 21.46c.06.18 0 .26-.19.26l-43.45.01m29.12-10.1 5.68-4.08c.22-.16.27-.46.11-.68l-.29-.4c-.43-.59-1.99-.2-3.49.88l-1.03.74c-1.5 1.08-2.37 2.44-1.94 3.03l.28.4c.16.21.47.27.68.11m1.18 4.55c.26.4.78.51 1.18.26 2.1-1.35 4.08-2.78 5.96-4.27.8-.64.89-1.09.38-1.96-.16-.27-.51-.36-.77-.2-1.36.8-8 4.21-6.75 6.17m9.83-.1c-.21-.37-.69-.5-1.06-.29l-1.94 1.1c-.37.21-.51.69-.29 1.06l.04.08c.21.37.69.5 1.06.29l1.94-1.1c.37-.21.51-.69.29-1.06l-.04-.08z" class="st31"/>
  <path d="M185.22 403.14c-.96 6.04-2.18 11.9-3.64 17.57-.07.26.03.38.3.34 1.34-.19 2.32-.01 2.95.55l-31.46.23c-.23.01-.25-.06-.07-.2l.69-.53c9.37-4.74 18.5-9.92 27.39-15.53l3.84-2.43z" class="st29"/>
  <path d="M474.54 428.99c-20.28 11.9-44.58 18.09-66.51 6.07-.23-.12-.81-.57-1.74-1.33-.52-.43-1.16-.81-1.94-1.13 1.99-.25 3.91-.68 5.87-.66 19.75.1 41.22-7.74 47.71-28.42.03-.11.18-.13.24-.03 5.61 8.35 12.65 15.67 16.37 25.5z" class="st34"/>
  <path d="m178.66 404.4.4.01c.4.02.55.54.2.76-1.37.89-8.21 4.69-8.55 5.52-.07.17-.02.21.13.11 2.98-1.82 5.99-3.6 9-5.36.32-.19 1.73-.64 1.53.1-8.89 5.61-18.02 10.79-27.39 15.53.04-.53.22-1.03.53-1.49.11-.16.07-.26-.12-.3-1.82-.35-3.17 2.02-4.38.83 9.93-4.75 19.48-9.99 28.65-15.71z" class="st26"/>
  <path d="M258.73 405.38c23.89 1.72 48.31.92 72.27.89.19 0 .37.09.48.25 2.84 4.06 6 7.83 9.5 11.34.11.11.03.29-.12.29l-88.38.19c-.13 0-.17-.06-.11-.18l6.02-12.59c.08-.14.19-.21.34-.19m8.41 4.4c-.28.78 7.15 6.15 8.26 6.96.32.23.76.15.98-.16.47-.66.24-1.32-.68-1.98-2.53-1.79-5.04-3.51-7.54-5.16-.37-.24-.87-.07-1.02.34m-7.54.95c.02.74 6.77 6.45 8.66 6.34.2-.01.35-.2.31-.4-.37-2.04-6.18-5.36-7.98-6.5-.44-.28-1 .04-.99.56m19.32 2.59c-.11 1.19 2.6 2.4 3.47 2.53.32.05.54-.32.34-.59-.79-1.03-1.77-1.84-2.94-2.43-.38-.18-.83.07-.87.49m-18.88 2.85c.33-.5-.19-1.44-1.17-2.1-.98-.66-2.05-.8-2.39-.3-.33.5.19 1.44 1.17 2.1.99.66 2.06.79 2.39.3z" class="st29"/>
  <path d="M213.96 411.48c-.22.15-.52.1-.68-.11l-.28-.4c-.43-.59.44-1.95 1.94-3.03l1.03-.74c1.5-1.08 3.06-1.47 3.49-.88l.29.4c.15.22.1.52-.11.68l-5.68 4.08zM275.4 416.74c-1.11-.81-8.54-6.18-8.26-6.96.15-.41.65-.59 1.02-.34 2.5 1.65 5.01 3.37 7.54 5.16.92.65 1.15 1.31.68 1.98-.22.32-.66.39-.98.16zM215.14 416.03c-1.26-1.95 5.39-5.37 6.74-6.18.27-.16.61-.07.77.2.51.87.41 1.32-.38 1.96-1.88 1.49-3.86 2.92-5.96 4.27-.39.26-.91.14-1.17-.25zM268.26 417.07c-1.89.11-8.64-5.6-8.66-6.34-.01-.52.55-.84.99-.56 1.81 1.14 7.61 4.46 7.98 6.5.04.2-.1.39-.31.4zM282.39 415.85c-.86-.13-3.57-1.34-3.47-2.53.04-.42.49-.67.86-.48 1.17.59 2.15 1.4 2.94 2.43.21.25-.01.62-.33.58zM260.04 416.17c-.34.5-1.41.36-2.39-.3-.98-.66-1.51-1.6-1.17-2.1.34-.5 1.41-.36 2.39.3.98.66 1.51 1.6 1.17 2.1zM225.01 416.01c.21.37.08.85-.29 1.06l-1.94 1.1c-.38.21-.85.08-1.06-.29l-.04-.08c-.21-.37-.08-.85.29-1.06l1.94-1.1c.38-.21.85-.08 1.06.29l.04.08z" class="st28"/>
  <path d="m287.59 436.26-18.84-.05c-1.76-.16-3.98-.27-6.68-.32-9.71-.19-18.13-.27-25.28-.22-.19.01-.28-.09-.27-.28.12-2.5.19-4.97.2-7.42.03-2.95 1.27-6.2 4.72-6.07 7.19.26 14.37.4 21.55.43 27.5.11 55.01.17 82.52.18.18 0 .33.06.46.17 5.96 5.14 12.36 9.63 19.22 13.48.09.05.06.19-.05.19l-77.55-.09M244.58 428c2.26 1.6 9.49 7.37 11.86 7.23.41-.02.67-.47.48-.84-1.31-2.53-9.41-6.9-11.99-8.47-.69-.42-1.52.29-1.2 1.04.16.41.45.75.85 1.04m11.81 1.24c.65.46 9.88 7.09 9.65 3.91-.03-.49-.35-.93-.82-1.13-2.78-1.21-5.48-2.6-8.1-4.15-.24-.14-.44-.1-.59.14l-.29.47c-.16.25-.1.58.15.76m18.05 3.85c.17-.37.01-.8-.36-.97l-6.14-2.84c-.37-.17-.8-.01-.97.36l-.02.05c-.17.37-.01.8.36.97l6.14 2.84c.37.17.8.01.97-.36l.02-.05m-33.83-2.76c.5 1.44 5.54 5.48 5.64 2.62.01-.45-.28-.86-.71-.98-1.46-.43-2.68-1.22-3.68-2.36-.54-.62-1.52-.05-1.25.72m37.85-.19c-.61 1.9 3.53 2.73 4.79 3.02.51.11 1.03-.13 1.27-.58.47-.87-4.73-2.71-5.25-2.86-.33-.11-.7.08-.81.42z" class="st29"/>
  <path d="M227.41 434.92c1.46.22 4.17-2.91 5.13-3.94.11-.12.31-.04.31.12l-.11 4.28c-.01.16-.09.24-.24.24-33.52.37-67.04.53-100.56.48-9.55-.01-18.93.28-28.31.61-.6.02-1.1-.43-1.16-1.02-.26-2.68-.04-5.2.65-7.56.91-3.12 5.23-.48 6.7-2.07.11-.12.26-.19.42-.19l120.33.51c.19 0 .37.05.55.14l.17.09c.18.09.35.09.52.01l1.04-.48c.23-.11.34-.04.31.22l-.18 1.61c-.02.18-.1.32-.24.43-1.34 1.03-5.69 3.96-5.66 6.14-.01.19.14.35.33.38m-6.65-5.91c-.31-.42-.9-.51-1.32-.19l-5.22 3.87c-.42.31-.5.9-.19 1.32l.03.05c.31.42.9.51 1.32.19l5.22-3.87c.42-.31.5-.9.19-1.32l-.03-.05m-.25 6.26c1.88.3 5.39-3.63 6.8-4.89.55-.49.75-1.15.03-1.59-.24-.15-.55-.14-.77.03-2.17 1.6-4.93 3.23-6.48 5.48-.25.39-.03.9.42.97m-13.12-1.33c1.14.09 7.37-3.72 5.36-4.98-.26-.16-.6-.18-.87-.02-1.83 1.01-3.49 2.23-4.97 3.68-.48.46-.18 1.27.48 1.32m-21.43-2.46c-.21-.57-1.02-.78-1.8-.49-.78.29-1.25.99-1.04 1.55.21.57 1.02.78 1.8.49.78-.3 1.25-.99 1.04-1.55m18.95-.21c-.23-.45-.78-.62-1.23-.38l-5.17 2.7c-.44.23-.62.78-.38 1.23l.03.05c.23.45.78.62 1.23.38l5.17-2.7c.44-.23.62-.78.38-1.23l-.03-.05m-13.75 2.65c1.06-.11 4.48-.5 4.08-2.19-.12-.53-.72-.81-1.21-.57-.82.4-3.53 1.28-3.29 2.46.05.19.23.32.42.3z" class="st33"/>
  <path d="M244.58 428c-.4-.29-.69-.64-.86-1.04-.31-.75.51-1.46 1.2-1.04 2.58 1.57 10.68 5.94 11.99 8.47.19.37-.07.82-.48.84-2.36.15-9.59-5.63-11.85-7.23zM256.39 429.24c-.24-.18-.31-.51-.15-.76l.29-.47c.15-.24.35-.28.59-.14 2.61 1.56 5.31 2.94 8.1 4.15.47.2.79.64.82 1.13.23 3.18-9-3.45-9.65-3.91zM220.79 429.05c.31.42.22 1.01-.19 1.32l-5.22 3.87c-.42.31-1.01.23-1.32-.19l-.03-.05c-.31-.42-.22-1.01.19-1.32l5.22-3.87c.42-.31 1.01-.23 1.32.19l.03.05zM220.51 435.27c-.45-.07-.67-.59-.41-.97 1.55-2.26 4.31-3.89 6.48-5.48.23-.17.53-.18.77-.03.72.44.51 1.1-.03 1.59-1.43 1.26-4.93 5.19-6.81 4.89zM207.39 433.94c-.66-.05-.96-.86-.48-1.32 1.48-1.45 3.14-2.68 4.97-3.68.27-.15.61-.14.87.02 2.01 1.26-4.22 5.06-5.36 4.98zM274.42 433.14c-.17.37-.6.53-.97.36l-6.14-2.84c-.37-.17-.53-.6-.36-.97l.02-.05c.17-.37.6-.53.97-.36l6.14 2.84c.37.17.53.6.36.97l-.02.05z" class="st28"/>
  <path d="M99.16 429.44c.46-.11.68-.03.65.25-.2 2.32-.19 4.53.01 6.64.05.51-.34.95-.85.97-.92.02-9.45.17-9.36 1.26.02.24.22.42.46.41l7.85-.17c.2-.01.36.07.49.23.79.99 2.06.07 2.87 1.18-7.5-.16-15.17-.69-22.99-1.59-.12-.02-.24-.08-.31-.18-.51-.68-.11-1.06 1.16-1.16 6.56-.51 13.14-.72 19.72-.63.21.01.3-.1.27-.31-.36-2.35-.36-4.66.03-6.9z" class="st26"/>
  <path d="M246.24 432.95c-.1 2.86-5.14-1.18-5.64-2.62-.27-.77.72-1.34 1.25-.73.99 1.15 2.22 1.94 3.68 2.36.43.13.72.54.71.99zM283.26 433.16c-1.26-.28-5.4-1.12-4.79-3.02.11-.34.47-.53.82-.43.52.15 5.72 1.99 5.25 2.86-.25.46-.78.7-1.28.59zM185.96 431.48c.21.57-.26 1.26-1.04 1.55-.79.29-1.59.07-1.8-.49-.21-.57.26-1.26 1.04-1.55.78-.29 1.59-.08 1.8.49zM204.93 431.32c.23.45.06 1-.38 1.23l-5.17 2.7c-.44.23-.99.06-1.23-.38l-.03-.05c-.23-.45-.06-1 .38-1.23l5.17-2.7c.44-.23.99-.06 1.23.38l.03.05zM191.16 433.92c-.19.02-.37-.11-.41-.3-.24-1.18 2.47-2.06 3.29-2.46.49-.24 1.09.03 1.21.57.39 1.69-3.03 2.08-4.09 2.19z" class="st28"/>
  <path d="M478.91 435.72c8 .14 15.94.03 23.89 1.19.43.06.47.66.06.8-.94.29-1.98.48-3.11.57-7.83.62-15.67.98-23.53 1.05-.23-.1-.34-.19-.32-.26.05-.28.32-.49.64-.49l11.39-.03c.18 0 .36-.07.49-.2.4-.4.54-.86.4-1.36-.05-.15-.18-.26-.34-.26-3.11-.12-6.21-.19-9.32-.21-.19 0-.36-.14-.39-.32-.05-.2 0-.35.14-.48zM268.74 436.21l18.84.05c.27.14.44.28.51.41.11.2.05.31-.18.32-3.44.15-19.38.75-19.8-.33-.07-.17-.01-.26.18-.27.21-.01.37-.07.45-.18zM65.88 438.36c-.8-.47-.93-1.01-.41-1.64.12-.15.31-.24.51-.24 2.91-.04 5.62-.04 8.11.01.63.01.95.32.97.93.02.56-.37 1.05-.92 1.15-2.66.49-5.75 1.26-8.26-.21zM505.55 438.13c-.62-.24-.45-1.16.21-1.17l5.07-.08c.69-.01.89.95.24 1.2-1.88.74-3.72.76-5.52.05zM325.23 440.4l-51.71-.03c-.47-.42-.03-.63 1.3-.63 17.18-.03 34.51-.07 51.96-.12.16 0 .29.12.3.28.01.16-.1.3-.26.32l-1.59.18zM271.4 440.42l-24.45.12-4.79-.04-.09-.14c-.18-.27.02-.63.34-.63l29.43.02c.26 0 .39.32.19.5-.11.09-.32.15-.63.17z" class="st26"/>
  <path d="M456.33 442.83c-.2.57-1.29.7-2.45.3-1.15-.4-1.92-1.2-1.72-1.77.2-.57 1.29-.7 2.45-.3 1.16.41 1.92 1.2 1.72 1.77zM451.46 445.22c-.24.45-1.42.28-2.64-.38-1.21-.66-2-1.56-1.75-2.01.24-.45 1.42-.28 2.64.38 1.21.67 2 1.56 1.75 2.01zM432.75 443.89c.11-.2.36-.27.56-.16l4.08 2.28c1.48.83 2.5 1.83 2.27 2.24l-.11.19c-.23.41-1.62.07-3.1-.76l-4.08-2.28c-.2-.11-.27-.36-.16-.56l.54-.95zM444.28 446.66c-1.2-.63-2.26-1.13-3.73-1.23-.19-.01-.28-.11-.28-.3v-.89c0-.26.12-.4.38-.43 1.86-.19 3.36.39 4.52 1.75.51.6-.19 1.47-.89 1.1z" class="st28"/>
  <path d="M406.82 447.57c-.15.19-.42.21-.61.06l-2.51-2.04c-.19-.15-.21-.42-.06-.61l.17-.21c.15-.19.42-.21.61-.06l2.51 2.04c.19.15.21.42.06.61l-.17.21z" class="st26"/>
  <path d="M415.48 446.3c-.59-.27-.77-.6-.53-1 .18-.31.55-.45.89-.34 1.31.42 9.78 4.06 9.56 5.51-.1.63-.82.94-1.35.59-2.66-1.8-5.52-3.39-8.57-4.76zM424.75 446.18c-.08-.05-.11-.14-.06-.22l.19-.34c.32-.59 1.61-.49 2.88.21l1.7.94c1.26.7 2.02 1.75 1.7 2.33l-.19.34c-.04.08-.14.11-.22.06l-6-3.32z" class="st28"/>
</svg>