<svg xmlns="http://www.w3.org/2000/svg" fill="none" viewBox="0 0 360 360">
  <path fill="#F06" d="M356.791 117.719c17.73 66.706-40.527 143.464-112.715 191.286-72.187 48.126-158.306 67.315-203.582 35.028-45.592-32.287-50.658-116.051-25.329-192.504C40.177 75.38 95.585 6.542 169.989.449 244.71-5.641 339.06 51.014 356.791 117.72Z"/>
  <path fill="#2F2E41" d="m280.644 240.033-.005.131 6.57 69.59h-47.946l-6.215-42.74-2.735 41.644-49.238-.548 5.23-54.674 4.448-25.343v-.005l.668-3.814h87.916l.115 1.381 1.192 14.378Z"/>
  <path fill="#FFB6B6" d="M153.935 280.374c5.078.926 10.373-4.801 11.827-12.794.636-3.498.431-6.85-.427-9.592l.779-4.607 13.066-61.978s24.061-48.206 24.06-56.575c0-8.368-6.96-12.472-6.96-12.472l-9.418.088-29.533 72.245-5.318 53.386-.861 7.325c-1.768 2.262-3.141 5.327-3.777 8.825-1.454 7.992 1.484 15.222 6.562 16.149ZM249.734 92.493l-8.753-20.274-28.449 4.931-1.914 23.853 39.116-8.51Z"/>
  <path fill="#000" d="m249.734 92.493-8.753-20.274-28.449 4.931-1.914 23.853 39.116-8.51Z" opacity=".1"/>
  <path fill="#E6E6E6" d="M311.555 134.684s-20.242-37.808-24.072-41.644c-1.705-1.707-4.385-1.73-6.835-1.233l-28.178-9.725-9.551-5.375-.63 10.225-31.356 5.637c.174-6.236 1.053-8.608 1.053-8.608l-11.489 13.463-22.43 10.959.012.099c-1.646.575-3.207 1.56-4.389 3.189-4.377 6.027-16.413 79.452-16.413 79.452l25.713 5.479 3.5-21.994 2.518 19.803 1.915 36.986s35.013 30.137 51.973 19.178c16.959-10.959 37.749-10.411 37.749-10.411l.518-17.144c.37-.591.576-.938.576-.938l-.547-60.813v-16.183c4.167 5.816 9.197 10.818 15.044 13.16 19.148 7.671 15.319-23.562 15.319-23.562Z"/>
  <path fill="#FFB6B6" d="M223.783 80.717c14.454 0 26.172-11.736 26.172-26.213s-11.718-26.213-26.172-26.213-26.172 11.736-26.172 26.213 11.718 26.213 26.172 26.213Z"/>
  <path fill="#2F2E41" d="M242.559 61.912s2.275-7.978 7.396-7.408c5.121.57 6.258-3.989 5.121-6.268-1.138-2.28-3.414-13.676-3.414-13.676s1.138-7.978-5.69-9.118c-6.827-1.14-9.103-2.28-10.241-4.559-1.138-2.28-18.206-4.559-23.896-1.14-5.689 3.42-10.241 9.98-14.223 11.828-3.983 1.849-7.397 5.268-5.121 10.966 2.276 5.699 5.577 16.844 5.577 16.844s5.802-2.028 6.94 1.392c1.138 3.419-3.414-1.14 2.276-10.258 5.689-9.117 5.689-18.235 14.793-14.816 9.103 3.42 19.344 2.28 18.206 9.118-1.138 6.838 2.276 17.095 2.276 17.095Z"/>
  <path fill="#fff" d="M231.958 278.17H33.194c-5.621 0-10.194-4.581-10.194-10.21V162.21c0-5.629 4.573-10.21 10.194-10.21h198.764c5.621 0 10.194 4.581 10.194 10.21v105.75c0 5.629-4.573 10.21-10.194 10.21Z"/>
  <path fill="#3F3D56" d="M231.958 278.17H33.194c-5.621 0-10.194-4.581-10.194-10.21V162.21c0-5.629 4.573-10.21 10.194-10.21h198.764c5.621 0 10.194 4.581 10.194 10.21v105.75c0 5.629-4.573 10.21-10.194 10.21ZM33.194 153.705c-4.682 0-8.492 3.815-8.492 8.505v105.75c0 4.69 3.81 8.505 8.492 8.505h198.764c4.682 0 8.492-3.815 8.492-8.505V162.21c0-4.69-3.81-8.505-8.492-8.505H33.194Z"/>
  <path fill="#3F3D56" d="M216.617 164.788a2.556 2.556 0 0 0 2.554-2.558 2.555 2.555 0 0 0-2.554-2.557 2.555 2.555 0 0 0-2.553 2.557 2.556 2.556 0 0 0 2.553 2.558ZM223.427 164.788a2.556 2.556 0 0 0 2.553-2.558 2.555 2.555 0 0 0-2.553-2.557 2.555 2.555 0 0 0-2.554 2.557 2.556 2.556 0 0 0 2.554 2.558ZM230.236 164.788a2.557 2.557 0 0 0 0-5.115 2.555 2.555 0 0 0-2.553 2.557 2.556 2.556 0 0 0 2.553 2.558Z"/>
  <path fill="#E6E6E6" d="M37.47 203.576a1.28 1.28 0 0 0-1.277 1.279c0 .344.133.662.373.897.243.249.56.382.904.382h191.063a1.28 1.28 0 0 0 1.277-1.279 1.24 1.24 0 0 0-.373-.897 1.247 1.247 0 0 0-.904-.382H37.47Z"/>
  <path fill="#EA272B" d="M204.701 203.15v3.41H37.47c-.468 0-.894-.188-1.2-.503a1.668 1.668 0 0 1-.502-1.202c0-.938.766-1.705 1.702-1.705H204.7Z"/>
  <path fill="#E6E6E6" d="M226.406 196.756h-17.023a3.41 3.41 0 0 1 0-6.82h17.023a3.411 3.411 0 0 1 0 6.82ZM114.904 178.854H38.746a3.41 3.41 0 0 1 0-6.82h76.158a3.41 3.41 0 0 1 0 6.82ZM37.47 241.939c-.704 0-1.277.573-1.277 1.278 0 .344.133.662.373.897.243.249.56.382.904.382h191.063c.705 0 1.277-.573 1.277-1.279 0-.343-.132-.661-.373-.896a1.247 1.247 0 0 0-.904-.382H37.47Z"/>
  <path fill="#EA272B" d="M139.162 241.512v3.41H37.47a1.66 1.66 0 0 1-1.2-.503 1.666 1.666 0 0 1-.502-1.202 1.71 1.71 0 0 1 1.702-1.705h101.692Z"/>
  <path fill="#E6E6E6" d="M226.406 235.119h-17.023a3.411 3.411 0 0 1 0-6.82h17.023a3.41 3.41 0 0 1 0 6.82Z"/>
  <path fill="#EA272B" d="M265.207 82.735c14.723 0 26.658-11.702 26.658-26.137S279.93 30.46 265.207 30.46c-14.722 0-26.657 11.702-26.657 26.137s11.935 26.137 26.657 26.137Z"/>
  <path fill="#fff" d="m274.255 43.414-10.647 19.418c-2.262-4.003-4.511-8.013-6.779-12.013-.783-1.38-2.913-.139-2.128 1.246 2.629 4.637 5.23 9.289 7.858 13.925.45.793 1.684.811 2.128 0l11.696-21.33c.764-1.393-1.364-2.64-2.128-1.246Z"/>
  <path fill="#FFB6B6" d="m302.007 125.492-26.56-12.725s-1.067-8.518-6.047-11.555c-.847-2.024-1.821-4.246-2.706-6.008-2.189-4.355 1.094-12.575-1.641-12.575-2.736 0-6.779 8.645-6.565 10.96.164 1.776 1.63 4.879 1.933 7.594-3.336 1.26-6.026 3.42-7.796 5.14a5.772 5.772 0 0 0-1.501 5.759c1.734 5.944 6.068 18.219 12.287 18.219 8.207 0 10.395-1.644 10.395-1.644s16.959 21.37 29.542 23.014c12.583 1.644-1.341-26.179-1.341-26.179Z"/>
</svg>