<svg xmlns="http://www.w3.org/2000/svg" fill="none" viewBox="0 0 360 360">
  <path fill="#F06" d="M315.579 181.176c19.585 56.16-16.525 134.297-66.1 162.987-49.881 28.996-113.227 8.547-155.458-25.638-42.536-34.185-63.651-82.41-51.717-128.193 12.241-46.088 57.838-90.039 118.123-94.923 60.592-4.578 135.566 29.606 155.152 85.767Z"/>
  <path fill="#2F2E41" d="M256.627 123.38h-20.619v-6.789c0-11.38 9.239-20.62 20.619-20.62v27.409Z"/>
  <path fill="#A0616A" d="m252.057 110.706 3.545 15.946-20.774-3.45 8.465-15.081 8.764 2.585Z"/>
  <path fill="#000" d="m252.057 110.706 3.545 15.946-20.774-3.45 8.465-15.081 8.764 2.585Z" opacity=".1"/>
  <path fill="#A0616A" d="M232.139 174.248h19.918V144.77h-19.918v29.478Z"/>
  <path fill="#2F2E41" d="m265.003 198.349-4.382 23.502s2.789 16.333-5.576 33.064l-5.577 17.129-8.365-1.195s5.178-12.747 5.178-18.324c0-5.577 1.195-27.088 1.195-27.088l-.597-24.546 18.124-2.542Z"/>
  <path fill="#2F2E41" d="M239.907 270.451s9.56-3.586 10.357 1.593l-.398 2.39s3.585 10.756-1.594 11.552c-5.178.797-9.958 1.992-10.357-.398-.398-2.39-.392-5.374.601-7.467.993-2.094 1.391-7.67 1.391-7.67ZM234.848 194.703l-2.327 23.794s-7.221 14.913-3.838 33.31l.593 18.004 8.367 1.179s-1.429-13.685.122-19.042c1.551-5.356 6.386-26.351 6.386-26.351l7.4-23.412-16.703-7.482Z"/>
  <path fill="#2F2E41" d="M238.902 270.94s-8.186-6.103-10.392-1.35l-.282 2.406s-6.434 9.335-1.682 11.54c4.753 2.206 9.012 4.683 10.059 2.498 1.048-2.185 1.871-5.053 1.5-7.34s.797-7.754.797-7.754ZM260.223 160.704c9.369 8.743 10.064 22.576 4.581 39.039 0 0-17.527 11.95-30.274-3.187l-6.374-30.673 32.067-5.179Z"/>
  <path fill="#EA272B" d="m244.488 118.08 9.959 1.594-.797 25.096 11.154 22.308-14.34 7.17s-11.154-21.113-13.146-34.258c-1.991-13.146-.796-22.706-.796-22.706l7.966.796Z"/>
  <path fill="#EA272B" d="m236.92 118.877-9.959 1.593.797 25.097-2.39 23.104 5.577 6.374s11.153-21.113 13.145-34.259c1.992-13.145.797-22.706.797-22.706l-7.967.797ZM248.87 119.475l2.191-.598s7.768-.996 8.963 2.191c1.195 3.187.796 21.909.796 21.909s2.056 22.979-5.943 23.241c-7.999.262-6.405-18.859-6.405-18.859l.398-27.884Z"/>
  <path fill="#A0616A" d="M248.581 115.082c5.693 0 10.309-4.616 10.309-10.31 0-5.694-4.616-10.31-10.309-10.31-5.694 0-10.31 4.617-10.31 10.31 0 5.694 4.616 10.31 10.31 10.31Z"/>
  <path fill="#EA272B" d="m235.725 120.271-2.191-.597s-7.768-.996-8.963 2.191c-1.195 3.186-.797 21.909-.797 21.909s-2.055 22.979 5.944 23.241c7.999.262 6.405-18.859 6.405-18.859l-.398-27.885Z"/>
  <path fill="#A0616A" d="M242.625 118.961c-2.212-.561-4.719 1.802-5.601 5.278a8.969 8.969 0 0 0-.101 4.237l-.95 3.952-.07-.004-7.496 17.666c-1.743 4.108-1.559 8.824.664 12.693 1.322 2.301 3.058 3.849 5.097 2.269 3.382-2.621 5.591-17.627 6.6-26.247l2.332-8.762a8.967 8.967 0 0 0 1.932-3.773c.883-3.475-.195-6.747-2.407-7.309Z"/>
  <path fill="#2F2E41" d="M228.843 113.113c.525-1.594 1.56-2.99 2.023-4.604.615-2.142 1.924 2.61 2.052.385.243-4.229 6.697-15.108 10.382-17.197 3.685-2.09 5.801-1.46 9.555.502 0 0 1.823.116 4.091 1.237 2.269 1.12 4.311 2.913 5.193 5.285.7 1.879.622 3.943.856 5.935.651 5.549 3.762 10.827 3.094 16.374-.208 1.73-.866 3.52-2.281 4.538-1.415 1.018-3.701.907-4.633-.566-.317-.503-.452-1.1-.724-1.629-.273-.528-.765-1.021-1.359-1.005-.894.025-1.349 1.224-.997 2.046.353.822 1.181 1.318 1.959 1.759-1.852.833-4.15.574-5.769-.652-1.62-1.225-2.494-3.365-2.196-5.374.42-2.83 4.544-2.245 5.029-5.065.354-2.053 1.596-5.488 1.258-7.544-.339-2.055-1.963.434-.252-.754-1.883.908-5.91-5.302-7.881-5.997a8.053 8.053 0 0 1-4.539-4.09c-2.091 3.03-3.93 2.207-4.679 5.812-.748 3.605-.056 11.795 3.027 13.808a7.858 7.858 0 0 0-2.796 3.423c-.328.78-.541 1.633-1.085 2.281-1.04 1.238-2.96 1.313-4.49.793a7.797 7.797 0 0 1-4.414-3.856 7.797 7.797 0 0 1-.424-5.845Z"/>
  <path fill="#3F3D56" d="M89 286.423c0 .263.211.474.474.474h208.052a.473.473 0 1 0 0-.948H89.474a.473.473 0 0 0-.474.474Z"/>
  <path fill="#fff" d="M224.453 37.398h-81.928c-9.29 0-16.822 7.532-16.822 16.823v215.283c0 9.291 7.532 16.823 16.822 16.823h81.928c9.29 0 16.822-7.532 16.822-16.823V54.221c0-9.291-7.532-16.823-16.822-16.823Z"/>
  <path fill="#3F3D56" d="M224.452 286.725h-81.927c-9.495 0-17.22-7.725-17.22-17.221V54.221c0-9.496 7.725-17.221 17.22-17.221h81.927c9.496 0 17.221 7.725 17.221 17.22v215.284c0 9.496-7.725 17.221-17.221 17.221ZM142.525 37.797c-9.056 0-16.424 7.367-16.424 16.424v215.283c0 9.056 7.368 16.424 16.424 16.424h81.927c9.057 0 16.424-7.368 16.424-16.424V54.221c0-9.056-7.367-16.424-16.424-16.424h-81.927ZM118.933 74.67c-.719 0-1.304.586-1.304 1.305V86.41c0 .719.585 1.304 1.304 1.304.719 0 1.304-.585 1.304-1.304V75.975c0-.72-.585-1.304-1.304-1.304Z"/>
  <path fill="#E6E6E6" d="M230.387 71.84h-32.931a2.536 2.536 0 0 1-2.533-2.533 2.536 2.536 0 0 1 2.533-2.533h32.931a2.536 2.536 0 0 1 2.533 2.533 2.536 2.536 0 0 1-2.533 2.534Z"/>
  <path fill="#EA272B" d="M199.494 91.761h-32.01a1.465 1.465 0 0 1 0-2.927h32.01a1.465 1.465 0 0 1 0 2.927ZM120.199 98.984c14.278 0 25.853-11.33 25.853-25.308 0-13.977-11.575-25.308-25.853-25.308-14.277 0-25.852 11.331-25.852 25.308 0 13.978 11.575 25.308 25.852 25.308Z"/>
  <path fill="#fff" d="m128.974 60.91-10.326 18.803c-2.193-3.876-4.375-7.759-6.574-11.632-.759-1.337-2.825-.134-2.064 1.207 2.55 4.489 5.072 8.993 7.621 13.483.436.767 1.633.785 2.064 0l11.342-20.654c.741-1.349-1.322-2.556-2.063-1.206Z"/>
  <path fill="#E6E6E6" d="M154.251 42.839h-18.275a.123.123 0 0 0-.123.124v2.127c0 .068.055.124.123.124h18.275a.123.123 0 0 0 .124-.124v-2.127a.123.123 0 0 0-.124-.124ZM215.808 45.214a1.9 1.9 0 1 0 0-3.8 1.9 1.9 0 0 0 0 3.8ZM221.032 45.214a1.9 1.9 0 1 0 0-3.8 1.9 1.9 0 0 0 0 3.8ZM226.256 45.214a1.9 1.9 0 1 0 0-3.8 1.9 1.9 0 0 0 0 3.8Z"/>
  <path fill="#3F3D56" d="M142.326 99.596c0 .263.211.474.474.474h81.378a.473.473 0 0 0 .474-.474.473.473 0 0 0-.474-.474H142.8a.473.473 0 0 0-.474.474Z"/>
  <path fill="#EA272B" d="M216.374 136.854h-48.837a1.464 1.464 0 0 1 0-2.927h48.837a1.464 1.464 0 0 1 0 2.927ZM216.374 157.967h-48.837a1.464 1.464 0 0 1 0-2.927h48.837a1.464 1.464 0 0 1 0 2.927ZM216.374 179.079h-48.837a1.464 1.464 0 0 1 0-2.927h48.837a1.464 1.464 0 0 1 0 2.927ZM152.725 138.795a3.585 3.585 0 1 0 0-7.17 3.585 3.585 0 0 0 0 7.17Z"/>
  <path fill="#3F3D56" d="M152.327 141.185v-.797a5.383 5.383 0 0 0 5.377-5.378 5.383 5.383 0 0 0-5.377-5.377v-.797a6.181 6.181 0 0 1 6.174 6.174 6.182 6.182 0 0 1-6.174 6.175Z"/>
  <path fill="#EA272B" d="M152.725 159.907a3.585 3.585 0 1 0 0-7.17 3.585 3.585 0 0 0 0 7.17Z"/>
  <path fill="#3F3D56" d="M152.327 162.298v-.797a5.383 5.383 0 0 0 5.377-5.378 5.384 5.384 0 0 0-5.377-5.378v-.796a6.18 6.18 0 0 1 6.174 6.174 6.182 6.182 0 0 1-6.174 6.175Z"/>
  <path fill="#EA272B" d="M152.725 181.02a3.585 3.585 0 1 0 0-7.17 3.585 3.585 0 0 0 0 7.17Z"/>
  <path fill="#3F3D56" d="M152.327 183.41v-.796a5.384 5.384 0 0 0 5.377-5.378 5.383 5.383 0 0 0-5.377-5.378v-.797a6.182 6.182 0 0 1 6.174 6.175 6.181 6.181 0 0 1-6.174 6.174Z"/>
  <path fill="#A0616A" d="M241.97 118.165c2.211-.561 4.719 1.801 5.601 5.277a8.981 8.981 0 0 1 .101 4.237l.95 3.952.07-.004 7.496 17.667c1.743 4.107 1.559 8.823-.664 12.692-1.323 2.302-3.059 3.849-5.097 2.269-3.382-2.62-5.591-17.626-6.6-26.246l-2.332-8.763a8.969 8.969 0 0 1-1.933-3.773c-.882-3.475.196-6.747 2.408-7.308Z"/>
  <path fill="#EA272B" d="m250.485 127.846-8.387 5.961 4.193 26.409 5.26 6.802 6.126-2.119 1.791-12.484-2.108-12.073-6.875-12.496Z"/>
</svg>