<svg xmlns="http://www.w3.org/2000/svg" fill="none" viewBox="0 0 360 360">
  <g clip-path="url(#a)">
    <path fill="#F06" d="M357.021 146.625c15.465 54.008-31.299 122.713-93.529 166.433-61.862 44.089-138.452 63.194-188.899 30.495-50.815-33.066-74.75-117.936-51.92-181.497C45.135 98.128 114.73 55.509 188.742 54.039c74.013-1.47 152.445 38.21 168.279 92.586Z"/>
    <path stroke="#C0DCA8" stroke-width="2" d="m183.362 103.249 6.09 3.118a.586.586 0 0 1 .308.427c.317 2.133.402 4.278.255 6.438"/>
    <path stroke="#E9F57E" stroke-width="2" d="m190.015 113.232-.389-.145"/>
    <path stroke="#C0DCA8" stroke-width="2" d="M189.626 113.087c-1.374-1.331-2.771-1.47-4.191-.415a.58.58 0 0 0-.198.652 84.426 84.426 0 0 0 4.053 9.579"/>
    <path stroke="#E9F57E" stroke-width="2" d="m189.29 122.902.023.41"/>
    <path stroke="#7C7C7C" stroke-width="2" d="M189.312 123.312c-.185.051-.321.051-.406 0a4583.99 4583.99 0 0 0-39.392-21.656c-2.264-1.224-4.691-.254-6.444 1.328a.533.533 0 0 1-.227.127l-1.242.364a.582.582 0 0 0-.418.496l-.325 3.199"/>
    <path stroke="#9A9E97" stroke-width="2" d="m140.858 107.17.244 6.212"/>
    <path stroke="#C0DCA8" stroke-width="2" d="m141.102 113.382-.268.45"/>
    <path stroke="#7C7C7C" stroke-width="2" d="M140.835 113.832a909.324 909.324 0 0 1-18.776-10.369c-3.896-2.217-4.708 2.275-4.447 4.838"/>
    <path stroke="#D2DDE1" stroke-width="2" d="M117.612 108.301c-.325.628-.486 1.02-.482 1.178.104 12.09.244 24.432.418 37.026.012.966.428 1.686 1.248 2.159l19.693 11.334"/>
    <path stroke="#9A9E97" stroke-width="2" d="m138.489 159.998 2.119 1.535a.585.585 0 0 1 .238.48l-.406 13.787a.562.562 0 0 1-.284.479l-55.927 32.915"/>
    <path stroke="#7C7C7C" stroke-width="2" d="m84.229 209.194-5.492 3.528a.569.569 0 0 0-.261.496l.145 5.803a.563.563 0 0 0 .284.479c32.915 19.576 65.686 39.045 98.314 58.405 4.296 2.552 4.953 1.703 9.417-.866a44995.582 44995.582 0 0 0 64.206-36.951c.747-.431 1.13-1.077 1.149-1.939.639-26.247.186-52.436.122-78.232 0-1.278-.571-2.233-1.713-2.864l-44.396-24.503"/>
    <path stroke="#E9F57E" stroke-width="2" d="M206.004 132.55a19.425 19.425 0 0 0 4.232-2.719"/>
    <path stroke="#9A9E97" stroke-width="2" d="m210.236 129.831 2.154-1.276"/>
    <path stroke="#7C7C7C" stroke-width="2" d="M212.39 128.555a5.104 5.104 0 0 0 1.713-.941.572.572 0 0 0 .112-.753.57.57 0 0 0-.199-.188l-5.545-3.147a.582.582 0 0 1-.29-.502l.006-4.758a.575.575 0 0 1 .265-.483.565.565 0 0 1 .548-.042l1.66.739c1.014.45 1.064.362.151-.266a4.073 4.073 0 0 0-2.084-.71.574.574 0 0 1-.546-.571c0-2.61.656-11.207-.29-13.106"/>
    <path stroke="#C0DCA8" stroke-width="2" d="M207.891 103.827a1002.694 1002.694 0 0 0-14.305-8.02c-1.249-.681-2.363-.647-3.403.231a.586.586 0 0 0-.203.445l.076 9.029a.581.581 0 0 1-.276.499.58.58 0 0 1-.572.021l-5.701-2.927"/>
    <path stroke="#7C7C7C" stroke-width="2" d="M183.507 103.105c-3.316-1.9-7.966-3.972-10.236-6.83-4.441-5.595-3.605-15.196 3.17-18.776 1.564-.827 3.143-1.145 4.737-.952 1.583.188 3.064.758 4.442 1.709a.58.58 0 0 0 .658.004.567.567 0 0 0 .16-.166c2.102-3.272 4.904-5.356 8.407-6.253 5.301-1.362 12.268 1.074 16.448 4.52 5.96 4.912 9.482 11.211 10.566 18.898a.582.582 0 0 0 .598.496c2.261-.08 4.471.164 6.63.733 9.795 2.587 13.696 13.112 11.229 22.119-1.58 5.766-5.46 8.524-11.641 8.273-3.919-.161-7.35-2.673-12.267-5.519a.12.12 0 0 0-.038-.016c-.012-.002-.021 0-.026.004l-.07.075a.08.08 0 0 0-.022.032.084.084 0 0 0-.003.039.11.11 0 0 0 .048.068c5.661 3.389 9.278 5.941 14.422 5.704 9.422-.427 14.537-8.706 13.457-17.453-1.294-10.48-8.517-16.004-18.95-16.23a.588.588 0 0 1-.563-.49c-.901-5.963-3.324-11.12-7.268-15.474-8.204-9.064-20.942-11.23-29.993-1.628a.581.581 0 0 1-.76.075c-3.072-2.205-7.048-1.449-10.137.566-3.971 2.587-6.015 6.257-6.131 11.01-.226 9.134 5.643 11.519 12.987 15.606"/>
    <path stroke="#44612D" stroke-width="2" d="m183.507 103.105-.145.144M207.891 103.827l-.558.311"/>
    <path stroke="#B2DA2F" stroke-width="2" d="M207.334 104.138c.012-.319-.176-.525-.563-.617a3.898 3.898 0 0 1-.877-.324c-4.567-2.355-8.71-4.617-12.43-6.784-1.608-.935-2.973-.392-2.984 1.56-.043 5.715-.039 11.387.011 17.014a.57.57 0 0 1-.456.567.598.598 0 0 1-.263-.001 8.957 8.957 0 0 1-2.665-1.132c-1.034-.65-1.316-.414-.848.71.552 1.305 3.24 6.761 3.031 7.772"/>
    <path stroke="#B2DA2F" stroke-width="2" d="m189.626 113.087-2.345-.825a.56.56 0 0 0-.383 0c-3.101 1.062 1.991 2.425 2.45 2.592a.585.585 0 0 0 .719-.289c.202-.408.184-.852-.052-1.333"/>
    <path stroke="#6E7A03" stroke-width="2" d="M207.334 104.138c-.155.705-.591 1.09-1.307 1.155"/>
    <path stroke="#8C9C1E" stroke-width="2" d="m206.027 105.293-14.165-8.302a.58.58 0 0 0-.401-.07c-.534.1-.559.278-.076.532a169.648 169.648 0 0 1 14.41 8.481"/>
    <path stroke="#6E7A03" stroke-width="2" d="m205.795 105.934-.354 18.36a.572.572 0 0 0 .29.514l6.102 3.435"/>
    <path stroke="#8C9C1E" stroke-width="2" d="m211.833 128.243-1.597 1.588"/>
    <path stroke="#6E7A03" stroke-width="2" d="M206.004 132.55a250.107 250.107 0 0 1-16.692-9.238"/>
    <path stroke="#1E231C" stroke-width="2" d="m212.39 128.555-.557-.312M84.229 209.194l.145.144"/>
    <path stroke="#7C7C7C" stroke-width="2" d="m84.374 209.338-5.178 3.222a.584.584 0 0 0-.274.497.575.575 0 0 0 .285.49c32.617 19.307 65.226 38.625 97.827 57.955a55.237 55.237 0 0 0 3.379 1.865c.921.466 1.828.441 2.722-.075 20.711-11.928 41.291-23.775 61.739-35.542 3.617-2.084 2.397-2.275 2.473-6.016"/>
    <path stroke="#44612D" stroke-width="2" d="m247.347 231.734-.087-69.41a.56.56 0 0 0-.06-.253.566.566 0 0 0-.167-.203c-1.223-.931-2.746-1.899-4.569-2.904a34755.01 34755.01 0 0 0-100.085-54.843.584.584 0 0 0-.745.159.57.57 0 0 0-.108.251l-.424 2.494"/>
    <path stroke="#1E231C" stroke-width="2" d="m141.102 107.025-.244.144M206.027 105.293l-.232.641"/>
    <path stroke="#D2DDE1" stroke-width="2" d="m225.14 219.032 14.189 7.789"/>
    <path stroke="#C0DCA8" stroke-width="2" d="M247.347 231.734c.008-.547-.219-.804-.679-.774a.579.579 0 0 1-.331-.075l-7.008-4.064"/>
    <path stroke="#9AC292" stroke-width="2" d="M239.329 226.821a200.316 200.316 0 0 0-13.591-7.979c-.279-.156-.476-.116-.598.19"/>
    <path stroke="#C0DCA8" stroke-width="2" d="m225.14 219.032-77.338-43.469"/>
    <path stroke="#628348" stroke-width="2" d="M147.802 175.563v-.19a.365.365 0 0 0-.186-.324l-6.189-3.574a.57.57 0 0 1-.29-.496l-.012-7.956c-.004-1.032.447-1.288 1.353-.768l7.89 4.532a.578.578 0 0 1 .29.508l-.134 6.686a.585.585 0 0 0 .256.491c2.165 1.461 4.952 2.494 6.839 3.562a2392.469 2392.469 0 0 0 37.592 20.854 174.5 174.5 0 0 0 7.745 3.955M207.479 200.412c.201-.481.579-.581 1.132-.3a247.27 247.27 0 0 1 13.365 7.367c1.486.882 2.868 1.27 4.145 1.167a.587.587 0 0 0 .343-.151c.801-.727 1.196-1.607 1.184-2.638a1630.72 1630.72 0 0 1-.017-34.549c.069-7.102-1.638-7.263-7.983-10.421"/>
    <path stroke="#9AC292" stroke-width="2" d="m219.648 160.887-33.482-18.73"/>
    <path stroke="#628348" stroke-width="2" d="m186.166 142.157-2.828-1.934M141.102 113.382v-6.357"/>
    <path stroke="#9A9E97" stroke-width="2" d="m147.802 175.563-5.707-3.25a.585.585 0 0 0-.734.131.583.583 0 0 0-.12.238l-.61 2.54a.57.57 0 0 0 .297.647 174.499 174.499 0 0 1 6.624 3.574 118119.95 118119.95 0 0 1 98.157 55.761c.215.127 1.249.433.668.774a.38.38 0 0 1-.372.005l-104.16-59.121c-.751-.423-1.492-.421-2.224.006l-55.247 32.47"/>
    <path stroke="#748481" stroke-width="2" d="M219.647 160.887c3.739 2.321 8.947 3.493 7.351 9.237"/>
    <path stroke="#D2DDE1" stroke-width="2" d="m226.998 170.124-43.59-23.712"/>
    <path stroke="#44612D" stroke-width="2" d="m140.834 113.832 40.896 23.106c.987.558 1.523 1.653 1.608 3.285"/>
    <path stroke="#1E231C" stroke-width="2" d="m183.338 140.223-.098.577"/>
    <path stroke="#566266" stroke-width="2" d="M183.24 140.8c-.194 2.117-.137 3.988.168 5.612"/>
    <path stroke="#7C7C7C" stroke-width="2" d="m183.408 146.412-.244 4.59a.576.576 0 0 0 .291.537c7.543 4.25 15.046 8.478 22.508 12.685 1.1.62 1.647 1.424 1.643 2.413a6906.82 6906.82 0 0 0 .018 32.188"/>
    <path stroke="#1E231C" stroke-width="2" d="m207.624 198.825-.145 1.588"/>
    <path stroke="#44612D" stroke-width="2" d="M207.479 200.412c-.453 2.649-1.961 3.459-4.523 2.431"/>
    <path stroke="#1E231C" stroke-width="2" d="m202.956 202.843.145-.433"/>
    <path stroke="#566266" stroke-width="2" d="M203.101 202.41c2.032.939 3.048.322 3.048-1.853l-.023-30.456"/>
    <path stroke="#1E231C" stroke-width="2" d="m206.126 170.101.145-.577"/>
    <path stroke="#44612D" stroke-width="2" d="M206.271 169.524c.627-2.425-.267-3.672-2.409-4.896a1254.556 1254.556 0 0 0-19.74-11.022.587.587 0 0 0-.552-.005.57.57 0 0 0-.307.456c-.132 1.42-.103 2.698.087 3.833"/>
    <path stroke="#566266" stroke-width="2" d="M183.35 157.89a718.26 718.26 0 0 0-.134 21.264c.041 4.001-2.153 5.543-5.799 3.366a2025.79 2025.79 0 0 0-14.689-8.666"/>
    <path stroke="#1E231C" stroke-width="2" d="m162.728 173.854.168-.167"/>
    <path stroke="#7C7C7C" stroke-width="2" d="M162.896 173.687c5.106 2.94 10.205 5.895 15.299 8.862 2.177 1.27 3.413-.006 3.419-2.28.05-12.394.023-24.692-.081-36.893"/>
    <path stroke="#566266" stroke-width="2" d="m181.533 143.376.064-.555"/>
    <path stroke="#6E7A03" stroke-width="2" d="M181.597 142.821c.604-2.835-.267-4.284-2.787-5.693a178453.631 178453.631 0 0 0-57.32-32.101c-2.932-1.639-3.75-.842-3.652 2.714a.592.592 0 0 0 .296.491l5.429 3.002"/>
    <path stroke="#1E231C" stroke-width="2" d="m123.563 111.234-.023.121"/>
    <path stroke="#7C7C7C" stroke-width="2" d="m123.54 111.355-5.307-2.661"/>
    <path stroke="#566266" stroke-width="2" d="m118.233 108.694-.621-.393"/>
    <path stroke="#748481" stroke-width="2" d="m186.166 142.157-2.926-1.357M203.972 168.97l2.154 1.131M203.101 202.41a2316.475 2316.475 0 0 0-37.075-20.115c-4.523-2.396-9.696-5.439-14.636-8.019a.602.602 0 0 1-.21-.184.56.56 0 0 1-.098-.255 20.059 20.059 0 0 1 .064-5.595.57.57 0 0 1 .32-.432.576.576 0 0 1 .539.016l10.723 6.028"/>
    <path stroke="#9A9E97" stroke-width="2" d="m123.54 111.355 2.49 1.467"/>
    <path stroke="#D2DDE1" stroke-width="2" d="M126.03 112.822a2535.668 2535.668 0 0 0 55.503 30.553"/>
    <path stroke="#9A9E97" stroke-width="2" d="m162.896 173.687-23.948-13.857"/>
    <path stroke="#D2DDE1" stroke-width="2" d="M118.233 108.694a4.695 4.695 0 0 0 0 1.911c.174.858.256 1.472.244 1.842-.329 11.647-.464 23.3-.406 34.958a.556.556 0 0 0 .29.491l20.587 11.934"/>
    <path stroke="#748481" stroke-width="2" d="m138.948 159.83-.459.168"/>
    <path stroke="#9A9E97" stroke-width="2" d="M226.998 170.124c.383 14.392.362 26.653-.064 36.784-.07 1.616-1.759 1.911-3.013 1.183-5.407-3.14-10.84-6.229-16.297-9.266"/>
    <path stroke="#748481" stroke-width="2" d="m126.199 112.654-.169.168"/>
    <path stroke="#C4DB68" stroke-width="2" d="M181.597 142.821c-.406-.046-.677-.106-.813-.179a5311.724 5311.724 0 0 0-54.585-29.988"/>
    <path stroke="#8C9C1E" stroke-width="2" d="m126.199 112.654-2.636-1.42"/>
    <path stroke="#628348" stroke-width="2" d="m206.271 169.524-2.299-.554"/>
    <path stroke="#9AC292" stroke-width="2" d="M203.972 168.97a373.104 373.104 0 0 0-20.622-11.08"/>
    <path stroke="#C0DCA8" stroke-width="2" d="M74.917 148.162 62.574 174.83a.576.576 0 0 0 .255.75c1.076.57 1.6 1.492 1.574 2.766a.576.576 0 0 0 .29.508l19.513 11.31"/>
    <path stroke="#9A9E97" stroke-width="2" d="m84.206 190.164 3.774 2.31"/>
    <path stroke="#7C7C7C" stroke-width="2" d="m87.98 192.474.115.138a.303.303 0 0 0 .377.064l15.81-9.117a.574.574 0 0 0 .284-.496l-.011-28.493a.578.578 0 0 0-.291-.502l-20.349-11.507a.607.607 0 0 0-.309-.075.582.582 0 0 0-.3.093 42.33 42.33 0 0 1-7.542 3.92.592.592 0 0 0-.325.329l-.522 1.334"/>
    <path stroke="#1E231C" stroke-width="2" d="m87.98 192.474.458-.41"/>
    <path stroke="#566266" stroke-width="2" d="M88.438 192.064c.186-.223.322-.475.407-.756 3.301-11.043 6.692-22.1 10.171-33.17a.582.582 0 0 0-.278-.681 618.728 618.728 0 0 1-18.323-10.265c-.805-.47-1.38-.868-1.725-1.195"/>
    <path stroke="#44612D" stroke-width="2" d="M78.69 145.997c.941.354 2.213.979 3.815 1.876a8040.904 8040.904 0 0 1 16.645 9.342.582.582 0 0 0 .586-.006l3.611-2.136a.57.57 0 0 0-.005-.993l-19.45-11.028a.6.6 0 0 0-.574-.006l-5.04 2.783"/>
    <path stroke="#566266" stroke-width="2" d="M78.278 145.829a5.152 5.152 0 0 0-2.032 1.011"/>
    <path stroke="#7C7C7C" stroke-width="2" d="M76.246 146.84c-.518.35-.865.839-1.039 1.466"/>
    <path stroke="#44612D" stroke-width="2" d="m75.207 148.306-.29-.144"/>
    <path stroke="#9AC292" stroke-width="2" d="m78.69 145.997-.412-.168"/>
    <path stroke="#C0DCA8" stroke-width="2" d="M85.268 188.721 63.294 175.54a.562.562 0 0 1-.25-.681c.422-1.224.89-2.389 1.405-3.493 3.56-7.702 7.147-15.389 10.758-23.06"/>
    <path stroke="#628348" stroke-width="2" d="M85.68 189.997c-.665-.581-1.157-.525-1.474.167"/>
    <path stroke="#748481" stroke-width="2" d="m88.438 192.064-2.758-2.067"/>
    <path stroke="#9AC292" stroke-width="2" d="M85.68 189.997c.004-.439-.133-.864-.412-1.276"/>
    <path stroke="#D2DDE1" stroke-width="2" d="m85.268 188.721.314.133a.58.58 0 0 0 .725-.231c.41-.678.825-1.657 1.243-2.939a5468.049 5468.049 0 0 0 8.238-25.525c.356-1.108.095-1.903-.784-2.384l-4.128-2.252a.58.58 0 0 0-.53-.016.575.575 0 0 0-.323.42l-.424 2.356c-.306 1.705-.501 1.691-.586-.041-.047-.893.255-1.678.906-2.355a.584.584 0 0 0 .158-.418.569.569 0 0 0-.188-.402 9.19 9.19 0 0 0-1.846-1.316 924.374 924.374 0 0 0-8.186-4.406.75.75 0 0 1-.127-.092c-1.084-1.035-2.245-1.84-3.484-2.413"/>
    <path stroke="#9A9E97" stroke-width="2" d="M48.814 192.595a6831.98 6831.98 0 0 0 19.53 11.911.59.59 0 0 0 .599.006c2.235-1.328 11.123-4.642 4.882-8.308a3169.137 3169.137 0 0 1-18.02-10.658c-1.069-.639-1.963-.763-2.683-.37l-5.225 2.864a.576.576 0 0 0-.29.398c-.376 2.048.027 3.433 1.207 4.157Z"/>
    <path stroke="#D2DDE1" stroke-width="2" d="m261.594 248.934 4.644 2.551"/>
    <path stroke="#9A9E97" stroke-width="2" d="m266.238 251.485 36.042 20.335c.592.339.592.673 0 1.004-4.13 2.321-8.265 4.639-12.407 6.952-.832.462-1.736.325-2.711-.41"/>
    <path stroke="#C0DCA8" stroke-width="2" d="m287.162 279.366-10.932-6.697a.573.573 0 0 1 .006-.988c1.184-.687 4.528-2.349 3.582-3.879a3.37 3.37 0 0 0-1.208-1.167c-8.19-4.665-16.169-9.218-23.937-13.66-.714-.41-1.654-1.316-2.27-1.553a21.255 21.255 0 0 1-4.116-2.148.573.573 0 0 0-.335-.096.6.6 0 0 0-.333.113l-1.411 1.04"/>
    <path stroke="#9A9E97" stroke-width="2" d="m246.209 250.331-15.356 9.006"/>
    <path stroke="#E9F57E" stroke-width="2" d="m230.853 259.338-8.326 4.872"/>
    <path stroke="#9A9E97" stroke-width="2" d="M222.527 264.21a555 555 0 0 0-25.464 14.804"/>
    <path stroke="#E9F57E" stroke-width="2" d="M197.063 279.014a15.216 15.216 0 0 0-3.901 2.298"/>
    <path stroke="#7C7C7C" stroke-width="2" d="M193.162 281.312a212.259 212.259 0 0 0-9.649 5.282c-2.891 1.686-4.041 4.914-.627 6.935a20241.478 20241.478 0 0 0 51.055 30.086.592.592 0 0 0 .593 0l66.829-38.516a.594.594 0 0 0 .186-.17.6.6 0 0 0 .096-.232.566.566 0 0 0-.125-.47l-.325-.387"/>
    <path stroke="#D2DDE1" stroke-width="2" d="M301.195 283.84a2.716 2.716 0 0 1 .917-1.587"/>
    <path stroke="#9A9E97" stroke-width="2" d="m302.112 282.253 3.541-2.056c.6-.35.594-.687-.017-1.01l-5.794-3.077"/>
    <path stroke="#D2DDE1" stroke-width="2" d="m299.842 276.11-.679-.786"/>
    <path stroke="#9A9E97" stroke-width="2" d="m299.163 275.324 3.774-2.551a.573.573 0 0 0-.041-.976l-36.367-20.456"/>
    <path stroke="#D2DDE1" stroke-width="2" d="m266.529 251.341-4.622-2.575"/>
    <path stroke="#9A9E97" stroke-width="2" d="M261.908 248.766c-2.793-2.275-5.464.144-8.424 2.2-.668.462.151.202.18.185 2.246-1.351 5.352-4.105 7.93-2.218"/>
    <path stroke="#748481" stroke-width="2" d="m261.907 248.766-.313.167M266.529 251.341l-.291.144M299.163 275.324a69.858 69.858 0 0 0-8.964 4.596.589.589 0 0 0-.281.478.568.568 0 0 0 .246.492l3.82 2.662"/>
    <path stroke="#628348" stroke-width="2" d="m293.984 283.552-.314.167"/>
    <path stroke="#8C9C1E" stroke-width="2" d="m287.139 279.631 6.532 4.088"/>
    <path stroke="#B2DA2F" stroke-width="2" d="M293.67 283.719c.36.535.167.905-.58 1.109"/>
    <path stroke="#C4DB68" stroke-width="2" d="M293.09 284.828a2211.707 2211.707 0 0 0-50.945 29.301"/>
    <path stroke="#8C9C1E" stroke-width="2" d="m242.145 314.128-2.032 1.3"/>
    <path stroke="#6E7A03" stroke-width="2" d="m240.113 315.428-5.661 3.233a.584.584 0 0 1-.644-.046c-1.831-1.394-3.882-2.497-6.154-3.309"/>
    <path stroke="#E9F57E" stroke-width="2" d="m227.654 315.306-.604-.6"/>
    <path stroke="#C4DB68" stroke-width="2" d="M227.05 314.706a204.992 204.992 0 0 0-14.95-8.759"/>
    <path stroke="#E9F57E" stroke-width="2" d="m212.1 305.947-24.117-14.312"/>
    <path stroke="#6E7A03" stroke-width="2" d="m187.983 291.635-5.016-3.026a.586.586 0 0 1-.203-.208.587.587 0 0 1-.075-.281.587.587 0 0 1 .272-.492l10.201-6.316"/>
    <path stroke="#8C9C1E" stroke-width="2" d="M197.063 279.014a611.037 611.037 0 0 0 25.464-14.804M230.853 259.337a231.214 231.214 0 0 0 15.501-8.862"/>
    <path stroke="#628348" stroke-width="2" d="m287.162 279.366-.023.265"/>
    <path stroke="#B2DA2F" stroke-width="2" d="M287.139 279.632a1878.589 1878.589 0 0 1-10.224-6.051c-2.961-1.767 1.016-3.383 2.061-4.151.797-.593.797-1.186 0-1.779a30.484 30.484 0 0 0-3.298-2.153 1911.847 1911.847 0 0 1-27.188-15.595.587.587 0 0 0-.337-.08 3.512 3.512 0 0 0-1.799.652"/>
    <path stroke="#628348" stroke-width="2" d="m246.354 250.475-.146-.144"/>
    <path stroke="#748481" stroke-width="2" d="m299.842 276.11 4.743 3.152c.604.404.569.743-.104 1.016-.883.358-1.672 1.016-2.369 1.975"/>
    <path stroke="#566266" stroke-width="2" d="M301.194 283.84c-.646-.615-1.263-.754-1.852-.415a45983.825 45983.825 0 0 1-57.058 32.765c-.732.423-1.221.273-1.469-.451"/>
    <path stroke="#748481" stroke-width="2" d="M240.815 315.739c.677-.373 1.12-.91 1.329-1.611"/>
    <path stroke="#9AC292" stroke-width="2" d="M293.09 284.828c.488-.008.917-.15 1.289-.428.487-.361.441-.631-.14-.808a1.048 1.048 0 0 0-.255-.04"/>
    <path stroke="#D2DDE1" stroke-width="2" d="M212.1 305.947a188.868 188.868 0 0 0 14.95 8.759"/>
    <path stroke="#7C7C7C" stroke-width="2" d="M187.983 291.635c-.9-.399-2.426-1.484-3.367-1.415-2.078.15-.255 1.542.331 1.882a6843.925 6843.925 0 0 1 40.988 24.065.564.564 0 0 0 .372.075c.557-.07 1.006-.381 1.347-.936"/>
    <path stroke="#1E231C" stroke-width="2" d="m240.113 315.428.702.311"/>
    <path stroke="#7C7C7C" stroke-width="2" d="M250.784 157.971c-.472-.369-.919-.67-1.341-.901a33323.601 33323.601 0 0 0-100.23-54.906c-1.076-.585-2.061-.73-2.955-.433-.639.215-1.562.679-2.77 1.391-.58.347-.576.682.012 1.005l103.44 56.887a.584.584 0 0 0 .598-.023l3.199-2.085a.566.566 0 0 0 .187-.196.565.565 0 0 0 .027-.525.574.574 0 0 0-.167-.214Z"/>
    <path stroke="#566266" stroke-width="2" d="M79.433 219.338c32.031 19.064 64.084 38.071 96.143 57.078a65.813 65.813 0 0 0 4.592 2.465.583.583 0 0 0 .836-.514l.018-3.556a.572.572 0 0 0-.285-.497L80.02 214.535c-.585-.351-.877-.185-.877.496l.006 3.811a.579.579 0 0 0 .285.496Z"/>
    <path stroke="#9AC292" stroke-width="2" d="m242.313 221.053-.058-8.643a.563.563 0 0 0-.255-.474l-1.887-1.252"/>
    <path stroke="#628348" stroke-width="2" d="m240.113 210.684.29-.289"/>
    <path stroke="#9AC292" stroke-width="2" d="m240.403 210.395 2.02.976a.585.585 0 0 0 .726-.185.916.916 0 0 0 .11-.906c-.232-.624-1.01-.994-1.503-1.536"/>
    <path stroke="#628348" stroke-width="2" d="m241.756 208.744-8.958-4.775c-.654-.346-.937-.154-.848.577a8.21 8.21 0 0 0 .981 3.06c.047.085.07.177.07.277l-.006 9.585a.576.576 0 0 0 .302.508l8.308 4.595a.569.569 0 0 0 .56.003.576.576 0 0 0 .299-.476 2.678 2.678 0 0 0-.151-1.045"/>
    <path stroke="#748481" stroke-width="2" d="M241.755 208.744a66.477 66.477 0 0 1-8.459-4.203c-.665-.397-.956-.212-.87.554.065.612.325 1.155.778 1.628.228.242.271.491.127.745a.552.552 0 0 0-.075.3l.244 9.446a.578.578 0 0 0 .29.485l7.611 4.347a.587.587 0 0 0 .778-.182.571.571 0 0 0 .093-.274l.041-.537"/>
    <path stroke="#748481" stroke-width="2" d="M240.403 210.395a77.037 77.037 0 0 0-3.832-1.9c-.011-.005-.563-.08-.238.127a36.1 36.1 0 0 0 3.78 2.062"/>
    <path stroke="#D2DDE1" stroke-width="2" d="M170.634 146.299a.232.232 0 0 0-.087-.315l-44.122-25.129a.233.233 0 0 0-.317.085l-.012.02a.23.23 0 0 0 .086.315l44.123 25.13a.243.243 0 0 0 .086.029.248.248 0 0 0 .172-.047.215.215 0 0 0 .059-.068l.012-.02ZM170.487 150.966a.197.197 0 0 0 .018-.145.187.187 0 0 0-.089-.115l-43.871-24.986a.181.181 0 0 0-.071-.024.21.21 0 0 0-.075.005.21.21 0 0 0-.067.033.206.206 0 0 0-.049.057l-.063.11a.184.184 0 0 0-.019.144.2.2 0 0 0 .033.067c.016.02.035.036.057.049l43.871 24.986a.191.191 0 0 0 .145.018.19.19 0 0 0 .116-.089l.064-.11ZM170.341 155.71a.262.262 0 0 0 .032-.094.253.253 0 0 0-.008-.099.247.247 0 0 0-.119-.154l-43.643-24.755a.262.262 0 0 0-.094-.032.258.258 0 0 0-.254.127l-.029.05a.262.262 0 0 0-.032.094.245.245 0 0 0 .052.187.245.245 0 0 0 .075.065l43.643 24.756a.26.26 0 0 0 .283-.02.259.259 0 0 0 .065-.075l.029-.05ZM170.269 160.439a.23.23 0 0 0 .023-.179.24.24 0 0 0-.111-.144l-43.582-24.721a.259.259 0 0 0-.089-.029.22.22 0 0 0-.092.007.23.23 0 0 0-.144.111l-.058.1a.24.24 0 0 0-.023.18c.017.06.057.112.112.143l43.582 24.721a.247.247 0 0 0 .181.023.26.26 0 0 0 .083-.042.237.237 0 0 0 .061-.069l.057-.101ZM170.12 165.193a.283.283 0 0 0-.106-.386l-43.451-24.647a.296.296 0 0 0-.105-.035.28.28 0 0 0-.21.058.264.264 0 0 0-.073.083l-.006.01a.283.283 0 0 0 .106.386l43.451 24.647a.295.295 0 0 0 .216.027.28.28 0 0 0 .099-.05.264.264 0 0 0 .073-.083l.006-.01ZM141.706 154.103l22.352 12.511"/>
    <path stroke="#9A9E97" stroke-width="2" d="M164.058 166.614a116.5 116.5 0 0 0 5.585 3.147c.052.029.737.184.348-.035a315.056 315.056 0 0 1-5.643-3.256"/>
    <path stroke="#D2DDE1" stroke-width="2" d="m164.348 166.47-22.207-12.656M142.141 153.814a2714.184 2714.184 0 0 0-11.582-6.68 27.37 27.37 0 0 0-2.23-1.16c-2.465-1.128-2.539-.99-.22.415a265.404 265.404 0 0 0 13.597 7.714"/>
    <path stroke="#ACC3CB" stroke-width="2" d="m142.141 153.814-.435.289"/>
    <path stroke="#748481" stroke-width="2" d="m164.348 166.47-.29.144"/>
    <path stroke="#D2DDE1" stroke-width="2" d="M79.103 151.118c-.09.254-.163.516-.221.785a.582.582 0 0 0 .07.416c.6 1 .718.958.354-.127a.571.571 0 0 1-.03-.266c.036-.258.076-.502.123-.733.282-1.432.183-1.457-.296-.075Z"/>
    <path stroke="#E9F57E" stroke-width="2" d="m77.732 159.72-3.477.035a.583.583 0 0 0-.57.543l-.028.392a.575.575 0 0 0 .244.503l1.05.762a.571.571 0 0 1 .192.693l-3.344 7.69a.587.587 0 0 0 .023.508c.883 1.605 1.622 1.636 2.218.093 1.37-3.528 2.926-6.946 4.244-10.439a.574.574 0 0 0-.28-.716.584.584 0 0 0-.272-.064ZM88.23 164.657c-.953-.42-1.803-.426-2.55-.018-.806.445-10.2 5.023-6.874 6.38 1.255.508 2.536 1.049 3.844 1.623a.567.567 0 0 1 .348.496c.043.866-.234 1.632-.83 2.298a.569.569 0 0 0-.122.549c.232.762.741 1.095 1.527.998a.568.568 0 0 0 .43-.283l1.138-1.945a.582.582 0 0 1 .447-.283l1.318-.127c.723-.069.855-.383.394-.941l-1.085-1.317a.575.575 0 0 1-.093-.577l2.41-6.114a.576.576 0 0 0-.303-.739Z"/>
    <path stroke="#E9F57E" stroke-width="2" d="m81.779 170.038 1.37 1.016a.579.579 0 0 0 .786-.085.586.586 0 0 0 .131-.256 5.449 5.449 0 0 1 .981-2.124c.46-.612.285-1.49-.69-.93-.836.481-1.672.951-2.508 1.409a.573.573 0 0 0-.25.747.58.58 0 0 0 .18.223Z"/>
    <path stroke="#9A9E97" stroke-width="2" d="M129.224 192.208a718.874 718.874 0 0 0-14.503 8.516c-1.746 1.051-1.837 2.138-.273 3.262 2.709 1.948 8.235 5.193 16.575 9.735"/>
    <path stroke="#D2DDE1" stroke-width="2" d="M131.023 213.721a8.036 8.036 0 0 0 2.752 1.633"/>
    <path stroke="#9A9E97" stroke-width="2" d="M133.775 215.355a445.369 445.369 0 0 0 20.889 12.447"/>
    <path stroke="#D2DDE1" stroke-width="2" d="M154.664 227.802a27.167 27.167 0 0 0 5.957 3.58"/>
    <path stroke="#9A9E97" stroke-width="2" d="M160.621 231.382a344.18 344.18 0 0 0 19.309 11.42"/>
    <path stroke="#D2DDE1" stroke-width="2" d="m179.931 242.802 1.689 1.178"/>
    <path stroke="#9A9E97" stroke-width="2" d="m181.62 243.98 17.092 10.092c.11.064.234.092.354.081 2.485-.248 3.82-1.288 5.876-2.477a7357.013 7357.013 0 0 1 27.153-15.618c1.15-.658 1.372-1.547.668-2.667-.248-.396-.881-.877-1.899-1.443a4336.43 4336.43 0 0 1-13.394-7.454"/>
    <path stroke="#D2DDE1" stroke-width="2" d="m217.47 224.494-69.668-39.503"/>
    <path stroke="#9A9E97" stroke-width="2" d="M147.801 184.991a9.864 9.864 0 0 0-3.419-1.426.577.577 0 0 0-.412.07l-14.747 8.573"/>
    <path stroke="#748481" stroke-width="2" d="M147.802 184.991c-1.227-.204-2.204-.617-2.932-1.241a.586.586 0 0 0-.674-.058l-14.827 8.661"/>
    <path stroke="#3C4537" stroke-width="2" d="m129.368 192.353-.145-.145"/>
    <path stroke="#748481" stroke-width="2" d="M217.47 224.494a.169.169 0 0 0-.116.069.074.074 0 0 0-.014.039.1.1 0 0 0 .009.046.15.15 0 0 0 .029.045.212.212 0 0 0 .046.038c4.385 2.525 8.784 5.03 13.196 7.517.89.504 1.488.92 1.794 1.247.836.897.722 1.651-.342 2.263-8.93 5.127-17.83 10.167-26.608 15.364-2.903 1.72-5.388 3.325-7.907 1.853a2022.816 2022.816 0 0 1-15.705-9.238.15.15 0 0 0-.174.012c-.074.061-.093.138-.058.231M179.93 242.802a237.939 237.939 0 0 0-19.309-11.42M154.664 227.802a422.603 422.603 0 0 0-20.889-12.447M131.023 213.721c-8.507-5.366-13.572-8.441-15.194-9.227-.936-.454-1.548-.939-1.834-1.454-.472-.847-.287-1.517.557-2.01l14.816-8.677"/>
    <path stroke="#D2DDE1" stroke-width="2" d="m125.014 235.51 4.354 2.696"/>
    <path stroke="#9A9E97" stroke-width="2" d="m129.369 238.206 1.741 1.057"/>
    <path stroke="#D2DDE1" stroke-width="2" d="m131.11 239.263 14.039 8.296"/>
    <path stroke="#9A9E97" stroke-width="2" d="M145.148 247.559c1.266.872 2.584 1.121 4.035.312 6.754-3.749 11.178-6.389 13.272-7.921 1.757-1.286 1.707-2.485-.151-3.597a1615.236 1615.236 0 0 0-19.757-11.657c-2.601-1.513-4.366-1.553-7.112-.029-3.893 2.16-7.783 4.327-11.669 6.501-2.787 1.559-.401 3.378 1.248 4.342"/>
    <path stroke="#748481" stroke-width="2" d="M145.148 247.559c1.796.432 3.54.149 5.231-.848a721.091 721.091 0 0 0 11.978-7.188c1.501-.92 1.55-1.798.145-2.633a1653.701 1653.701 0 0 1-17.644-10.641 20.648 20.648 0 0 0-6.514-2.615.59.59 0 0 0-.406.058l-13.928 7.742c-1.285.716-1.525 1.422-.72 2.119l1.98 1.714c.205.181.172.27-.099.266a.634.634 0 0 1-.157-.023"/>
    <path stroke="#748481" stroke-width="2" d="M131.11 239.263c-.197-1.005-.778-1.357-1.741-1.057"/>
    <path stroke="#9A9E97" stroke-width="2" d="M60.182 198.675c2.316 1.824 4.83 3.279 8.22 5.248a.572.572 0 0 0 .587 0c1.893-1.109 9.231-3.678 4.94-6.859a41.374 41.374 0 0 0-6.972-4.18"/>
    <path stroke="#628348" stroke-width="2" d="M66.957 192.884 55.2 185.592a.586.586 0 0 0-.325-.087c-2.299.058-4.352 1.012-6.16 2.864-1.614 1.663-1.225 2.979.668 4.14a189.593 189.593 0 0 0 10.799 6.166"/>
    <path stroke="#C0DCA8" stroke-width="2" d="m66.957 192.884-.842.727"/>
    <path stroke="#9AC292" stroke-width="2" d="M66.115 193.611c-.433-.573-.886-.664-1.358-.271"/>
    <path stroke="#C0DCA8" stroke-width="2" d="M64.757 193.34c-.542-.254-1.049-.183-1.521.214"/>
    <path stroke="#628348" stroke-width="2" d="M63.236 193.553a9.652 9.652 0 0 1-2.485 2.258.573.573 0 0 1-.593.017l-10.322-5.664a.201.201 0 0 0-.101-.025.18.18 0 0 0-.096.031c-.151.104-.138.202.04.295a147.263 147.263 0 0 1 10.532 6.224c.081.05.168.08.261.092l.534.046"/>
    <path stroke="#9AC292" stroke-width="2" d="m61.006 196.827.024.266"/>
    <path stroke="#C0DCA8" stroke-width="2" d="m61.03 197.093-.848 1.582"/>
    <path stroke="#D2DDE1" stroke-width="2" d="M61.03 197.093c1.038.104 3.622 2.234 5.579 3.273 2.16 1.149 4.098.532 5.794-.964.6-.531.52-.664-.238-.398-.236.081-.399.252-.488.514a.59.59 0 0 1-.296.329c-3.13 1.524-5.829-.739-8.923-2.691a.546.546 0 0 0-.262-.086c-.441-.039-.7-.272-.778-.699"/>
    <path stroke="#D2DDE1" stroke-width="2" d="m64.757 193.34 5.608 3.787c.123.082.21.21.244.358.244 1.17.517 1.211.819.122a.566.566 0 0 0-.017-.352.584.584 0 0 0-.221-.278l-5.075-3.366"/>
    <path stroke="#9A9E97" stroke-width="2" d="M63.236 193.553a6.576 6.576 0 0 1-1.817 2.818"/>
    <path stroke="#748481" stroke-width="2" d="m61.419 196.371-.413.456"/>
    <path stroke="#D2DDE1" stroke-width="2" d="M69.563 199.111c.05-.083-.234-.362-.79-.775a28.161 28.161 0 0 0-2.173-1.428 28.102 28.102 0 0 0-2.284-1.245c-.626-.296-1.006-.416-1.056-.334-.05.083.234.361.79.774a27.87 27.87 0 0 0 2.172 1.428c.836.502 1.658.95 2.284 1.246.627.296 1.007.416 1.057.334Z"/>
    <path stroke="#C4DB68" stroke-width="2" d="M229.807 274.58c-1.021.25-1.269.648-.743 1.195"/>
    <path stroke="#B2DA2F" stroke-width="2" d="m229.064 275.775 25.766 15.386a.573.573 0 0 0 .581.006l9.655-5.427a.474.474 0 0 0 .215-.248c.131-.378-.082-.599-.639-.664"/>
    <path stroke="#C4DB68" stroke-width="2" d="m264.642 284.828-6.218-3.73M258.424 281.098 242 271.693"/>
    <path stroke="#B2DA2F" stroke-width="2" d="m242 271.693-3.571-2.125a.58.58 0 0 0-.604.012l-8.017 5"/>
    <path stroke="#9AC292" stroke-width="2" d="m242 271.693-.291.047"/>
    <path stroke="#C0DCA8" stroke-width="2" d="m241.709 271.739-3.158-1.761a.59.59 0 0 0-.587.012l-7.721 4.636"/>
    <path stroke="#9AC292" stroke-width="2" d="m230.243 274.626-.435-.046"/>
    <path stroke="#D2DDE1" stroke-width="2" d="m241.709 271.739 16.669 9.792M258.377 281.531l5.829 3.343"/>
    <path stroke="#C0DCA8" stroke-width="2" d="M264.206 284.874c.726.814-.226.929-.69 1.207a243.976 243.976 0 0 1-8.007 4.566.577.577 0 0 1-.574-.011l-25.563-15.046"/>
    <path stroke="#D2DDE1" stroke-width="2" d="M229.372 275.59c.054-.508.345-.829.871-.964"/>
    <path stroke="#ACC3CB" stroke-width="2" d="m258.424 281.098-.047.433"/>
    <path stroke="#9AC292" stroke-width="2" d="m229.372 275.59-.308.185M264.207 284.875l.435-.047"/>
    <path fill="#000" d="m183.507 103.105-.146.144c-7.344-4.087-13.213-6.472-12.987-15.606.116-4.753 2.16-8.423 6.131-11.01 3.089-2.015 7.065-2.771 10.137-.566a.58.58 0 0 0 .76-.075c9.051-9.601 21.789-7.436 29.993 1.628 3.944 4.354 6.367 9.511 7.268 15.474a.584.584 0 0 0 .563.49c10.433.225 17.656 5.75 18.95 16.23 1.08 8.747-4.035 17.026-13.457 17.453-5.144.237-8.761-2.315-14.422-5.704a.11.11 0 0 1-.048-.068.084.084 0 0 1 .003-.039.08.08 0 0 1 .022-.032l.07-.075c.005-.004.014-.006.026-.004a.12.12 0 0 1 .038.016c4.917 2.846 8.348 5.358 12.267 5.519 6.181.251 10.061-2.507 11.641-8.273 2.467-9.007-1.434-19.532-11.229-22.119a22.675 22.675 0 0 0-6.63-.733.589.589 0 0 1-.598-.496c-1.084-7.687-4.606-13.986-10.566-18.897-4.18-3.447-11.147-5.883-16.448-4.52-3.503.896-6.305 2.98-8.407 6.252a.567.567 0 0 1-.374.256.58.58 0 0 1-.444-.094c-1.378-.951-2.859-1.52-4.442-1.71-1.594-.192-3.173.126-4.737.953-6.775 3.58-7.611 13.181-3.17 18.776 2.27 2.858 6.92 4.93 10.236 6.83Z"/>
    <path fill="#88C159" d="m207.891 103.827-.557.311c.011-.319-.176-.525-.563-.617a3.947 3.947 0 0 1-.877-.324c-4.567-2.355-8.711-4.617-12.43-6.784-1.608-.935-2.973-.392-2.984 1.56-.043 5.715-.039 11.387.011 17.014a.57.57 0 0 1-.457.567.599.599 0 0 1-.263-.001 8.951 8.951 0 0 1-2.664-1.132c-1.034-.65-1.316-.414-.848.71.551 1.305 3.239 6.761 3.03 7.771a84.224 84.224 0 0 1-4.052-9.578.58.58 0 0 1 .197-.652c1.421-1.055 2.818-.916 4.192.415l-2.345-.825a.56.56 0 0 0-.383 0c-3.101 1.062 1.991 2.425 2.45 2.592a.59.59 0 0 0 .719-.289c.202-.408.184-.852-.052-1.333.147-2.16.062-4.305-.255-6.438a.596.596 0 0 0-.104-.252.565.565 0 0 0-.204-.175l-6.09-3.118.145-.144 5.701 2.927a.58.58 0 0 0 .572-.021.579.579 0 0 0 .276-.499l-.076-9.03a.592.592 0 0 1 .204-.444c1.039-.877 2.153-.912 3.402-.23 4.787 2.632 9.556 5.305 14.305 8.019Z"/>
    <path fill="#DBF305" d="M207.333 104.138c-.154.705-.59 1.09-1.306 1.155l-14.166-8.302a.575.575 0 0 0-.4-.07c-.535.1-.56.278-.076.532a169.648 169.648 0 0 1 14.41 8.481l-.354 18.36a.585.585 0 0 0 .29.514l6.102 3.435-1.597 1.588a19.462 19.462 0 0 1-4.232 2.719 250.107 250.107 0 0 1-16.692-9.238l-.023-.41c.209-1.01-2.479-6.466-3.03-7.771-.469-1.124-.186-1.36.847-.71.84.527 1.728.905 2.665 1.132a.599.599 0 0 0 .5-.111.571.571 0 0 0 .22-.455c-.05-5.627-.054-11.299-.012-17.015.012-1.951 1.376-2.494 2.985-1.559 3.719 2.167 7.862 4.429 12.43 6.784.278.143.57.251.876.324.387.092.575.298.563.617Z"/>
    <path fill="#3C4537" d="m206.027 105.293-.232.641a169.648 169.648 0 0 0-14.41-8.481c-.484-.254-.459-.431.075-.532a.579.579 0 0 1 .401.07l14.166 8.302Z"/>
    <path fill="#000" d="M189.312 123.312a250.559 250.559 0 0 0 16.692 9.238l44.396 24.503c1.142.631 1.713 1.586 1.713 2.864.063 25.796.516 51.985-.122 78.231-.02.863-.403 1.509-1.15 1.94a47608.688 47608.688 0 0 1-64.205 36.951c-4.465 2.569-5.121 3.418-9.417.866-32.628-19.361-65.4-38.829-98.314-58.405a.563.563 0 0 1-.285-.479l-.145-5.803a.566.566 0 0 1 .261-.496l5.492-3.528.146.144-5.18 3.222a.577.577 0 0 0 .013.987c32.616 19.307 65.225 38.625 97.826 57.955a55.237 55.237 0 0 0 3.379 1.865c.921.466 1.829.441 2.723-.075 20.711-11.928 41.29-23.775 61.738-35.542 3.617-2.084 2.398-2.275 2.473-6.016l-.087-69.41a.577.577 0 0 0-.226-.456c-1.224-.931-2.747-1.899-4.57-2.904a34888.338 34888.338 0 0 0-100.084-54.843.59.59 0 0 0-.534-.015.58.58 0 0 0-.32.425l-.424 2.494-.244.144.326-3.198a.564.564 0 0 1 .132-.311.593.593 0 0 1 .286-.186l1.242-.363a.53.53 0 0 0 .226-.127c1.754-1.582 4.181-2.552 6.445-1.328a4599.067 4599.067 0 0 1 39.392 21.656c.085.05.22.05.406 0Zm61.471 34.659a9.93 9.93 0 0 0-1.341-.901 33101.39 33101.39 0 0 0-100.23-54.906c-1.076-.585-2.061-.73-2.955-.433-.639.215-1.562.679-2.77 1.391-.58.347-.576.681.012 1.005l103.441 56.887a.578.578 0 0 0 .598-.023l3.199-2.085a.575.575 0 0 0 .046-.935Zm-171.35 61.367c32.03 19.064 64.084 38.071 96.143 57.078a65.36 65.36 0 0 0 4.592 2.465.58.58 0 0 0 .836-.514l.017-3.556a.572.572 0 0 0-.284-.497L80.019 214.535c-.584-.351-.876-.185-.876.496l.005 3.811c.002.1.029.199.079.286a.58.58 0 0 0 .206.21Z"/>
    <path fill="#F7F7F7" d="M250.783 157.971a.574.574 0 0 1-.046.935l-3.199 2.085a.578.578 0 0 1-.598.023l-103.441-56.887c-.588-.324-.592-.658-.011-1.005 1.207-.712 2.13-1.176 2.769-1.391.894-.297 1.879-.152 2.955.433a33101.39 33101.39 0 0 1 100.23 54.906 9.93 9.93 0 0 1 1.341.901Z"/>
    <path fill="#000" d="m140.835 113.832 40.895 23.106c.987.558 1.523 1.653 1.609 3.285l-.099.577c-.194 2.117-.138 3.988.168 5.612l-.244 4.59a.58.58 0 0 0 .291.537c7.543 4.25 15.046 8.478 22.508 12.685 1.1.619 1.647 1.424 1.643 2.413-.019 10.731-.013 21.46.018 32.188l-.145 1.587c-.453 2.649-1.961 3.459-4.523 2.431l.145-.433c2.032.939 3.048.321 3.048-1.853l-.023-30.456.145-.577c.627-2.425-.267-3.672-2.409-4.896a1254.556 1254.556 0 0 0-19.74-11.022.587.587 0 0 0-.552-.006.576.576 0 0 0-.307.456c-.132 1.421-.102 2.699.087 3.834a714.757 714.757 0 0 0-.133 21.264c.04 4.001-2.154 5.543-5.8 3.366a2025.79 2025.79 0 0 0-14.689-8.666l.169-.167c5.105 2.94 10.204 5.894 15.298 8.862 2.177 1.27 3.413-.006 3.419-2.281.051-12.393.023-24.691-.081-36.893l.064-.554c.604-2.835-.267-4.284-2.787-5.693a178453.631 178453.631 0 0 0-57.32-32.101c-2.932-1.639-3.75-.843-3.652 2.714a.592.592 0 0 0 .296.491l5.429 3.002-.023.121-5.307-2.661-.621-.393c-.261-2.563.551-7.055 4.447-4.838a909.324 909.324 0 0 0 18.776 10.369ZM207.891 103.827c.946 1.899.29 10.496.29 13.106a.569.569 0 0 0 .546.571 4.073 4.073 0 0 1 2.084.71c.913.628.863.716-.151.266l-1.661-.739a.566.566 0 0 0-.547.042.57.57 0 0 0-.265.483l-.006 4.758a.578.578 0 0 0 .29.502l5.545 3.147a.578.578 0 0 1 .087.941 5.104 5.104 0 0 1-1.713.941l-.557-.312-6.102-3.435a.572.572 0 0 1-.29-.514l.354-18.36.232-.641c.716-.065 1.151-.45 1.306-1.155l.558-.311Z"/>
    <path fill="#88C159" d="M247.346 231.734c.008-.546-.218-.804-.679-.774a.583.583 0 0 1-.331-.075l-7.007-4.064a200.094 200.094 0 0 0-13.592-7.979c-.278-.156-.476-.116-.598.19l-77.338-43.469v-.19a.354.354 0 0 0-.185-.324l-6.189-3.574a.572.572 0 0 1-.291-.496l-.011-7.956c-.004-1.032.447-1.288 1.352-.768l7.89 4.532a.574.574 0 0 1 .291.508l-.134 6.686a.585.585 0 0 0 .256.491c2.165 1.461 4.952 2.494 6.839 3.562a2387.97 2387.97 0 0 0 37.592 20.854c2.547 1.382 5.128 2.7 7.745 3.955 2.562 1.028 4.07.218 4.522-2.43.202-.482.579-.582 1.132-.301a247.27 247.27 0 0 1 13.365 7.367c1.487.882 2.868 1.271 4.146 1.167a.583.583 0 0 0 .342-.15c.801-.728 1.196-1.607 1.184-2.639-.127-11.52-.133-23.036-.017-34.549.07-7.101-1.637-7.263-7.983-10.421l-33.481-18.73-2.828-1.934c-.085-1.632-.621-2.727-1.608-3.285l-40.896-23.106.268-.45v-6.357l.423-2.494a.583.583 0 0 1 .854-.41 34889.225 34889.225 0 0 1 100.085 54.843c1.823 1.005 3.346 1.973 4.569 2.904a.577.577 0 0 1 .226.456l.087 69.41Zm-5.033-10.681-.058-8.643a.563.563 0 0 0-.256-.473l-1.887-1.253.291-.289 2.02.976a.585.585 0 0 0 .726-.185.916.916 0 0 0 .11-.906c-.232-.624-1.01-.993-1.504-1.536l-8.958-4.775c-.654-.346-.937-.154-.847.577a8.174 8.174 0 0 0 .981 3.06.573.573 0 0 1 .069.278l-.005 9.584a.565.565 0 0 0 .08.294c.053.089.13.163.221.214l8.308 4.595a.575.575 0 0 0 .86-.473 2.697 2.697 0 0 0-.151-1.045Z"/>
    <path fill="#DBF305" d="M181.596 142.821c-.406-.046-.677-.106-.812-.179a5303.269 5303.269 0 0 0-54.586-29.988l-2.636-1.42-5.428-3.002a.592.592 0 0 1-.296-.491c-.099-3.556.72-4.353 3.652-2.714a189967.29 189967.29 0 0 1 57.32 32.101c2.519 1.409 3.39 2.858 2.786 5.693Z"/>
    <path fill="#3C4537" d="M141.101 107.025v6.357l-.244-6.213.244-.144Z"/>
    <path fill="#ACC3CB" d="m117.612 108.301.621.393a4.66 4.66 0 0 0 0 1.911c.174.858.255 1.472.244 1.841a1052.624 1052.624 0 0 0-.407 34.959.557.557 0 0 0 .291.491l20.587 11.934-.459.167-19.693-11.333c-.82-.473-1.236-1.193-1.248-2.159a7106.424 7106.424 0 0 1-.418-37.026c-.004-.158.157-.551.482-1.178Z"/>
    <path fill="#F7F7F7" d="m118.233 108.694 5.306 2.661 2.491 1.467a2533.353 2533.353 0 0 0 55.503 30.553c.104 12.202.131 24.5.081 36.894-.006 2.274-1.243 3.55-3.42 2.28a3444.983 3444.983 0 0 0-15.298-8.862l-23.948-13.857-20.588-11.934a.562.562 0 0 1-.29-.491c-.058-11.658.078-23.311.407-34.958.011-.37-.07-.984-.244-1.842a4.66 4.66 0 0 1 0-1.911Zm52.4 37.605a.228.228 0 0 0-.086-.315l-44.123-25.129a.228.228 0 0 0-.257.017.243.243 0 0 0-.06.068l-.011.02a.23.23 0 0 0 .086.315l44.123 25.13a.23.23 0 0 0 .317-.086l.011-.02Zm-.147 4.667a.186.186 0 0 0-.014-.211.19.19 0 0 0-.057-.049l-43.871-24.986a.176.176 0 0 0-.071-.024.206.206 0 0 0-.074.005.19.19 0 0 0-.116.09l-.064.11a.186.186 0 0 0-.023.07.168.168 0 0 0 .005.074.183.183 0 0 0 .033.067c.015.02.035.036.056.049l43.871 24.986a.197.197 0 0 0 .213-.015.189.189 0 0 0 .049-.056l.063-.11Zm-.145 4.744a.26.26 0 0 0 .024-.193.265.265 0 0 0-.044-.089.265.265 0 0 0-.076-.065l-43.642-24.755a.26.26 0 0 0-.194-.025.25.25 0 0 0-.089.045.25.25 0 0 0-.066.075l-.028.05a.244.244 0 0 0-.025.193.245.245 0 0 0 .045.088c.02.027.046.049.075.065l43.642 24.755a.255.255 0 0 0 .349-.094l.029-.05Zm-.072 4.729a.234.234 0 0 0 .023-.179.238.238 0 0 0-.112-.144l-43.582-24.721a.247.247 0 0 0-.088-.029.22.22 0 0 0-.092.007.235.235 0 0 0-.144.111l-.058.1a.24.24 0 0 0-.023.18c.017.06.057.112.112.143l43.582 24.721a.247.247 0 0 0 .181.023.252.252 0 0 0 .144-.111l.057-.101Zm-.15 4.754a.284.284 0 0 0 .028-.215.283.283 0 0 0-.134-.171l-43.451-24.647a.296.296 0 0 0-.105-.035.28.28 0 0 0-.21.058.277.277 0 0 0-.073.083l-.006.01a.283.283 0 0 0 .107.386l43.45 24.646a.291.291 0 0 0 .216.028.294.294 0 0 0 .172-.133l.006-.01Zm-28.414-11.09 22.352 12.511a117.481 117.481 0 0 0 5.585 3.147c.053.029.738.184.349-.035a315.056 315.056 0 0 1-5.643-3.256l-22.207-12.656a2654.14 2654.14 0 0 0-11.583-6.68 27.198 27.198 0 0 0-2.229-1.16c-2.466-1.128-2.539-.99-.221.415a265.831 265.831 0 0 0 13.597 7.714Z"/>
    <path fill="#3C4537" d="m123.563 111.234 2.636 1.42-.169.168-2.49-1.467.023-.121Z"/>
    <path fill="#DBF305" d="m189.626 113.087.389.145c.236.481.253.925.052 1.333a.583.583 0 0 1-.72.289c-.459-.167-5.55-1.53-2.45-2.592a.56.56 0 0 1 .383 0l2.346.825Z"/>
    <path fill="#ACC3CB" d="M126.198 112.654a5322.402 5322.402 0 0 1 54.586 29.988c.135.073.406.133.812.179l-.063.555a2537.6 2537.6 0 0 1-55.503-30.554l.168-.168ZM170.547 145.984l-44.123-25.129a.233.233 0 0 0-.317.085l-.011.02a.23.23 0 0 0 .086.315l44.123 25.13a.233.233 0 0 0 .317-.086l.011-.02a.23.23 0 0 0-.086-.315ZM170.415 150.706l-43.871-24.986a.191.191 0 0 0-.261.071l-.064.11a.19.19 0 0 0 .071.26l43.871 24.986c.092.052.209.02.262-.071l.063-.11a.19.19 0 0 0-.071-.26Z"/>
    <path fill="#3C4537" d="m211.833 128.243.557.312-2.154 1.276 1.597-1.588Z"/>
    <path fill="#ACC3CB" d="m170.245 155.363-43.642-24.755a.256.256 0 0 0-.349.095l-.028.05a.252.252 0 0 0 .095.346l43.642 24.756a.257.257 0 0 0 .349-.095l.029-.05a.255.255 0 0 0-.096-.347ZM170.18 160.116l-43.582-24.721a.238.238 0 0 0-.324.089l-.058.1a.236.236 0 0 0 .089.323l43.582 24.721a.239.239 0 0 0 .325-.089l.057-.1a.237.237 0 0 0-.089-.323ZM170.013 164.807l-43.45-24.647a.287.287 0 0 0-.389.106l-.005.01a.282.282 0 0 0 .106.386l43.451 24.646c.136.078.31.031.388-.105l.005-.01a.281.281 0 0 0-.106-.386Z"/>
    <path fill="#3C4537" d="m183.338 140.223 2.828 1.934-2.926-1.357.098-.577Z"/>
    <path fill="#ACC3CB" d="m183.239 140.8 2.927 1.357 33.481 18.73c3.739 2.321 8.947 3.493 7.35 9.237l-43.589-23.712c-.306-1.624-.362-3.495-.169-5.612Z"/>
    <path fill="#000" d="m87.98 192.474.458-.41c.186-.223.321-.475.406-.756 3.302-11.043 6.693-22.1 10.172-33.17a.582.582 0 0 0-.279-.681 618.728 618.728 0 0 1-18.322-10.265c-.806-.47-1.38-.868-1.725-1.195.94.354 2.212.979 3.815 1.876a8040.904 8040.904 0 0 1 16.645 9.342.582.582 0 0 0 .586-.006l3.611-2.136a.57.57 0 0 0-.006-.993l-19.449-11.028a.599.599 0 0 0-.575-.006l-5.039 2.783a5.152 5.152 0 0 0-2.032 1.011c-.519.35-.865.839-1.04 1.466l-.29-.144.523-1.334a.592.592 0 0 1 .325-.329 42.33 42.33 0 0 0 7.542-3.92.582.582 0 0 1 .3-.093.607.607 0 0 1 .31.075l20.348 11.507a.578.578 0 0 1 .291.502l.011 28.493a.575.575 0 0 1-.284.496l-15.81 9.117a.303.303 0 0 1-.376-.064l-.117-.138Z"/>
    <path fill="#88C159" d="m78.69 145.997-.412-.168 5.04-2.783a.602.602 0 0 1 .574.006l19.449 11.028a.57.57 0 0 1 .006.993l-3.611 2.136a.58.58 0 0 1-.587.006 8040.904 8040.904 0 0 0-16.645-9.342c-1.602-.897-2.873-1.522-3.814-1.876Z"/>
    <path fill="#ACC3CB" d="m142.141 153.814-.436.289a265.831 265.831 0 0 1-13.597-7.714c-2.318-1.405-2.245-1.543.221-.415.697.319 1.44.706 2.229 1.16a2654.14 2654.14 0 0 1 11.583 6.68ZM78.278 145.829l.412.168c.345.327.92.725 1.725 1.195a618.728 618.728 0 0 0 18.322 10.265.576.576 0 0 1 .28.681c-3.48 11.07-6.871 22.127-10.172 33.169a2.14 2.14 0 0 1-.407.757l-2.758-2.067c.004-.439-.133-.864-.412-1.276l.314.133a.58.58 0 0 0 .725-.231c.41-.678.825-1.657 1.243-2.939a5468.049 5468.049 0 0 0 8.238-25.525c.356-1.108.095-1.903-.784-2.384l-4.128-2.252a.58.58 0 0 0-.53-.017.587.587 0 0 0-.323.421l-.424 2.356c-.306 1.705-.501 1.691-.586-.041-.047-.893.255-1.678.906-2.355a.584.584 0 0 0 .158-.418.569.569 0 0 0-.188-.402 9.235 9.235 0 0 0-1.846-1.317 952.446 952.446 0 0 0-8.186-4.405.75.75 0 0 1-.127-.092c-1.084-1.036-2.245-1.84-3.484-2.413a5.152 5.152 0 0 1 2.032-1.011Z"/>
    <path fill="#F7F7F7" d="M226.997 170.124c.384 14.392.362 26.653-.063 36.784-.07 1.616-1.76 1.911-3.014 1.183a1025.293 1025.293 0 0 0-16.296-9.266 6906.896 6906.896 0 0 1-.018-32.188c.004-.989-.543-1.793-1.643-2.413a96388.78 96388.78 0 0 0-22.508-12.685.58.58 0 0 1-.291-.537l.244-4.59 43.589 23.712ZM76.246 146.84c1.239.573 2.4 1.378 3.484 2.413a.75.75 0 0 0 .127.092 924.374 924.374 0 0 1 8.186 4.406 9.19 9.19 0 0 1 1.847 1.316.568.568 0 0 1 .15.626.582.582 0 0 1-.121.194c-.65.677-.953 1.462-.906 2.355.085 1.732.28 1.746.586.041l.424-2.356a.576.576 0 0 1 .59-.476.58.58 0 0 1 .264.072l4.127 2.252c.88.481 1.14 1.276.784 2.384a5468.049 5468.049 0 0 1-8.238 25.525c-.418 1.282-.832 2.261-1.242 2.939a.58.58 0 0 1-.726.231l-.314-.133-21.974-13.181a.562.562 0 0 1-.25-.681c.422-1.224.89-2.389 1.405-3.493 3.56-7.702 7.147-15.389 10.758-23.06a2.522 2.522 0 0 1 1.04-1.466Zm2.857 4.278a6.544 6.544 0 0 0-.221.785.581.581 0 0 0 .07.416c.6 1 .718.958.354-.127a.573.573 0 0 1-.03-.266c.036-.258.076-.502.123-.733.282-1.432.184-1.457-.296-.075Zm-1.37 8.602-3.478.035a.583.583 0 0 0-.57.543l-.028.392a.577.577 0 0 0 .244.503l1.05.762a.568.568 0 0 1 .192.693l-3.344 7.69a.588.588 0 0 0 .023.508c.883 1.605 1.622 1.636 2.218.092 1.37-3.527 2.926-6.945 4.244-10.438a.576.576 0 0 0-.552-.78Zm10.496 4.937c-.952-.42-1.802-.426-2.549-.018-.806.445-10.2 5.023-6.874 6.38 1.255.508 2.536 1.049 3.844 1.623a.568.568 0 0 1 .348.496c.043.866-.234 1.632-.83 2.298a.568.568 0 0 0-.122.549c.232.762.741 1.095 1.527.998a.568.568 0 0 0 .43-.283l1.138-1.945a.582.582 0 0 1 .447-.283l1.318-.127c.723-.069.855-.383.394-.941l-1.085-1.317a.576.576 0 0 1-.093-.577l2.41-6.114a.575.575 0 0 0-.303-.739Z"/>
    <path fill="#88C159" d="m74.916 148.162.29.144a3671.867 3671.867 0 0 0-10.757 23.06 36.093 36.093 0 0 0-1.405 3.493.57.57 0 0 0 .25.681l21.974 13.181c.279.412.416.837.412 1.276-.666-.581-1.157-.525-1.475.167l-19.513-11.31a.577.577 0 0 1-.29-.508c.027-1.274-.497-2.196-1.573-2.766a.578.578 0 0 1-.256-.75l12.343-26.668Z"/>
    <path fill="#ACC3CB" d="M79.103 151.118c.48-1.382.578-1.357.296.075a11.59 11.59 0 0 0-.122.733.571.571 0 0 0 .029.266c.364 1.085.246 1.127-.354.127a.582.582 0 0 1-.07-.416c.058-.269.131-.531.22-.785Z"/>
    <path fill="#88C159" d="m206.271 169.524-2.299-.554a373.104 373.104 0 0 0-20.622-11.08c-.19-1.135-.219-2.413-.088-3.833a.575.575 0 0 1 .308-.456.577.577 0 0 1 .552.005 1258.975 1258.975 0 0 1 19.739 11.022c2.143 1.224 3.037 2.471 2.41 4.896Z"/>
    <path fill="#ACC3CB" d="m142.141 153.814 22.206 12.656-.29.144-22.352-12.511.436-.289Z"/>
    <path fill="#ACC3CB" d="m203.972 168.97 2.154 1.131.023 30.456c0 2.175-1.016 2.792-3.048 1.853a2316.475 2316.475 0 0 0-37.075-20.115c-4.523-2.396-9.696-5.439-14.636-8.019a.602.602 0 0 1-.21-.184.56.56 0 0 1-.098-.255 20.059 20.059 0 0 1 .064-5.595.57.57 0 0 1 .32-.432.576.576 0 0 1 .539.017l10.723 6.027a2025.79 2025.79 0 0 1 14.689 8.666c3.646 2.177 5.84.635 5.799-3.366a718.26 718.26 0 0 1 .134-21.264 373.104 373.104 0 0 1 20.622 11.08Z"/>
    <path fill="#DBF305" d="M77.732 159.72a.584.584 0 0 1 .584.504.577.577 0 0 1-.032.276c-1.318 3.493-2.874 6.911-4.245 10.439-.596 1.543-1.335 1.512-2.217-.093a.582.582 0 0 1-.023-.508l3.344-7.69a.569.569 0 0 0-.192-.693l-1.05-.762a.581.581 0 0 1-.245-.503l.03-.392a.586.586 0 0 1 .568-.543l3.478-.035Z"/>
    <path fill="#3C4537" d="m138.948 159.83 23.949 13.857-.169.167-10.723-6.027a.587.587 0 0 0-.539-.017.584.584 0 0 0-.32.432 20.059 20.059 0 0 0-.064 5.595.57.57 0 0 0 .308.439c4.94 2.58 10.113 5.623 14.636 8.019a2316.475 2316.475 0 0 1 37.075 20.115l-.145.433a174.5 174.5 0 0 1-7.745-3.955 2392.469 2392.469 0 0 1-37.592-20.854c-1.887-1.068-4.673-2.101-6.839-3.562a.57.57 0 0 1-.255-.491l.133-6.686a.574.574 0 0 0-.29-.508l-7.89-4.532c-.906-.52-1.357-.264-1.353.768l.012 7.956a.567.567 0 0 0 .29.496l6.189 3.574a.355.355 0 0 1 .186.324v.19l-5.707-3.25a.585.585 0 0 0-.734.131.583.583 0 0 0-.12.238l-.609 2.54a.569.569 0 0 0 .296.647 174.499 174.499 0 0 1 6.624 3.574 118119.95 118119.95 0 0 1 98.157 55.761c.215.127 1.249.433.668.774a.377.377 0 0 1-.371.005l-104.161-59.121c-.751-.423-1.492-.421-2.224.006l-55.247 32.47-.145-.144 55.927-32.915a.57.57 0 0 0 .284-.479l.406-13.787a.585.585 0 0 0-.238-.48l-2.119-1.535.459-.168ZM219.647 160.887c6.346 3.158 8.053 3.32 7.983 10.421-.116 11.513-.11 23.029.018 34.549.011 1.032-.384 1.911-1.185 2.639a.583.583 0 0 1-.342.15c-1.278.104-2.659-.285-4.146-1.167a247.621 247.621 0 0 0-13.364-7.367c-.554-.281-.931-.181-1.132.301l.145-1.588a1025.293 1025.293 0 0 1 16.296 9.266c1.254.728 2.944.433 3.013-1.183.426-10.131.448-22.392.064-36.784 1.597-5.744-3.611-6.916-7.35-9.237Z"/>
    <path fill="#DBF305" d="M88.229 164.657a.577.577 0 0 1 .302.739l-2.41 6.114a.582.582 0 0 0 .093.577l1.086 1.317c.46.558.329.872-.395.941l-1.318.127a.59.59 0 0 0-.447.283l-1.138 1.945a.571.571 0 0 1-.43.283c-.785.097-1.294-.236-1.526-.998a.569.569 0 0 1 .121-.549c.597-.666.873-1.432.83-2.298a.567.567 0 0 0-.102-.296.589.589 0 0 0-.246-.2 146.065 146.065 0 0 0-3.843-1.623c-3.327-1.357 6.067-5.935 6.874-6.38.747-.408 1.597-.402 2.549.018Zm-6.45 5.381 1.37 1.016a.579.579 0 0 0 .786-.085.585.585 0 0 0 .131-.256 5.449 5.449 0 0 1 .981-2.124c.459-.612.285-1.49-.69-.93-.837.481-1.673.951-2.509 1.409a.578.578 0 0 0-.25.747.58.58 0 0 0 .18.223Z"/>
    <path fill="#3C4537" d="M164.347 166.47c1.87 1.104 3.751 2.19 5.644 3.256.389.219-.297.064-.349.035a116.99 116.99 0 0 1-5.585-3.147l.29-.144Z"/>
    <path fill="#F7F7F7" d="M81.779 170.038a.58.58 0 0 1-.141-.776.58.58 0 0 1 .21-.194c.837-.458 1.673-.928 2.509-1.409.975-.56 1.15.318.69.93a5.449 5.449 0 0 0-.98 2.124.586.586 0 0 1-.918.341l-1.37-1.016Z"/>
    <path fill="#3C4537" d="m206.271 169.524-.145.577-2.154-1.131 2.299.554Z"/>
    <path fill="#F7F7F7" d="m147.801 175.563 77.338 43.469 14.19 7.789 7.007 4.064a.583.583 0 0 0 .331.075c.461-.03.687.228.679.774-.075 3.741 1.144 3.932-2.473 6.016a203461.958 203461.958 0 0 0-61.738 35.542c-.894.516-1.802.541-2.723.075a55.535 55.535 0 0 1-3.379-1.865c-32.601-19.33-65.21-38.648-97.826-57.955a.575.575 0 0 1-.012-.987l5.179-3.222 55.247-32.47c.732-.427 1.473-.429 2.224-.006l104.16 59.121a.368.368 0 0 0 .372-.005c.58-.341-.453-.647-.668-.774a118119.95 118119.95 0 0 0-98.157-55.761 173.777 173.777 0 0 0-6.625-3.574.574.574 0 0 1-.296-.647l.61-2.54a.581.581 0 0 1 .853-.369l5.707 3.25Zm-18.578 16.645a721.66 721.66 0 0 0-14.503 8.516c-1.745 1.051-1.836 2.138-.273 3.262 2.71 1.948 8.235 5.193 16.576 9.735a8.026 8.026 0 0 0 2.752 1.633 444.525 444.525 0 0 0 20.889 12.448 27.122 27.122 0 0 0 5.956 3.58 344.567 344.567 0 0 0 19.31 11.42l1.69 1.178 17.092 10.092a.594.594 0 0 0 .354.081c2.485-.248 3.82-1.288 5.875-2.477a7441.394 7441.394 0 0 1 27.154-15.618c1.149-.658 1.372-1.547.667-2.667-.247-.396-.88-.878-1.898-1.443-4.467-2.475-8.931-4.96-13.394-7.454l-69.669-39.503a9.864 9.864 0 0 0-3.419-1.426.577.577 0 0 0-.412.07l-14.747 8.573Zm-4.209 43.302 4.354 2.696 1.742 1.057 14.038 8.296c1.266.872 2.584 1.12 4.035.312 6.754-3.749 11.178-6.389 13.272-7.921 1.757-1.286 1.707-2.485-.151-3.597a1615.236 1615.236 0 0 0-19.757-11.657c-2.601-1.513-4.366-1.553-7.112-.029-3.894 2.16-7.783 4.327-11.669 6.501-2.787 1.559-.401 3.378 1.248 4.342Z"/>
    <path fill="#3C4537" d="M147.801 184.991c-1.226-.204-2.204-.617-2.931-1.241a.586.586 0 0 0-.674-.058l-14.828 8.661-.145-.145 14.747-8.573a.577.577 0 0 1 .412-.07 9.845 9.845 0 0 1 3.419 1.426Z"/>
    <path fill="#ACC3CB" d="m147.801 184.991 69.669 39.503a.167.167 0 0 0-.116.069.066.066 0 0 0-.014.039.112.112 0 0 0 .008.046.177.177 0 0 0 .03.045.238.238 0 0 0 .045.038c4.386 2.525 8.784 5.03 13.197 7.517.89.504 1.488.92 1.794 1.247.836.897.722 1.651-.343 2.263-8.929 5.127-17.829 10.167-26.607 15.364-2.903 1.72-5.388 3.325-7.908 1.853a2041.545 2041.545 0 0 1-15.704-9.238.15.15 0 0 0-.174.012c-.074.061-.093.138-.059.231l-1.689-1.178a237.957 237.957 0 0 0-19.31-11.42 27.19 27.19 0 0 1-5.957-3.58 423.4 423.4 0 0 0-20.889-12.448 8.032 8.032 0 0 1-2.751-1.633c-8.508-5.366-13.572-8.441-15.194-9.227-.937-.454-1.548-.939-1.835-1.455-.472-.846-.286-1.516.558-2.009l14.816-8.677 14.828-8.661a.58.58 0 0 1 .673.058c.728.624 1.705 1.037 2.932 1.241Z"/>
    <path fill="#3C4537" d="M48.814 192.595c-1.18-.724-1.583-2.109-1.207-4.157a.576.576 0 0 1 .29-.398l5.225-2.864c.72-.393 1.614-.269 2.682.37 6.15 3.664 12.157 7.217 18.021 10.658 6.241 3.666-2.647 6.98-4.882 8.308a.593.593 0 0 1-.598-.006 6831.98 6831.98 0 0 1-19.53-11.911Zm11.368 6.08c2.316 1.824 4.83 3.279 8.22 5.248a.572.572 0 0 0 .587 0c1.893-1.109 9.231-3.678 4.94-6.859a41.373 41.373 0 0 0-6.972-4.18l-11.756-7.292a.586.586 0 0 0-.326-.087c-2.299.058-4.352 1.012-6.16 2.864-1.614 1.663-1.225 2.979.668 4.139a189.008 189.008 0 0 0 10.799 6.167Z"/>
    <path fill="#88C159" d="m66.957 192.884-.842.727c-.433-.573-.886-.664-1.358-.271-.542-.254-1.05-.183-1.522.214a9.667 9.667 0 0 1-2.484 2.257.573.573 0 0 1-.593.017l-10.322-5.664a.201.201 0 0 0-.101-.025.18.18 0 0 0-.096.031c-.151.104-.138.202.04.295a147.241 147.241 0 0 1 10.532 6.224c.081.05.168.08.261.092l.534.046.023.266-.847 1.582a189.005 189.005 0 0 1-10.799-6.167c-1.893-1.16-2.282-2.476-.668-4.139 1.808-1.852 3.861-2.806 6.16-2.864a.586.586 0 0 1 .325.087l11.757 7.292Z"/>
    <path fill="#3C4537" d="m85.68 189.997 2.758 2.067-.459.41-3.773-2.31c.317-.692.808-.748 1.474-.167ZM63.235 193.553a6.576 6.576 0 0 1-1.817 2.818l-.412.456-.534-.046a.652.652 0 0 1-.262-.092 147.263 147.263 0 0 0-10.531-6.224c-.178-.093-.192-.191-.04-.295a.18.18 0 0 1 .095-.031.201.201 0 0 1 .102.025l10.322 5.664a.581.581 0 0 0 .592-.017 9.652 9.652 0 0 0 2.485-2.258ZM129.223 192.208l.145.145-14.816 8.677c-.844.493-1.029 1.163-.557 2.009.286.516.898 1.001 1.834 1.455 1.622.786 6.687 3.861 15.194 9.227-8.341-4.542-13.866-7.787-16.575-9.735-1.564-1.124-1.473-2.211.273-3.262a718.8 718.8 0 0 1 14.502-8.516Z"/>
    <path fill="#F7F7F7" d="M66.957 192.884a41.374 41.374 0 0 1 6.973 4.18c4.29 3.181-3.048 5.75-4.941 6.859a.572.572 0 0 1-.586 0c-3.391-1.969-5.905-3.424-8.221-5.248l.847-1.582c1.04.104 3.623 2.234 5.58 3.273 2.16 1.149 4.098.531 5.794-.964.6-.531.52-.664-.238-.398-.236.081-.399.252-.488.514a.59.59 0 0 1-.296.329c-3.13 1.524-5.83-.739-8.923-2.691a.546.546 0 0 0-.262-.086c-.441-.039-.7-.272-.778-.699a6.576 6.576 0 0 0 1.817-2.818c.473-.396.98-.467 1.522-.213l5.608 3.787c.123.082.21.21.244.358.244 1.17.516 1.211.818.121a.563.563 0 0 0-.016-.351.584.584 0 0 0-.222-.278l-5.074-3.366.842-.727Zm2.606 6.226c.05-.082-.234-.361-.79-.774a28.161 28.161 0 0 0-2.173-1.428 28.102 28.102 0 0 0-2.284-1.245c-.626-.297-1.006-.417-1.057-.334-.05.083.234.361.79.774a27.87 27.87 0 0 0 2.173 1.428c.836.502 1.658.95 2.284 1.246.627.296 1.007.416 1.057.333Z"/>
    <path fill="#ACC3CB" d="m66.115 193.611 5.074 3.366a.584.584 0 0 1 .222.278.566.566 0 0 1 .016.352c-.302 1.089-.575 1.048-.819-.122a.584.584 0 0 0-.243-.358l-5.609-3.787c.472-.393.925-.302 1.359.271ZM66.222 197.531c1.74 1.044 3.237 1.751 3.34 1.579.105-.172-1.221-1.158-2.962-2.202-1.74-1.044-3.236-1.751-3.34-1.579-.105.172 1.221 1.158 2.962 2.202Z"/>
    <path fill="#ACC3CB" d="M61.418 196.371c.078.427.337.66.778.699a.546.546 0 0 1 .261.086c3.095 1.952 5.794 4.215 8.924 2.691a.59.59 0 0 0 .296-.329c.089-.262.251-.433.487-.514.76-.266.838-.133.239.398-1.696 1.495-3.635 2.113-5.795.964-1.956-1.039-4.54-3.169-5.579-3.273l-.023-.266.412-.456Z"/>
    <path fill="#3C4537" d="M241.755 208.744a66.398 66.398 0 0 1-8.458-4.203c-.666-.397-.956-.212-.871.554.065.612.325 1.155.778 1.628.228.242.271.491.127.745a.552.552 0 0 0-.075.3l.244 9.446a.578.578 0 0 0 .29.484l7.611 4.348a.587.587 0 0 0 .778-.183.568.568 0 0 0 .093-.273l.041-.537c.12.342.17.691.151 1.045a.585.585 0 0 1-.58.548.569.569 0 0 1-.279-.075l-8.308-4.595a.593.593 0 0 1-.222-.214.565.565 0 0 1-.08-.294l.005-9.585c0-.1-.023-.192-.069-.277a8.174 8.174 0 0 1-.981-3.06c-.089-.731.193-.923.847-.577l8.958 4.775Z"/>
    <path fill="#ACC3CB" d="M241.755 208.744c.494.542 1.272.912 1.504 1.536a.916.916 0 0 1-.11.906.582.582 0 0 1-.726.185l-2.02-.976a77.037 77.037 0 0 0-3.832-1.9c-.012-.005-.563-.08-.238.128a36.262 36.262 0 0 0 3.779 2.061l1.887 1.253a.558.558 0 0 1 .256.473l.058 8.643-.041.537a.584.584 0 0 1-.871.456l-7.611-4.347a.589.589 0 0 1-.29-.485l-.244-9.446a.552.552 0 0 1 .075-.3c.144-.254.101-.503-.127-.745-.453-.473-.713-1.016-.778-1.628-.086-.766.205-.951.87-.554a66.477 66.477 0 0 0 8.459 4.203Z"/>
    <path fill="#3C4537" d="m240.403 210.395-.291.289a36.085 36.085 0 0 1-3.779-2.062c-.325-.207.226-.132.238-.127 1.293.597 2.57 1.23 3.832 1.9Z"/>
    <path fill="#ACC3CB" d="M175.576 276.416c-32.059-19.007-64.112-38.014-96.143-57.078a.579.579 0 0 1-.284-.496l-.006-3.811c0-.681.292-.847.877-.496l100.717 59.779a.58.58 0 0 1 .285.497l-.018 3.556a.568.568 0 0 1-.275.487.588.588 0 0 1-.561.027 65.813 65.813 0 0 1-4.592-2.465Z"/>
    <path fill="#3C4537" d="M154.664 227.802a444.525 444.525 0 0 1-20.889-12.448 423.4 423.4 0 0 1 20.889 12.448Z"/>
    <path fill="#ACC3CB" d="m239.329 226.821-14.189-7.789c.122-.306.319-.346.598-.19a200.316 200.316 0 0 1 13.591 7.979Z"/>
    <path fill="#3C4537" d="M145.148 247.559c1.796.432 3.54.149 5.231-.848a716.915 716.915 0 0 0 11.977-7.188c1.502-.92 1.55-1.798.146-2.633a1653.701 1653.701 0 0 1-17.644-10.641 20.657 20.657 0 0 0-6.514-2.615.589.589 0 0 0-.406.058l-13.928 7.742c-1.285.716-1.525 1.422-.72 2.119l1.979 1.715c.206.18.173.269-.098.265a.634.634 0 0 1-.157-.023c-1.649-.964-4.035-2.783-1.248-4.342 3.886-2.174 7.776-4.341 11.669-6.501 2.746-1.524 4.511-1.484 7.112.029a1615.236 1615.236 0 0 1 19.757 11.657c1.858 1.112 1.908 2.311.151 3.597-2.094 1.532-6.518 4.172-13.272 7.921-1.451.808-2.769.56-4.035-.312Z"/>
    <path fill="#ACC3CB" d="m145.148 247.559-14.038-8.296c-.197-1.005-.778-1.357-1.742-1.057l-4.354-2.696c.058.015.11.023.157.023.271.004.304-.085.099-.266l-1.98-1.714c-.805-.697-.565-1.403.72-2.119l13.928-7.742a.59.59 0 0 1 .406-.058 20.648 20.648 0 0 1 6.514 2.615c5.86 3.584 11.741 7.131 17.644 10.641 1.405.835 1.356 1.713-.145 2.633a721.091 721.091 0 0 1-11.978 7.188c-1.691.997-3.435 1.279-5.231.848Z"/>
    <path fill="#3C4537" d="M217.47 224.494c4.463 2.494 8.927 4.979 13.394 7.454 1.018.565 1.651 1.047 1.898 1.443.705 1.12.482 2.009-.667 2.667a7441.394 7441.394 0 0 0-27.154 15.618c-2.055 1.189-3.39 2.229-5.875 2.477a.594.594 0 0 1-.354-.081L181.62 243.98c-.035-.093-.016-.17.058-.231a.15.15 0 0 1 .174-.012 2022.816 2022.816 0 0 0 15.705 9.238c2.519 1.472 5.004-.133 7.907-1.853 8.778-5.197 17.678-10.237 26.608-15.364 1.064-.612 1.178-1.366.342-2.263-.306-.327-.904-.743-1.794-1.247a1657.519 1657.519 0 0 1-13.196-7.517.212.212 0 0 1-.046-.038.15.15 0 0 1-.029-.045.1.1 0 0 1-.009-.046.074.074 0 0 1 .014-.039.169.169 0 0 1 .116-.069ZM179.93 242.802a344.18 344.18 0 0 1-19.309-11.42 237.939 237.939 0 0 1 19.309 11.42ZM131.11 239.263l-1.742-1.057c.964-.3 1.544.052 1.742 1.057ZM261.907 248.766l-.313.167c-2.578-1.887-5.684.867-7.931 2.218-.029.017-.848.277-.18-.185 2.961-2.056 5.632-4.475 8.424-2.2Z"/>
    <path fill="#ACC3CB" d="m261.907 248.766 4.621 2.575-.29.144-4.645-2.552.314-.167Z"/>
    <path fill="#88C159" d="m287.162 279.366-.023.266a1878.589 1878.589 0 0 1-10.224-6.051c-2.961-1.767 1.016-3.383 2.061-4.151.797-.593.797-1.186 0-1.779a30.387 30.387 0 0 0-3.298-2.153 1911.847 1911.847 0 0 1-27.188-15.595.586.586 0 0 0-.337-.08 3.512 3.512 0 0 0-1.799.652l-.146-.144 1.411-1.04a.6.6 0 0 1 .333-.113c.12-.003.237.03.335.096a21.255 21.255 0 0 0 4.116 2.148c.616.237 1.556 1.143 2.27 1.553 7.768 4.442 15.747 8.995 23.937 13.66a3.37 3.37 0 0 1 1.208 1.167c.946 1.53-2.398 3.192-3.582 3.879a.566.566 0 0 0-.285.49.573.573 0 0 0 .279.498l10.932 6.697Z"/>
    <path fill="#DBF305" d="m287.139 279.632 6.531 4.087c.36.535.167.905-.58 1.109a2211.773 2211.773 0 0 0-50.946 29.301l-2.032 1.299-5.66 3.233a.588.588 0 0 1-.645-.046c-1.83-1.394-3.882-2.496-6.154-3.309l-.604-.6a204.76 204.76 0 0 0-14.949-8.759l-24.117-14.312-5.016-3.026a.578.578 0 0 1-.278-.489.57.57 0 0 1 .272-.492l10.2-6.316a15.239 15.239 0 0 1 3.902-2.298 611.037 611.037 0 0 0 25.464-14.804l8.325-4.873a231.237 231.237 0 0 0 15.502-8.862 3.512 3.512 0 0 1 1.799-.652.587.587 0 0 1 .337.08 1911.847 1911.847 0 0 0 27.188 15.595 30.484 30.484 0 0 1 3.298 2.153c.797.593.797 1.186 0 1.779-1.045.768-5.022 2.384-2.061 4.151 3.402 2.028 6.81 4.045 10.224 6.051Zm-57.332-5.052c-1.022.25-1.269.648-.743 1.195l25.766 15.386a.572.572 0 0 0 .58.006l9.655-5.427a.465.465 0 0 0 .215-.248c.132-.378-.081-.599-.638-.664l-6.218-3.73-16.425-9.405-3.57-2.125a.576.576 0 0 0-.604.012l-8.018 5Z"/>
    <path fill="#3C4537" d="m246.208 250.331.145.144a231.651 231.651 0 0 1-15.501 8.862l15.356-9.006ZM266.529 251.341l36.367 20.456a.579.579 0 0 1 .232.76.56.56 0 0 1-.192.215l-3.773 2.552a69.727 69.727 0 0 0-8.964 4.596.594.594 0 0 0-.281.478.568.568 0 0 0 .246.492l3.82 2.662-.314.167-6.531-4.088.023-.265c.975.735 1.879.872 2.711.41 4.142-2.314 8.277-4.631 12.407-6.952.592-.331.592-.666 0-1.004l-36.042-20.335.291-.144ZM222.527 264.21a611.037 611.037 0 0 1-25.464 14.804 555 555 0 0 1 25.464-14.804Z"/>
    <path fill="#88C159" d="m241.999 271.693-.29.046-3.158-1.761a.593.593 0 0 0-.587.012l-7.721 4.636-.436-.046 8.018-5a.576.576 0 0 1 .604-.012l3.57 2.125Z"/>
    <path fill="#F7F7F7" d="m241.709 271.739 16.668 9.792 5.829 3.343c.726.814-.226.929-.691 1.207a245.792 245.792 0 0 1-8.006 4.567.586.586 0 0 1-.575-.012l-25.562-15.046c.054-.508.344-.829.87-.964l7.722-4.636a.595.595 0 0 1 .586-.012l3.159 1.761Z"/>
    <path fill="#ACC3CB" d="m241.709 271.739.29-.046 16.425 9.405-.047.433-16.668-9.792ZM229.807 274.58l.436.046c-.526.134-.817.456-.871.964l-.308.185c-.526-.547-.278-.945.743-1.195ZM299.162 275.324l.68.786 4.743 3.152c.604.404.569.743-.104 1.016-.883.358-1.673 1.016-2.369 1.975a2.715 2.715 0 0 0-.918 1.587c-.646-.615-1.263-.754-1.852-.415a47290.634 47290.634 0 0 1-57.058 32.765c-.732.423-1.221.273-1.469-.451.677-.373 1.12-.91 1.329-1.61a2210.21 2210.21 0 0 1 50.946-29.301c.487-.008.917-.15 1.289-.428.487-.361.441-.631-.14-.808a1.048 1.048 0 0 0-.255-.04l-3.82-2.662a.573.573 0 0 1-.167-.765.607.607 0 0 1 .201-.205 69.858 69.858 0 0 1 8.964-4.596Z"/>
    <path fill="#88C159" d="m229.372 275.59 25.562 15.046a.591.591 0 0 0 .575.011 243.929 243.929 0 0 0 8.006-4.566c.465-.278 1.417-.393.691-1.207l.435-.046c.558.065.771.286.639.664a.465.465 0 0 1-.215.248l-9.655 5.427a.566.566 0 0 1-.58-.006l-25.766-15.386.308-.185Z"/>
    <path fill="#3C4537" d="m299.842 276.11 5.794 3.077c.611.323.617.66.017 1.01l-3.541 2.056c.697-.959 1.486-1.617 2.369-1.975.673-.273.708-.612.104-1.016l-4.743-3.152Z"/>
    <path fill="#ACC3CB" d="m258.423 281.098 6.218 3.73-.435.046-5.829-3.343.046-.433Z"/>
    <path fill="#000" d="m193.162 281.312-10.201 6.316a.57.57 0 0 0-.272.492.576.576 0 0 0 .278.489l5.016 3.026c-.9-.399-2.427-1.484-3.367-1.415-2.079.15-.256 1.542.33 1.882a6875.804 6875.804 0 0 1 40.989 24.065c.109.067.24.093.371.075.558-.07 1.007-.381 1.347-.936 2.272.813 4.324 1.915 6.154 3.309a.588.588 0 0 0 .645.046l5.66-3.233.703.311c.248.724.737.874 1.469.451a45983.825 45983.825 0 0 0 57.058-32.765c.589-.339 1.206-.2 1.852.415l.326.387a.58.58 0 0 1-.157.872l-66.83 38.516a.591.591 0 0 1-.592 0c-16.91-9.931-33.929-19.96-51.056-30.087-3.413-2.02-2.264-5.248.627-6.934 3.163-1.839 6.379-3.6 9.65-5.282Z"/>
    <path fill="#88C159" d="M293.984 283.552c.093.004.178.017.255.04.581.177.627.447.14.808-.372.278-.801.42-1.289.428.747-.204.94-.574.58-1.109l.314-.167Z"/>
    <path fill="#F7F7F7" d="m187.983 291.635 24.117 14.312a188.868 188.868 0 0 0 14.95 8.759l.603.6c-.34.555-.789.866-1.347.936a.561.561 0 0 1-.371-.075 6844.166 6844.166 0 0 0-40.989-24.065c-.586-.34-2.409-1.732-.33-1.882.94-.069 2.467 1.016 3.367 1.415Z"/>
    <path fill="#ACC3CB" d="M212.1 305.947a204.992 204.992 0 0 1 14.95 8.759 188.868 188.868 0 0 1-14.95-8.759Z"/>
    <path fill="#3C4537" d="M242.144 314.128c-.209.701-.652 1.238-1.329 1.611l-.703-.312 2.032-1.299Z"/>
  </g>
  <defs>
    <clipPath id="a">
      <path fill="#fff" d="M0 0h360v360H0z"/>
    </clipPath>
  </defs>
</svg>